<?xml version="1.0" standalone="no"?>
<!DOCTYPE svg PUBLIC "-//W3C//DTD SVG 1.1//EN" "http://www.w3.org/Graphics/SVG/1.1/DTD/svg11.dtd" >
<svg xmlns="http://www.w3.org/2000/svg" xmlns:xlink="http://www.w3.org/1999/xlink" version="1.1">
<metadata>
Created by FontForge 20190801 at Sat Aug  8 01:00:02 2015
 By Jimmy Wärting
(c) 2015 Apple Inc. All rights reserved.
</metadata>
<defs>
<font id="SFUIText-LightItalic" horiz-adv-x="0" >
  <font-face 
    font-family="SF UI Text"
    font-weight="300"
    font-style="italic"
    font-stretch="normal"
    units-per-em="2048"
    panose-1="0 0 4 0 0 0 0 0 0 0"
    ascent="1638"
    descent="-410"
    x-height="1077"
    cap-height="1443"
    bbox="-484 -549 2914 2138"
    underline-thickness="95"
    underline-position="-369"
    slope="-12"
    unicode-range="U+0020-FB02"
  />
<missing-glyph horiz-adv-x="2048" 
d="M-46 -494l65 308h1848l-65 -308h-1848zM44 -67l66 308h1848l-65 -308h-1849zM135 361l66 307h1848l-66 -307h-1848zM226 788l65 307h1849l-66 -307h-1848zM317 1215l65 308h1848l-65 -308h-1848zM408 1642l65 308h1848l-65 -308h-1848z" />
    <glyph glyph-name=".notdef" horiz-adv-x="2048" 
d="M-46 -494l65 308h1848l-65 -308h-1848zM44 -67l66 308h1848l-65 -308h-1849zM135 361l66 307h1848l-66 -307h-1848zM226 788l65 307h1849l-66 -307h-1848zM317 1215l65 308h1848l-65 -308h-1848zM408 1642l65 308h1848l-65 -308h-1848z" />
    <glyph glyph-name=".null" 
 />
    <glyph glyph-name="nonmarkingreturn" 
 />
    <glyph glyph-name="space" unicode=" " horiz-adv-x="554" 
 />
    <glyph glyph-name="exclam" unicode="!" horiz-adv-x="616" 
d="M496 1444h152l-221 -987h-128zM289 -16q-50 0 -83.5 33.5t-33.5 83.5t33.5 84t83.5 34t83 -34t33 -84t-33 -83.5t-83 -33.5z" />
    <glyph glyph-name="quotedbl" unicode="&#x22;" horiz-adv-x="802" 
d="M453 935h-123l108 508h124zM786 935h-123l108 508h123z" />
    <glyph glyph-name="numbersign" unicode="#" horiz-adv-x="1316" 
d="M1365 918h-234l-159 -381h231l-46 -111h-230l-179 -426h-118l179 426h-334l-178 -426h-117l178 426h-226l46 111h227l158 381h-223l46 110h222l175 417h117l-174 -417h333l175 417h118l-175 -417h234zM679 919l-158 -384h334l159 384h-335z" />
    <glyph glyph-name="dollar" unicode="$" horiz-adv-x="1321" 
d="M825 654l-119 -561h12q163 0 258.5 80t95.5 207q0 95 -59.5 158t-187.5 116zM758 828l111 520h-14q-144 0 -236.5 -76.5t-92.5 -191.5q0 -85 55 -142.5t177 -109.5zM854 788l39 -17q163 -68 243.5 -158t80.5 -219q0 -191 -143 -308t-367 -117q-18 0 -27 1l-26 -123h-104
l29 135q-166 34 -275 143.5t-116 258.5h138q11 -107 85.5 -181t193.5 -99l125 589l-37 15q-157 64 -234 153.5t-77 211.5q0 174 136 287t355 113h22l27 126h104l-30 -139q152 -34 248 -138t101 -239h-137q-13 95 -76 161t-162 91z" />
    <glyph glyph-name="percent" unicode="%" horiz-adv-x="1610" 
d="M634 1363q-86 0 -149.5 -87t-63.5 -206q0 -85 40 -136.5t107 -51.5q86 0 148.5 88t62.5 208q0 85 -39.5 135t-105.5 50zM312 0h-146l708 746l662 697h146l-718 -756zM561 781q-118 0 -189.5 79.5t-71.5 210.5q0 163 99 278t241 115q116 0 188 -79.5t72 -209.5
q0 -162 -99.5 -278t-239.5 -116zM1281 561q-86 0 -149 -87t-63 -206q0 -85 40 -136.5t106 -51.5q86 0 148.5 88t62.5 208q0 85 -39 135t-106 50zM1208 -21q-118 0 -189.5 79.5t-71.5 210.5q0 163 99.5 278t240.5 115q117 0 189 -79.5t72 -209.5q0 -162 -100 -278t-240 -116z
" />
    <glyph glyph-name="ampersand" unicode="&#x26;" horiz-adv-x="1472" 
d="M599 1129q0 -52 27.5 -113t92.5 -152q172 57 257 140.5t85 176.5q0 81 -58 130t-151 49q-104 0 -178.5 -68t-74.5 -163zM615 92q100 0 201.5 32.5t182.5 97.5l-342 508l-83 -33q-145 -56 -220 -139t-75 -185q0 -122 92.5 -201.5t243.5 -79.5zM1146 0l-83 124
q-195 -148 -454 -148q-196 0 -331.5 111.5t-135.5 273.5q0 280 370 428l85 34q-69 100 -99.5 172t-30.5 136q0 141 113 240.5t278 99.5q145 0 239.5 -78.5t94.5 -197.5q0 -272 -414 -419l319 -464q143 161 168 384l9 65h129l-10 -71q-32 -275 -226 -481l141 -209h-162z" />
    <glyph glyph-name="quotesingle" unicode="'" horiz-adv-x="469" 
d="M453 935h-123l108 508h124z" />
    <glyph glyph-name="parenleft" unicode="(" horiz-adv-x="711" 
d="M477 -268h-120q-51 107 -82.5 272.5t-31.5 318.5q0 310 121.5 609t336.5 511h148q-224 -226 -348.5 -519.5t-124.5 -599.5q0 -324 101 -592z" />
    <glyph glyph-name="parenright" unicode=")" horiz-adv-x="710" 
d="M400 1443h120q51 -107 82.5 -272.5t31.5 -318.5q0 -311 -121.5 -609.5t-336.5 -510.5h-148q224 225 348.5 518.5t124.5 600.5q0 324 -101 592z" />
    <glyph glyph-name="asterisk" unicode="*" horiz-adv-x="969" 
d="M909 822l-215 180l-52 -294l-101 8l73 294l-282 -134l-33 95l288 113l-230 161l72 86l215 -181l51 295l102 -8l-73 -294l281 134l33 -94l-287 -113l229 -162z" />
    <glyph glyph-name="plus" unicode="+" horiz-adv-x="1321" 
d="M789 523l-97 -456h-118l98 456h-443l26 114h441l95 448h117l-95 -448h442l-25 -114h-441z" />
    <glyph glyph-name="comma" unicode="," horiz-adv-x="593" 
d="M185 -339h-116l208 531h153z" />
    <glyph glyph-name="hyphen" unicode="-" horiz-adv-x="975" 
d="M884 520h-656l27 124h656z" />
    <glyph glyph-name="hyphen" unicode="&#x2011;" horiz-adv-x="975" 
d="M884 520h-656l27 124h656z" />
    <glyph glyph-name="period" unicode="." horiz-adv-x="593" 
d="M255 -10q-45 0 -77.5 32.5t-32.5 77.5q0 46 32.5 78t77.5 32q46 0 78 -32t32 -78q0 -45 -32 -77.5t-78 -32.5z" />
    <glyph glyph-name="slash" unicode="/" horiz-adv-x="695" 
d="M75 -327h-119l819 1770h120z" />
    <glyph glyph-name="zero" unicode="0" horiz-adv-x="1282" 
d="M645 -30q-193 0 -309 142.5t-116 375.5q0 204 52.5 387.5t140.5 314t209 207t253 76.5q191 0 307.5 -143.5t116.5 -377.5q0 -205 -52 -388t-140 -313t-208.5 -205.5t-253.5 -75.5zM356 493q0 -186 80 -294t219 -108q135 0 252 116t186 314t69 427q0 185 -79.5 294
t-216.5 109q-135 0 -252.5 -116.5t-187.5 -314.5t-70 -427z" />
    <glyph glyph-name="one" unicode="1" horiz-adv-x="913" 
d="M461 0l271 1278h-12q-23 -12 -217 -128.5t-214 -128.5l34 157q5 3 74 45t138.5 84t140 84t93.5 54h136l-307 -1445h-137z" />
    <glyph glyph-name="two" unicode="2" horiz-adv-x="1222" 
d="M328 1069q25 179 161 291.5t328 112.5q179 0 300.5 -103.5t121.5 -256.5q0 -123 -83 -236.5t-326 -326.5l-477 -414l-3 -12h748l-25 -124h-954l22 107l620 544q209 183 273.5 268.5t64.5 179.5q0 109 -83 181.5t-208 72.5q-131 0 -226.5 -78.5t-118.5 -205.5h-135z" />
    <glyph glyph-name="three" unicode="3" horiz-adv-x="1260" 
d="M552 685l24 119h205q147 0 247.5 86.5t100.5 212.5q0 110 -83 179.5t-214 69.5q-115 0 -207.5 -66t-126.5 -172h-135q39 162 171 260.5t310 98.5q183 0 304.5 -101t121.5 -253q0 -144 -94.5 -246t-251.5 -128l-2 -12q126 -25 195.5 -104t69.5 -199q0 -202 -150.5 -331
t-386.5 -129q-200 0 -336.5 108.5t-136.5 266.5q0 24 4 46h132q-3 -14 -3 -27q0 -119 98.5 -196.5t249.5 -77.5q174 0 281.5 91.5t107.5 240.5q0 118 -94 190.5t-245 72.5h-156z" />
    <glyph glyph-name="four" unicode="4" horiz-adv-x="1312" 
d="M802 0l70 326h-725l21 129q310 386 870 990h205l-211 -996h215l-26 -123h-215l-70 -326h-134zM320 457l-2 -9h580l184 864h-10q-426 -452 -752 -855z" />
    <glyph glyph-name="five" unicode="5" horiz-adv-x="1256" 
d="M659 -30q-129 0 -236 50.5t-168 138t-61 192.5q0 14 2 24h135v-7q0 -120 93 -198.5t240 -78.5q176 0 288.5 118t112.5 299q0 139 -90.5 225t-233.5 86q-98 0 -186.5 -42.5t-143.5 -111.5h-137l242 778h781l-26 -123h-667l-154 -506l12 -1q58 59 140 90.5t171 31.5
q183 0 307.5 -116.5t124.5 -292.5q0 -242 -151 -399t-395 -157z" />
    <glyph glyph-name="six" unicode="6" horiz-adv-x="1288" 
d="M1235 538q0 -158 -73 -288.5t-201 -205t-284 -74.5q-208 0 -336.5 137t-128.5 374q0 169 42 337t118 304q92 169 227.5 260t296.5 91q185 0 307.5 -107.5t129.5 -275.5h-141q-8 118 -92 189t-216 71q-184 0 -319 -166t-195 -470l12 -1q67 109 178.5 171.5t242.5 62.5
q188 0 310 -115.5t122 -293.5zM773 829q-172 0 -295 -120.5t-123 -293.5q0 -143 92 -232.5t239 -89.5q171 0 289.5 124t118.5 304q0 135 -90.5 221.5t-230.5 86.5z" />
    <glyph glyph-name="seven" unicode="7" horiz-adv-x="1161" 
d="M188 0l947 1308l2 12h-775l27 123h919l-27 -128l-940 -1315h-153z" />
    <glyph glyph-name="eight" unicode="8" horiz-adv-x="1294" 
d="M1211 430q0 -199 -153.5 -329.5t-393.5 -130.5q-221 0 -357.5 107t-136.5 272q0 169 114 288t288 136l3 12q-93 37 -145.5 110t-52.5 163q0 176 138.5 295.5t350.5 119.5q188 0 312 -98t124 -244q0 -145 -93 -247.5t-241 -128.5l-3 -12q114 -39 180 -122.5t66 -190.5z
M710 702q-173 0 -285.5 -95t-112.5 -238q0 -129 96 -204.5t262 -75.5q177 0 289.5 96t112.5 243q0 121 -101.5 197.5t-260.5 76.5zM510 1052q0 -105 84.5 -171t224.5 -66q149 0 247 84.5t98 214.5q0 108 -84.5 174t-222.5 66q-153 0 -250 -86.5t-97 -215.5z" />
    <glyph glyph-name="nine" unicode="9" horiz-adv-x="1288" 
d="M740 614q173 0 295.5 121.5t122.5 293.5q0 143 -93.5 232t-240.5 89q-174 0 -289.5 -121t-115.5 -299q0 -136 90.5 -226t230.5 -90zM278 913q0 239 158 399.5t397 160.5q213 0 340.5 -138.5t127.5 -370.5q0 -168 -42 -337.5t-118 -306.5q-92 -169 -227.5 -259.5
t-296.5 -90.5q-185 0 -307.5 107t-129.5 275h141q8 -118 92 -188.5t216 -70.5q185 0 319.5 166.5t194.5 469.5l-12 1q-68 -110 -179.5 -172t-241.5 -62q-187 0 -309.5 119t-122.5 298z" />
    <glyph glyph-name="colon" unicode=":" horiz-adv-x="593" 
d="M255 -10q-45 0 -77.5 32.5t-32.5 77.5q0 46 32.5 78t77.5 32q46 0 78 -32t32 -78q0 -45 -32 -77.5t-78 -32.5zM425 763q-45 0 -77.5 32.5t-32.5 78.5t32.5 78t77.5 32q46 0 78 -32t32 -78t-32 -78.5t-78 -32.5z" />
    <glyph glyph-name="semicolon" unicode=";" horiz-adv-x="593" 
d="M147 -339h-116l208 531h154zM425 763q-45 0 -77.5 32.5t-32.5 78.5t32.5 78t77.5 32q46 0 78 -32t32 -78t-32 -78.5t-78 -32.5z" />
    <glyph glyph-name="less" unicode="&#x3c;" horiz-adv-x="1321" 
d="M1079 106l-30 -141l-752 583l23 109l978 478l-30 -145l-826 -396l-2 -12z" />
    <glyph glyph-name="equal" unicode="=" horiz-adv-x="1321" 
d="M1187 331h-995l25 115h995zM1268 714h-995l25 115h995z" />
    <glyph glyph-name="greater" unicode="&#x3e;" horiz-adv-x="1321" 
d="M393 994l30 141l752 -583l-24 -109l-977 -478l30 145l826 396l2 12z" />
    <glyph glyph-name="question" unicode="?" horiz-adv-x="1020" 
d="M274 1102q34 164 151 260t296 96q174 0 283.5 -95t109.5 -233q0 -128 -78.5 -231t-212.5 -159q-107 -45 -156 -96.5t-65 -135.5l-16 -78h-136l20 94q26 118 85.5 183t179.5 116q235 102 235 293q0 94 -68.5 158t-189.5 64q-113 0 -193.5 -63t-112.5 -173h-132zM456 -16
q-51 0 -84 33.5t-33 83.5q0 51 33 84.5t84 33.5q50 0 83 -33.5t33 -84.5q0 -50 -33 -83.5t-83 -33.5z" />
    <glyph glyph-name="at" unicode="@" horiz-adv-x="1871" 
d="M1170 1436q213 0 383 -84t265.5 -233.5t95.5 -337.5q0 -176 -60 -323t-164 -231.5t-229 -84.5q-92 0 -151 47t-59 120q0 3 0.5 11t0.5 12l-12 1q-43 -74 -112.5 -115t-153.5 -41q-138 0 -221.5 91t-83.5 241q0 211 121.5 359.5t293.5 148.5q93 0 164.5 -51.5t85.5 -130.5
h12l31 147h121l-128 -593q-6 -33 -6 -46q0 -49 31.5 -75.5t91.5 -26.5q83 0 157 74.5t118.5 198.5t44.5 262q0 248 -180.5 404.5t-467.5 156.5q-226 0 -412.5 -109t-293 -298.5t-106.5 -419.5q0 -296 198.5 -473.5t528.5 -177.5q132 0 203 22l-21 -99q-94 -22 -216 -22
q-234 0 -416.5 93t-283.5 260.5t-101 383.5q0 200 70.5 374.5t193 298.5t296 195t371.5 71zM1302 670q0 109 -56 173.5t-151 64.5q-125 0 -213.5 -114t-88.5 -276q0 -107 55.5 -170t149.5 -63q124 0 214 113.5t90 271.5z" />
    <glyph glyph-name="A" unicode="A" horiz-adv-x="1363" 
d="M1112 0l-67 443h-608l-254 -443h-149l851 1443h128l233 -1443h-134zM907 1262l-404 -702h527l-110 702h-13z" />
    <glyph glyph-name="B" unicode="B" horiz-adv-x="1324" 
d="M716 0h-573l307 1443h480q182 0 291 -86t109 -225q0 -144 -91.5 -247t-240.5 -129l-3 -13q123 -20 194.5 -98t71.5 -194q0 -195 -152 -323t-393 -128zM563 1322l-109 -515h347q170 0 278.5 83t108.5 214q0 104 -78 161t-228 57h-319zM308 121h404q175 0 290 92t115 227
q0 119 -85 183.5t-247 64.5h-357z" />
    <glyph glyph-name="C" unicode="C" horiz-adv-x="1461" 
d="M1378 990q0 2 0.5 7t0.5 8q-8 150 -122 245.5t-292 95.5q-165 0 -302.5 -101t-217 -276.5t-79.5 -386.5q0 -226 115.5 -355.5t315.5 -129.5q160 0 283 77.5t166 204.5h144q-54 -189 -217.5 -299t-389.5 -110q-255 0 -407 162t-152 435q0 192 57.5 360t157 288t239 189
t297.5 69q234 0 388 -133.5t154 -331.5q0 -4 -0.5 -10t-0.5 -8h-138z" />
    <glyph glyph-name="D" unicode="D" horiz-adv-x="1476" 
d="M450 1443h413q286 0 447 -162t161 -445q0 -177 -59.5 -332.5t-163 -266t-247.5 -174t-308 -63.5h-548zM564 1321l-255 -1199h390q179 0 323.5 91.5t226.5 253.5t82 362q0 230 -127.5 361t-351.5 131h-288z" />
    <glyph glyph-name="E" unicode="E" horiz-adv-x="1196" 
d="M1042 124l-26 -124h-873l307 1443h873l-27 -124h-732l-112 -519h697l-26 -122h-696l-119 -554h734z" />
    <glyph glyph-name="F" unicode="F" horiz-adv-x="1153" 
d="M283 0h-140l307 1443h858l-27 -124h-717l-117 -542h660l-26 -122h-660z" />
    <glyph glyph-name="G" unicode="G" horiz-adv-x="1505" 
d="M1486 721l-39 -192q-56 -270 -225 -414.5t-427 -144.5t-413.5 165.5t-155.5 440.5q0 254 97 459.5t268 321.5t383 116q224 0 374.5 -124t160.5 -314q1 -7 1 -28h-138q-8 150 -120 244.5t-288 94.5q-124 0 -234.5 -58.5t-190 -159t-125.5 -240.5t-46 -298
q0 -230 119 -361.5t326 -131.5q186 0 320.5 115t171.5 307l16 81h-434l26 121h573z" />
    <glyph glyph-name="H" unicode="H" horiz-adv-x="1489" 
d="M1263 0h-140l144 677h-841l-144 -677h-139l307 1443h140l-137 -642h841l137 642h139z" />
    <glyph glyph-name="I" unicode="I" horiz-adv-x="509" 
d="M283 0h-140l307 1443h140z" />
    <glyph glyph-name="J" unicode="J" horiz-adv-x="1091" 
d="M124 330h137v-6q1 -103 70 -164.5t182 -61.5q116 0 191.5 73.5t106.5 216.5l224 1055h136l-231 -1090q-39 -183 -153 -283t-290 -100q-169 0 -275 100.5t-98 252.5v7z" />
    <glyph glyph-name="K" unicode="K" horiz-adv-x="1311" 
d="M280 0h-137l307 1443h136l-158 -743h12l833 743h180l-706 -631l458 -812h-159l-407 728l-250 -221z" />
    <glyph glyph-name="L" unicode="L" horiz-adv-x="1139" 
d="M1029 124l-26 -124h-860l307 1443h140l-282 -1319h721z" />
    <glyph glyph-name="M" unicode="M" horiz-adv-x="1763" 
d="M274 0h-131l307 1443h150l267 -1256h12l797 1256h167l-307 -1443h-131l250 1177h-9l-745 -1170h-119l-248 1170h-10z" />
    <glyph glyph-name="N" unicode="N" horiz-adv-x="1492" 
d="M281 0h-138l307 1443h135l579 -1218h12l259 1218h138l-307 -1443h-133l-581 1220h-12z" />
    <glyph glyph-name="O" unicode="O" horiz-adv-x="1564" 
d="M799 -30q-253 0 -414 169.5t-161 434.5q0 189 58.5 356t160 286t244 188t303.5 69q252 0 412 -169t160 -435q0 -254 -99 -460t-273.5 -322.5t-390.5 -116.5zM1419 858q0 220 -120.5 354t-318.5 134q-171 0 -311.5 -100t-220.5 -274.5t-80 -386.5q0 -220 121 -354
t320 -134q172 0 311.5 99t219 273.5t79.5 388.5z" />
    <glyph glyph-name="P" unicode="P" horiz-adv-x="1279" 
d="M452 1443h478q181 0 297.5 -104.5t116.5 -272.5q0 -157 -73.5 -276.5t-201.5 -182.5t-289 -63h-382l-115 -544h-140zM565 1321l-141 -655h349q193 0 310.5 104t117.5 284q0 123 -84.5 195t-231.5 72h-320z" />
    <glyph glyph-name="Q" unicode="Q" horiz-adv-x="1570" 
d="M1294 -169h-148l-95 184q-116 -45 -251 -45q-254 0 -416 167.5t-162 426.5q0 190 59 358.5t161 289.5t246 191t308 70q253 0 414 -167.5t161 -427.5q0 -265 -107.5 -479t-294.5 -327zM810 97q94 0 182 32l-138 266h148l108 -207q147 97 232 276.5t85 401.5
q0 216 -121 348t-320 132q-130 0 -245.5 -60t-197.5 -162.5t-129.5 -244.5t-47.5 -302q0 -216 122 -348t322 -132z" />
    <glyph glyph-name="R" unicode="R" horiz-adv-x="1311" 
d="M143 0l309 1443h474q194 0 307.5 -100.5t113.5 -273.5t-110 -298t-293 -159l220 -612h-150l-206 591h-12h-386l-127 -591h-140zM565 1321l-130 -607h376q174 0 283 95t109 247q0 124 -75 194.5t-207 70.5h-356z" />
    <glyph glyph-name="S" unicode="S" horiz-adv-x="1267" 
d="M142 392h138q19 -134 130.5 -215.5t275.5 -81.5q165 0 266.5 79.5t101.5 208.5q0 93 -62 159t-201 115l-136 48q-157 55 -238 148.5t-81 216.5q0 174 140.5 288.5t353.5 114.5q202 0 341.5 -112t155.5 -286h-137q-23 124 -123.5 198.5t-245.5 74.5q-148 0 -244.5 -75.5
t-96.5 -191.5q0 -86 61.5 -149t195.5 -111l132 -47q329 -118 329 -376q0 -190 -145.5 -309t-377.5 -119q-222 0 -367 115t-166 307z" />
    <glyph glyph-name="T" unicode="T" horiz-adv-x="1275" 
d="M666 0h-139l280 1319h-482l26 124h1104l-26 -124h-482z" />
    <glyph glyph-name="U" unicode="U" horiz-adv-x="1499" 
d="M747 -26q-232 0 -363 122.5t-133 317.5q-1 60 13 132l189 897h140l-188 -890q-15 -66 -13 -132q3 -152 101 -236.5t276 -84.5q174 0 300 103.5t165 283.5l204 956h140l-210 -981q-50 -233 -209.5 -360.5t-411.5 -127.5z" />
    <glyph glyph-name="V" unicode="V" horiz-adv-x="1363" 
d="M709 0h-136l-233 1443h130l202 -1259h12l719 1259h152z" />
    <glyph glyph-name="W" unicode="W" horiz-adv-x="1958" 
d="M1185 1206l-600 -1206h-133l-91 1443h126l69 -1230h9l609 1230h122l100 -1230h10l581 1230h141l-698 -1443h-133l-103 1206h-9z" />
    <glyph glyph-name="X" unicode="X" horiz-adv-x="1367" 
d="M54 0l664 744l-338 699h156l282 -609h11l551 609h158l-659 -726l344 -717h-148l-295 618h-11l-558 -618h-157z" />
    <glyph glyph-name="Y" unicode="Y" horiz-adv-x="1321" 
d="M690 0h-140l133 624l-342 819h143l289 -685h12l568 685h159l-695 -837z" />
    <glyph glyph-name="Z" unicode="Z" horiz-adv-x="1328" 
d="M97 0l21 99l1111 1208l3 13h-826l26 123h1011l-21 -100l-1109 -1207l-2 -13h863l-26 -123h-1051z" />
    <glyph glyph-name="bracketleft" unicode="[" horiz-adv-x="733" 
d="M459 1444h417l-23 -106h-288l-313 -1472h302l-23 -104h-429z" />
    <glyph glyph-name="backslash" unicode="\" horiz-adv-x="695" 
d="M404 -327l-68 1770h112l66 -1770h-110z" />
    <glyph glyph-name="bracketright" unicode="]" horiz-adv-x="733" 
d="M805 1443l-358 -1681h-421l23 105h293l312 1472h-296l22 104h425z" />
    <glyph glyph-name="asciicircum" unicode="^" horiz-adv-x="948" 
d="M705 1305l-344 -511h-128l431 625h141l164 -625h-125l-127 511h-12z" />
    <glyph glyph-name="underscore" unicode="_" horiz-adv-x="919" 
d="M838 -222h-934l21 100h934z" />
    <glyph glyph-name="grave" unicode="`" horiz-adv-x="999" 
d="M934 1267h-143l-199 327h162z" />
    <glyph glyph-name="a" unicode="a" horiz-adv-x="1126" 
d="M501 97q135 0 240.5 80.5t131.5 202.5l32 149l-321 -17q-152 -8 -235 -67.5t-83 -158.5q0 -83 65.5 -136t169.5 -53zM462 -18q-142 0 -236.5 83t-94.5 208q0 156 119.5 246.5t340.5 100.5l337 16l17 81q8 42 8 64q0 92 -67.5 144t-187.5 52q-106 0 -181 -45t-100 -122
h-139q33 130 150.5 207.5t280.5 77.5q171 0 274 -80.5t103 -216.5q0 -39 -10 -89l-150 -709h-128l35 165h-12q-57 -84 -153.5 -133.5t-205.5 -49.5z" />
    <glyph glyph-name="b" unicode="b" horiz-adv-x="1257" 
d="M678 -18q-128 0 -226.5 73.5t-124.5 188.5h-12l-53 -244h-126l320 1506h131l-129 -613h13q64 97 159.5 149.5t211.5 52.5q167 0 276.5 -117.5t109.5 -300.5q0 -190 -72 -349.5t-198.5 -252.5t-279.5 -93zM670 101q117 0 214 75t152 202.5t55 279.5q0 149 -78 234t-213 85
q-95 0 -177.5 -47t-137 -124.5t-85.5 -175.5t-31 -200q0 -151 81.5 -240t219.5 -89z" />
    <glyph glyph-name="c" unicode="c" horiz-adv-x="1143" 
d="M1158 760h-134q-11 95 -91.5 156t-195.5 61q-178 0 -298.5 -153t-120.5 -378q0 -159 81.5 -251.5t220.5 -92.5q112 0 195.5 50t116.5 138h136q-35 -139 -161 -223.5t-298 -84.5q-194 0 -311 122t-117 324q0 189 73.5 341.5t203 239t290.5 86.5q155 0 266.5 -81
t137.5 -209q4 -23 6 -45z" />
    <glyph glyph-name="d" unicode="d" horiz-adv-x="1265" 
d="M569 -18q-167 0 -279 120.5t-112 313.5q0 188 75 344.5t203 245.5t280 89q130 0 224.5 -72.5t118.5 -188.5h12l142 672h134l-320 -1506h-127l39 185h-13q-63 -94 -163.5 -148.5t-213.5 -54.5zM609 101q122 0 222 74t156 199t56 273q0 151 -81 240.5t-218 89.5
q-87 0 -166.5 -42t-137 -114t-91.5 -172.5t-34 -212.5q0 -150 81 -242.5t213 -92.5z" />
    <glyph glyph-name="e" unicode="e" horiz-adv-x="1179" 
d="M613 -18q-189 0 -310.5 118.5t-121.5 323.5q0 194 72.5 347.5t200.5 238.5t288 85q172 0 288.5 -117.5t116.5 -310.5q0 -87 -14 -154h-811q-5 -43 -5 -78q0 -162 87 -247.5t218 -85.5q226 0 309 162h140q-38 -125 -161 -203.5t-297 -78.5zM340 621h667q4 24 4 60
q0 127 -76.5 212.5t-204.5 85.5q-138 0 -243.5 -98.5t-146.5 -259.5z" />
    <glyph glyph-name="f" unicode="f" horiz-adv-x="723" 
d="M202 0l203 966h-180l23 111h180l24 124q30 151 113.5 221.5t229.5 70.5q52 0 108 -13l-23 -110q-40 11 -98 11q-161 0 -196 -184l-24 -120h257l-23 -111h-257l-203 -966h-134z" />
    <glyph glyph-name="g" unicode="g" horiz-adv-x="1247" 
d="M526 -403q-174 0 -293 83t-131 203h139q15 -75 94.5 -123.5t202.5 -48.5q146 0 239.5 72t123.5 202l50 225h-12q-60 -97 -153.5 -148t-209.5 -51q-171 0 -282 119.5t-111 310.5q0 185 71.5 335t195.5 234.5t276 84.5q129 0 226.5 -72.5t123.5 -187.5h12l50 233l127 -1
l-238 -1107q-36 -171 -167.5 -267t-333.5 -96zM615 127q182 0 301 149t119 373q0 152 -82 240t-219 88q-117 0 -211.5 -66.5t-148.5 -185t-54 -265.5q0 -156 79 -244.5t216 -88.5z" />
    <glyph glyph-name="h" unicode="h" horiz-adv-x="1215" 
d="M136 0l322 1506h133l-131 -611h12q132 200 349 200q155 0 249.5 -94t94.5 -232q0 -55 -13 -116l-139 -653h-133l134 630q13 63 13 104q0 110 -68.5 176.5t-189.5 66.5q-135 0 -232 -89t-127 -226l-141 -662h-133z" />
    <glyph glyph-name="i" unicode="i" horiz-adv-x="489" 
d="M138 0l229 1077h131l-229 -1077h-131zM504 1317q-40 0 -68.5 29t-28.5 69t28.5 68.5t68.5 28.5t69 -28.5t29 -68.5q0 -41 -29 -69.5t-69 -28.5z" />
    <glyph glyph-name="j" unicode="j" horiz-adv-x="490" 
d="M499 1077l-249 -1170q-30 -143 -108 -208.5t-212 -65.5q-46 0 -73 5l27 117q23 -5 50 -5q81 0 125 40t63 134l246 1153h131zM501 1317q-40 0 -68.5 29t-28.5 69t28.5 68.5t68.5 28.5t69 -28.5t29 -68.5q0 -41 -28.5 -69.5t-69.5 -28.5z" />
    <glyph glyph-name="k" unicode="k" horiz-adv-x="1074" 
d="M407 594l616 483h177l-583 -464l378 -613h-154l-330 539l-152 -112l-90 -427h-133l320 1506h133l-194 -912h12z" />
    <glyph glyph-name="l" unicode="l" horiz-adv-x="489" 
d="M136 0l320 1506h134l-320 -1506h-134z" />
    <glyph glyph-name="m" unicode="m" horiz-adv-x="1777" 
d="M126 0l229 1077h128l-39 -182h12q47 91 130 145.5t181 54.5q119 0 198.5 -65.5t94.5 -157.5h12q49 94 139.5 158.5t213.5 64.5q134 0 220 -83.5t86 -212.5q0 -64 -13 -125l-143 -674h-133l138 651q13 63 13 113q0 92 -58.5 152.5t-158.5 60.5q-114 0 -200.5 -84
t-115.5 -221l-143 -672h-133l138 651q14 68 14 113q0 91 -59 152t-159 61q-111 0 -198.5 -82.5t-114.5 -212.5l-146 -682h-133z" />
    <glyph glyph-name="n" unicode="n" horiz-adv-x="1198" 
d="M126 0l229 1077h128l-39 -183h12q131 201 353 201q153 0 246 -93.5t93 -229.5q0 -58 -13 -119l-139 -653h-133l134 630q13 63 13 107q0 108 -67 174t-186 66q-134 0 -231 -89t-126 -226l-141 -662h-133z" />
    <glyph glyph-name="o" unicode="o" horiz-adv-x="1218" 
d="M320 442q0 -155 86 -248t228 -93q112 0 206 69.5t148.5 189.5t54.5 263q0 164 -82.5 259t-225.5 95q-182 0 -298.5 -150t-116.5 -385zM618 -18q-196 0 -316.5 123t-120.5 323q0 191 72.5 343.5t202 238t291.5 85.5q195 0 315.5 -122.5t120.5 -321.5q0 -190 -73 -343
t-202.5 -239.5t-289.5 -86.5z" />
    <glyph glyph-name="p" unicode="p" horiz-adv-x="1251" 
d="M660 101q118 0 215.5 75t153 202.5t55.5 279.5q0 149 -76.5 234t-210.5 85q-123 0 -224 -77t-156 -202t-55 -268q0 -152 80.5 -240.5t217.5 -88.5zM186 -357h-133l305 1434h127l-39 -184h12q63 94 164 148t215 54q166 0 275 -117.5t109 -300.5q0 -189 -73 -349t-200 -253
t-280 -93q-130 0 -224 72.5t-117 189.5h-12z" />
    <glyph glyph-name="q" unicode="q" horiz-adv-x="1252" 
d="M603 101q122 0 222.5 74t157 199t56.5 273q0 151 -81 240.5t-218 89.5q-118 0 -216 -74t-154 -199t-56 -273q0 -154 77 -242t212 -88zM967 -357h-131l113 542h-12q-64 -97 -161.5 -150t-213.5 -53q-167 0 -276 121t-109 308q0 186 73 343t201 249t281 92q127 0 225 -73.5
t123 -188.5h13l52 244h127z" />
    <glyph glyph-name="r" unicode="r" horiz-adv-x="774" 
d="M121 0l229 1077h127l-34 -157h13q108 175 300 175q87 0 133 -18l-28 -126q-59 17 -138 17q-127 0 -213 -81t-118 -232l-139 -655h-132z" />
    <glyph glyph-name="s" unicode="s" horiz-adv-x="1050" 
d="M126 281h135q19 -84 96 -135.5t189 -51.5q121 0 199.5 55t78.5 141q0 59 -39.5 101.5t-131.5 73.5l-143 48q-127 43 -187.5 108.5t-60.5 164.5q0 136 111.5 222.5t280.5 86.5q161 0 266.5 -78t123.5 -206h-130q-15 77 -87.5 124.5t-176.5 47.5q-110 0 -182.5 -53
t-72.5 -132q0 -57 42.5 -98.5t131.5 -71.5l129 -43q137 -47 199 -114.5t62 -171.5q0 -138 -119 -227.5t-300 -89.5q-173 0 -288 83t-126 216z" />
    <glyph glyph-name="t" unicode="t" horiz-adv-x="724" 
d="M488 -6q-112 0 -178 52t-66 150q0 45 11 93l144 677h-180l23 111h181l58 280h134l-60 -280h254l-25 -111h-252l-137 -642q-11 -57 -11 -91q0 -123 149 -123q55 0 79 3l-24 -112q-28 -7 -100 -7z" />
    <glyph glyph-name="u" unicode="u" horiz-adv-x="1196" 
d="M1218 1077l-229 -1077h-127l38 173h-12q-54 -87 -145.5 -139t-212.5 -52q-149 0 -241 89.5t-92 226.5q0 64 14 129l137 650h134l-134 -629q-14 -68 -14 -118q0 -111 62.5 -170t181.5 -59q139 0 238.5 90.5t128.5 231.5l140 654h133z" />
    <glyph glyph-name="v" unicode="v" horiz-adv-x="1078" 
d="M255 1077h132l140 -912h13l513 912h146l-627 -1077h-145z" />
    <glyph glyph-name="w" unicode="w" horiz-adv-x="1567" 
d="M1688 1077l-536 -1077h-139l-80 890h-12l-451 -890h-138l-78 1077h122l59 -908h12l451 908h139l71 -914h12l434 914h134z" />
    <glyph glyph-name="x" unicode="x" horiz-adv-x="1049" 
d="M586 436h-12l-384 -436h-157l495 546l-269 531h143l209 -432h12l382 432h158l-493 -539l268 -538h-138z" />
    <glyph glyph-name="y" unicode="y" horiz-adv-x="1079" 
d="M161 -382q-54 0 -103 13l23 110q42 -11 88 -11q61 0 111 42.5t107 145.5l46 81l-179 1078h131l143 -913h12l515 913h145l-696 -1202q-86 -148 -161.5 -202.5t-181.5 -54.5z" />
    <glyph glyph-name="z" unicode="z" horiz-adv-x="1082" 
d="M90 0l21 100l822 854l3 12h-639l24 111h816l-23 -101l-818 -853l-3 -12h640l-24 -111h-819z" />
    <glyph glyph-name="braceleft" unicode="{" horiz-adv-x="809" 
d="M339 627l-4 -17q64 -12 99.5 -49.5t35.5 -96.5q0 -37 -10 -90l-77 -360q-9 -44 -9 -78q0 -155 200 -155h55l-22 -106h-49q-148 0 -231 62.5t-83 169.5q0 49 13 108l66 309q13 63 13 107q0 58 -33.5 83.5t-110.5 25.5l34 158q99 0 147 45t74 165l64 295q36 170 139.5 241
t291.5 71h53l-23 -109h-52q-131 0 -196.5 -51.5t-93.5 -179.5l-66 -313q-26 -118 -79 -172t-146 -63z" />
    <glyph glyph-name="bar" unicode="|" horiz-adv-x="661" 
d="M277 -328h-115l377 1771h115z" />
    <glyph glyph-name="braceright" unicode="}" horiz-adv-x="809" 
d="M640 563l4 17q-64 12 -99.5 49.5t-35.5 96.5q0 37 10 90l77 360q9 44 9 78q0 155 -200 155h-55l22 106h49q148 0 231 -62.5t83 -169.5q0 -49 -13 -108l-66 -310q-12 -57 -12 -106q0 -58 33 -84t110 -26l-34 -157q-99 0 -147 -45.5t-74 -165.5l-63 -294
q-37 -170 -140.5 -241t-290.5 -71h-54l23 109h52q131 0 197 51.5t93 179.5l67 312q25 119 78 173t146 63z" />
    <glyph glyph-name="asciitilde" unicode="~" horiz-adv-x="1204" 
d="M784 526q-52 0 -97.5 24t-77 58t-60 67.5t-60 57.5t-63.5 24q-121 0 -154 -188h-130q17 143 97.5 227.5t190.5 84.5q52 0 96.5 -24t76 -57.5t60 -67.5t60 -58t64.5 -24q120 0 153 187h130q-18 -145 -97 -228t-189 -83z" />
    <glyph glyph-name="nonbreakingspace" unicode="&#xa0;" horiz-adv-x="554" 
 />
    <glyph glyph-name="exclamdown" unicode="&#xa1;" horiz-adv-x="617" 
d="M272 -340h-152l221 986h129zM480 1119q50 0 83 -33.5t33 -83.5t-33 -83.5t-83 -33.5q-51 0 -83.5 33.5t-32.5 83.5t32.5 83.5t83.5 33.5z" />
    <glyph glyph-name="cent" unicode="&#xa2;" horiz-adv-x="1321" 
d="M1191 471q-34 -134 -152 -217.5t-281 -90.5q-2 0 -43 -192h-131l43 204q-149 32 -236 148.5t-87 288.5q0 184 70 334.5t195 238.5t280 94l36 167h131l-38 -180q117 -24 196.5 -98t100.5 -179q5 -23 6 -45h-134q-11 95 -91 156t-195 61q-118 0 -214.5 -70t-151 -191.5
t-54.5 -269.5q0 -160 82 -253.5t221 -93.5q111 0 194.5 50t116.5 138h136z" />
    <glyph glyph-name="sterling" unicode="&#xa3;" horiz-adv-x="1321" 
d="M1190 118l-25 -118h-1063l24 116q75 13 146 50t130 93.5t95 138t36 174.5q0 25 -6 93h-298l23 112h263q-16 167 -16 214q0 229 135.5 357t399.5 128q91 0 186 -19.5t160 -53.5l-24 -123q-57 33 -147.5 53.5t-178.5 20.5q-181 0 -284.5 -89t-103.5 -252q0 -47 18 -236h438
l-24 -112h-407q3 -37 3 -73q0 -179 -81 -298t-217 -164l-3 -12h821z" />
    <glyph glyph-name="currency" unicode="&#xa4;" horiz-adv-x="1321" 
d="M451 656q0 -117 86 -201.5t200 -84.5q118 0 202 84t84 202t-84 202t-202 84t-202 -84t-84 -202zM1299 1050l-233 -192q57 -93 57 -202q0 -151 -104 -263l108 -137l-95 -75l-108 138q-89 -49 -187 -49q-149 0 -260 101l-239 -196l-68 85l237 196q-56 94 -56 200
q0 149 102 261l-110 139l95 76l110 -140q88 50 189 50q148 0 259 -101l235 195z" />
    <glyph glyph-name="yen" unicode="&#xa5;" horiz-adv-x="1321" 
d="M1056 310h-301l-65 -310h-140l66 310h-305l22 105h305l39 184h-305l23 106h260l-315 738h143l291 -678h13l566 678h158l-619 -738h248l-23 -106h-302l-39 -184h302z" />
    <glyph glyph-name="brokenbar" unicode="&#xa6;" horiz-adv-x="662" 
d="M510 765h-115l144 678h115zM277 -328h-115l145 680h115z" />
    <glyph glyph-name="section" unicode="&#xa7;" horiz-adv-x="1037" 
d="M511 398l112 -43q113 14 182.5 75.5t69.5 150.5q0 61 -37.5 106t-125.5 77l-96 35q-115 -6 -193.5 -70t-78.5 -154q0 -115 167 -177zM475 -250q-164 0 -277 84t-123 215h136q17 -83 90 -135t181 -52q115 0 189.5 55t74.5 141q0 59 -38 101.5t-126 75.5l-130 48
q-241 88 -241 275q0 110 80.5 188t203.5 97l3 14q-83 45 -120.5 100t-37.5 133q0 135 107 220t271 85q156 0 258.5 -79t118.5 -205h-130q-13 75 -82.5 123.5t-167.5 48.5q-104 0 -173 -52.5t-69 -132.5q0 -57 40 -97.5t127 -73.5l116 -43q131 -49 192.5 -114t61.5 -166
q0 -108 -75 -189.5t-199 -106.5l-2 -9q79 -49 113 -103.5t34 -131.5q0 -137 -114.5 -225.5t-291.5 -88.5z" />
    <glyph glyph-name="dieresis" unicode="&#xa8;" horiz-adv-x="999" 
d="M564 1252q-42 0 -72 29.5t-30 72.5t30 72.5t72 29.5q43 0 73 -29.5t30 -72.5t-30 -72.5t-73 -29.5zM928 1252q-43 0 -72.5 29.5t-29.5 72.5t29.5 72.5t72.5 29.5q42 0 72 -29.5t30 -72.5t-30 -72.5t-72 -29.5z" />
    <glyph glyph-name="copyright" unicode="&#xa9;" horiz-adv-x="1742" 
d="M920 -160q-204 0 -371 93t-262.5 255.5t-95.5 360.5q0 180 66.5 340t181.5 275t275 181.5t340 66.5q207 0 374 -91.5t261.5 -253.5t94.5 -363q0 -180 -67 -340.5t-181.5 -275.5t-275 -181.5t-340.5 -66.5zM932 -51q152 0 289 58.5t235.5 157.5t157 236.5t58.5 290.5
q0 176 -80.5 315.5t-224 217.5t-324.5 78q-151 0 -288 -58.5t-236 -157t-157.5 -236t-58.5 -289.5q0 -174 81.5 -314.5t225.5 -219.5t322 -79zM1355 788h-103q-7 79 -70 129.5t-155 50.5q-135 0 -226 -111.5t-91 -277.5q0 -127 64.5 -201.5t173.5 -74.5q82 0 144 37.5
t90 104.5h106q-31 -107 -126 -171t-222 -64q-152 0 -244 98t-92 259q0 211 123.5 352t307.5 141q136 0 224 -74.5t96 -197.5z" />
    <glyph glyph-name="ordfeminine" unicode="&#xaa;" horiz-adv-x="943" 
d="M597 971q-120 -6 -186 -52t-66 -124q0 -66 52 -107.5t134 -41.5q107 0 190.5 62.5t104.5 158.5l25 117zM489 541q-117 0 -194.5 68.5t-77.5 171.5q0 129 99.5 203.5t283.5 82.5l271 13l14 65q6 33 5 50q1 73 -52.5 114t-148.5 41q-83 0 -143 -35t-80 -96h-128
q26 109 125 174.5t236 65.5q145 0 232 -67.5t87 -180.5q0 -36 -8 -73l-125 -585h-122l29 134h-11q-46 -68 -124 -107t-168 -39z" />
    <glyph glyph-name="guillemotleft" unicode="&#xab;" horiz-adv-x="1362" 
d="M1322 983l-457 -426l-2 -13l259 -395h-147l-271 414l1 6l447 414h170zM872 983l-457 -426l-3 -13l260 -395h-148l-270 414l1 6l447 414h170z" />
    <glyph glyph-name="logicalnot" unicode="&#xac;" horiz-adv-x="1321" 
d="M1240 677l-113 -532h-115l89 418h-839l24 114h954z" />
    <glyph glyph-name="registered" unicode="&#xae;" horiz-adv-x="1260" 
d="M622 733h-80l110 516h221q67 0 111 -41t44 -100q0 -69 -42.5 -114.5t-113.5 -56.5l101 -204h-89l-96 195h-124zM716 1175l-38 -177h134q60 0 93.5 25.5t33.5 73.5q0 35 -24 56.5t-67 21.5h-132zM281 969q0 144 68.5 264t187.5 188.5t262 68.5q216 0 364.5 -147.5
t148.5 -361.5q0 -144 -68.5 -264t-187.5 -189t-263 -69q-141 0 -259 67.5t-185.5 185t-67.5 257.5zM1228 981q0 179 -124 302t-305 123q-183 0 -308.5 -126t-125.5 -311q0 -179 123 -302.5t303 -123.5q184 0 310.5 126.5t126.5 311.5z" />
    <glyph glyph-name="macron" unicode="&#xaf;" horiz-adv-x="1018" 
d="M1073 1292h-662l22 106h663z" />
    <glyph glyph-name="degree" unicode="&#xb0;" horiz-adv-x="859" 
d="M634 860q-128 0 -214.5 87.5t-86.5 213.5t86.5 214t214.5 88q129 0 215.5 -88t86.5 -214q0 -125 -87 -213t-215 -88zM634 961q88 0 145 58.5t57 141.5q0 84 -57.5 142t-144.5 58t-143.5 -58t-56.5 -142q0 -83 56.5 -141.5t143.5 -58.5z" />
    <glyph glyph-name="plusminus" unicode="&#xb1;" horiz-adv-x="1321" 
d="M1144 112h-1002l24 114h1002zM821 671l-68 -317h-118l68 317h-442l22 105h442l67 309h118l-67 -309h442l-22 -105h-442z" />
    <glyph glyph-name="two.sups" unicode="&#xb2;" horiz-adv-x="821" 
d="M387 1545q13 117 104 191.5t219 74.5q121 0 200.5 -66t79.5 -165q0 -79 -53 -149t-211 -201l-250 -211l-2 -8h431l-24 -109h-617l21 97l362 304q130 109 170.5 160t40.5 105q0 59 -44.5 98t-113.5 39q-71 0 -123.5 -43.5t-65.5 -114.5v-2h-124z" />
    <glyph glyph-name="three.sups" unicode="&#xb3;" horiz-adv-x="833" 
d="M536 1310l21 100h121q83 0 137.5 45t54.5 114q0 61 -45 98.5t-118 37.5q-64 0 -114 -35.5t-69 -93.5h-123q24 107 110.5 171t205.5 64q123 0 202.5 -64t79.5 -162q0 -87 -59.5 -150.5t-154.5 -77.5l-1 -8q77 -16 119.5 -65.5t42.5 -123.5q0 -122 -96.5 -200.5
t-245.5 -78.5q-148 0 -236.5 79.5t-72.5 197.5h126q-7 -72 46.5 -120t139.5 -48q92 0 150 49t58 128q0 64 -50.5 103.5t-130.5 39.5h-98z" />
    <glyph glyph-name="acute" unicode="&#xb4;" horiz-adv-x="1000" 
d="M518 1267l320 327h169l-339 -327h-150z" />
    <glyph glyph-name="mugreek" unicode="&#xb5;" horiz-adv-x="1272" 
d="M43 -357l304 1434h133l-131 -623q-17 -77 -17 -128q0 -110 59 -167t174 -57q134 0 247 101t145 252l133 622h131l-178 -834q-8 -35 -8 -66q0 -38 21.5 -54.5t71.5 -16.5q32 0 58 6l-24 -112q-37 -10 -83 -10q-87 0 -129 40t-42 122q0 19 7 48h-12q-58 -97 -159.5 -157.5
t-211.5 -60.5q-91 0 -158 47.5t-78 122.5h-12l-108 -509h-133z" />
    <glyph glyph-name="mugreek" unicode="&#x3bc;" horiz-adv-x="1272" 
d="M43 -357l304 1434h133l-131 -623q-17 -77 -17 -128q0 -110 59 -167t174 -57q134 0 247 101t145 252l133 622h131l-178 -834q-8 -35 -8 -66q0 -38 21.5 -54.5t71.5 -16.5q32 0 58 6l-24 -112q-37 -10 -83 -10q-87 0 -129 40t-42 122q0 19 7 48h-12q-58 -97 -159.5 -157.5
t-211.5 -60.5q-91 0 -158 47.5t-78 122.5h-12l-108 -509h-133z" />
    <glyph glyph-name="paragraph" unicode="&#xb6;" horiz-adv-x="1316" 
d="M784 -195h-136l163 769q-183 6 -297.5 112.5t-114.5 268.5q0 143 73.5 255t201 172.5t287.5 60.5h172zM943 -195l349 1638h136l-348 -1638h-137z" />
    <glyph glyph-name="periodcentered" unicode="&#xb7;" horiz-adv-x="630" 
d="M432 597q-62 0 -102 40t-40 102t40 102t102 40q61 0 100.5 -40t39.5 -102t-39.5 -102t-100.5 -40z" />
    <glyph glyph-name="cedilla" unicode="&#xb8;" horiz-adv-x="1000" 
d="M278 -213l11 72l111 173l109 -2l-108 -169q88 -9 133.5 -48.5t45.5 -106.5q0 -82 -65.5 -134t-166.5 -52q-96 0 -172 37l18 87q66 -32 151 -32q54 0 87.5 23.5t33.5 63.5q0 39 -35.5 62t-101.5 25z" />
    <glyph glyph-name="one.sups" unicode="&#xb9;" horiz-adv-x="634" 
d="M464 902l160 752h-9q-60 -32 -258 -153l28 131q14 8 79 47t123 73.5t68 39.5h131l-190 -890h-132z" />
    <glyph glyph-name="ordmasculine" unicode="&#xba;" horiz-adv-x="1032" 
d="M731 1347q-142 0 -237.5 -116.5t-95.5 -289.5q0 -138 65.5 -216.5t178.5 -78.5q140 0 236 119.5t96 293.5q0 133 -65 210.5t-178 77.5zM629 532q-167 0 -266 106.5t-99 286.5q0 227 139 381t342 154q169 0 266.5 -104.5t97.5 -285.5q0 -149 -63.5 -272.5t-174 -194.5
t-242.5 -71z" />
    <glyph glyph-name="guillemotright" unicode="&#xbb;" horiz-adv-x="1364" 
d="M657 587l-260 396h148l271 -414l-2 -6l-447 -414h-169l456 426zM1109 587l-259 396h147l271 -414l-1 -6l-447 -414h-170l457 426z" />
    <glyph glyph-name="onequarter" unicode="&#xbc;" horiz-adv-x="1960" 
d="M1587 -1l39 183h-446l22 119q166 214 509 589h193l-128 -599h126l-23 -109h-126l-39 -183h-127zM1329 295l-2 -8h324l105 496h-7q-226 -244 -420 -488zM451 553l160 752h-9q-60 -32 -258 -153l28 131q14 8 79 47t123 73.5t68 39.5h131l-190 -890h-132zM516 0l492 751
l452 692h134l-472 -721l-472 -722h-134z" />
    <glyph glyph-name="onehalf" unicode="&#xbd;" horiz-adv-x="1990" 
d="M1385 643q13 117 104 191.5t219 74.5q121 0 200.5 -66t79.5 -165q0 -79 -53 -149t-211 -201l-250 -211l-2 -8h431l-24 -109h-617l21 97l362 304q130 109 170.5 160t40.5 105q0 59 -44.5 98t-113.5 39q-71 0 -123.5 -43.5t-65.5 -114.5v-2h-124zM451 553l160 752h-9
q-60 -32 -258 -153l28 131q14 8 79 47t123 73.5t68 39.5h131l-190 -890h-132zM516 0l492 751l452 692h134l-472 -721l-472 -722h-134z" />
    <glyph glyph-name="threequarters" unicode="&#xbe;" horiz-adv-x="2104" 
d="M461 961l21 100h121q83 0 137.5 45t54.5 114q0 61 -45 98.5t-118 37.5q-64 0 -114 -35.5t-69 -93.5h-123q24 107 110.5 171t205.5 64q123 0 202.5 -64t79.5 -162q0 -87 -59.5 -150.5t-154.5 -77.5l-1 -8q77 -16 119.5 -65.5t42.5 -123.5q0 -122 -96.5 -200.5
t-245.5 -78.5q-148 0 -236.5 79.5t-72.5 197.5h126q-7 -72 46.5 -120t139.5 -48q92 0 150 49t58 128q0 64 -50.5 103.5t-130.5 39.5h-98zM1731 -1l39 183h-446l22 119q166 214 509 589h193l-128 -599h126l-23 -109h-126l-39 -183h-127zM1473 295l-2 -8h324l105 496h-7
q-226 -244 -420 -488zM660 0l492 751l452 692h134l-472 -721l-472 -722h-134z" />
    <glyph glyph-name="questiondown" unicode="&#xbf;" horiz-adv-x="1019" 
d="M715 1119q51 0 84 -33t33 -84t-33 -84t-84 -33q-50 0 -83 33t-33 84q0 50 33 83.5t83 33.5zM765 1h132q-34 -164 -151 -260t-296 -96q-174 0 -283.5 95t-109.5 234q0 128 78.5 230.5t212.5 159.5q107 45 156 96.5t65 135.5l16 78h136l-20 -94q-25 -119 -84.5 -183.5
t-180.5 -115.5q-235 -102 -235 -293q0 -95 68.5 -159t189.5 -64q113 0 194 63t112 173z" />
    <glyph glyph-name="Agrave" unicode="&#xc0;" horiz-adv-x="1363" 
d="M1112 0l-67 443h-608l-254 -443h-149l851 1443h128l233 -1443h-134zM907 1262l-404 -702h527l-110 702h-13zM853 1874l184 -297h-142l-200 297h158z" />
    <glyph glyph-name="Aacute" unicode="&#xc1;" horiz-adv-x="1363" 
d="M1112 0l-67 443h-608l-254 -443h-149l851 1443h128l233 -1443h-134zM907 1262l-404 -702h527l-110 702h-13zM901 1577l372 297h175l-388 -297h-159z" />
    <glyph glyph-name="Acircumflex" unicode="&#xc2;" horiz-adv-x="1363" 
d="M1112 0l-67 443h-608l-254 -443h-149l851 1443h128l233 -1443h-134zM907 1262l-404 -702h527l-110 702h-13zM1107 1874l189 -297h-142l-127 208h-11l-215 -208h-160l316 297h150z" />
    <glyph glyph-name="Atilde" unicode="&#xc3;" horiz-adv-x="1363" 
d="M1112 0l-67 443h-608l-254 -443h-149l851 1443h128l233 -1443h-134zM907 1262l-404 -702h527l-110 702h-13zM1148 1578q-43 0 -79.5 16.5t-62 40.5t-47.5 48t-46.5 40.5t-49.5 16.5q-46 0 -78 -33t-45 -94h-110q18 107 83.5 169t152.5 62q42 0 78 -16.5t61.5 -40
t47.5 -47.5t47 -40.5t50 -16.5q94 0 122 126h110q-19 -108 -83.5 -169.5t-150.5 -61.5z" />
    <glyph glyph-name="Adieresis" unicode="&#xc4;" horiz-adv-x="1363" 
d="M1112 0l-67 443h-608l-254 -443h-149l851 1443h128l233 -1443h-134zM907 1262l-404 -702h527l-110 702h-13zM814 1568q-42 0 -72 29.5t-30 72.5t30 72.5t72 29.5q43 0 73 -29.5t30 -72.5t-30 -72.5t-73 -29.5zM1178 1568q-43 0 -72.5 29.5t-29.5 72.5t29.5 72.5
t72.5 29.5q42 0 72 -29.5t30 -72.5t-30 -72.5t-72 -29.5z" />
    <glyph glyph-name="Aring" unicode="&#xc5;" horiz-adv-x="1363" 
d="M1112 0l-67 443h-608l-254 -443h-149l851 1443h128l233 -1443h-134zM907 1262l-404 -702h527l-110 702h-13zM1016 1563q-76 0 -129.5 53t-53.5 129t53.5 128.5t129.5 52.5q77 0 130 -52.5t53 -128.5t-53 -129t-130 -53zM1016 1635q46 0 77.5 31.5t31.5 78.5t-31.5 78
t-77.5 31t-77.5 -31t-31.5 -78t31.5 -78.5t77.5 -31.5z" />
    <glyph glyph-name="AE" unicode="&#xc6;" horiz-adv-x="1955" 
d="M1249 1327h-162l-528 -766h526zM966 0l95 443h-581l-303 -443h-144l984 1443h1068l-27 -124h-675l-111 -526h638l-26 -122h-639l-116 -547h675l-26 -124h-812z" />
    <glyph glyph-name="Ccedilla" unicode="&#xc7;" horiz-adv-x="1464" 
d="M1516 990h-138q0 2 0.5 7t0.5 8q-8 150 -122 245.5t-292 95.5q-165 0 -302.5 -101t-217 -276.5t-79.5 -386.5q0 -226 115.5 -355.5t315.5 -129.5q160 0 283 77.5t166 204.5h144q-51 -180 -201.5 -288.5t-361.5 -119.5l-70 -110q88 -9 133.5 -48.5t45.5 -106.5
q0 -82 -65.5 -134t-166.5 -52q-96 0 -172 37l18 87q66 -32 151 -32q54 0 87.5 23.5t33.5 63.5q0 39 -35.5 62t-101.5 25l-51 1l11 72l73 114q-228 21 -361 180.5t-133 413.5q0 192 57.5 360t157 288t239 189t297.5 69q234 0 388 -133.5t154 -331.5q0 -4 -0.5 -10t-0.5 -8z
" />
    <glyph glyph-name="Egrave" unicode="&#xc8;" horiz-adv-x="1196" 
d="M791 1874l184 -297h-142l-200 297h158zM1042 124l-26 -124h-873l307 1443h873l-27 -124h-732l-112 -519h697l-26 -122h-696l-119 -554h734z" />
    <glyph glyph-name="Eacute" unicode="&#xc9;" horiz-adv-x="1196" 
d="M839 1577l372 297h175l-388 -297h-159zM1042 124l-26 -124h-873l307 1443h873l-27 -124h-732l-112 -519h697l-26 -122h-696l-119 -554h734z" />
    <glyph glyph-name="Ecircumflex" unicode="&#xca;" horiz-adv-x="1196" 
d="M1054 1874l189 -297h-142l-127 208h-11l-215 -208h-160l316 297h150zM1042 124l-26 -124h-873l307 1443h873l-27 -124h-732l-112 -519h697l-26 -122h-696l-119 -554h734z" />
    <glyph glyph-name="Edieresis" unicode="&#xcb;" horiz-adv-x="1196" 
d="M752 1568q-42 0 -72 29.5t-30 72.5t30 72.5t72 29.5q43 0 73 -29.5t30 -72.5t-30 -72.5t-73 -29.5zM1116 1568q-43 0 -72.5 29.5t-29.5 72.5t29.5 72.5t72.5 29.5q42 0 72 -29.5t30 -72.5t-30 -72.5t-72 -29.5zM1042 124l-26 -124h-873l307 1443h873l-27 -124h-732
l-112 -519h697l-26 -122h-696l-119 -554h734z" />
    <glyph glyph-name="Igrave" unicode="&#xcc;" horiz-adv-x="509" 
d="M283 0h-140l307 1443h140zM425 1874l184 -297h-142l-200 297h158z" />
    <glyph glyph-name="Iacute" unicode="&#xcd;" horiz-adv-x="509" 
d="M283 0h-140l307 1443h140zM473 1577l372 297h175l-388 -297h-159z" />
    <glyph glyph-name="Icircumflex" unicode="&#xce;" horiz-adv-x="509" 
d="M283 0h-140l307 1443h140zM688 1874l189 -297h-142l-127 208h-11l-215 -208h-160l316 297h150z" />
    <glyph glyph-name="Idieresis" unicode="&#xcf;" horiz-adv-x="509" 
d="M283 0h-140l307 1443h140zM386 1568q-42 0 -72 29.5t-30 72.5t30 72.5t72 29.5q43 0 73 -29.5t30 -72.5t-30 -72.5t-73 -29.5zM750 1568q-43 0 -72.5 29.5t-29.5 72.5t29.5 72.5t72.5 29.5q42 0 72 -29.5t30 -72.5t-30 -72.5t-72 -29.5z" />
    <glyph glyph-name="Eth" unicode="&#xd0;" horiz-adv-x="1476" 
d="M309 122h390q179 0 323.5 91.5t226.5 253.5t82 362q0 230 -127.5 361t-351.5 131h-288l-110 -516h251l-26 -124h-251zM450 1443h413q286 0 447 -162t161 -445q0 -177 -59.5 -332.5t-163 -266t-247.5 -174t-308 -63.5h-548l144 681h-182l27 124h181z" />
    <glyph glyph-name="Ntilde" unicode="&#xd1;" horiz-adv-x="1492" 
d="M1218 1578q-43 0 -79.5 16.5t-62 40.5t-47.5 48t-46.5 40.5t-49.5 16.5q-46 0 -78 -33t-45 -94h-110q18 107 83.5 169t152.5 62q42 0 78 -16.5t61.5 -40t47.5 -47.5t47 -40.5t50 -16.5q94 0 122 126h110q-19 -108 -83.5 -169.5t-150.5 -61.5zM281 0h-138l307 1443h135
l579 -1218h12l259 1218h138l-307 -1443h-133l-581 1220h-12z" />
    <glyph glyph-name="Ograve" unicode="&#xd2;" horiz-adv-x="1564" 
d="M889 1873l184 -297h-142l-200 297h158zM799 -30q-253 0 -414 169.5t-161 434.5q0 189 58.5 356t160 286t244 188t303.5 69q252 0 412 -169t160 -435q0 -254 -99 -460t-273.5 -322.5t-390.5 -116.5zM1419 858q0 220 -120.5 354t-318.5 134q-171 0 -311.5 -100
t-220.5 -274.5t-80 -386.5q0 -220 121 -354t320 -134q172 0 311.5 99t219 273.5t79.5 388.5z" />
    <glyph glyph-name="Oacute" unicode="&#xd3;" horiz-adv-x="1564" 
d="M937 1576l372 297h175l-388 -297h-159zM799 -30q-253 0 -414 169.5t-161 434.5q0 189 58.5 356t160 286t244 188t303.5 69q252 0 412 -169t160 -435q0 -254 -99 -460t-273.5 -322.5t-390.5 -116.5zM1419 858q0 220 -120.5 354t-318.5 134q-171 0 -311.5 -100
t-220.5 -274.5t-80 -386.5q0 -220 121 -354t320 -134q172 0 311.5 99t219 273.5t79.5 388.5z" />
    <glyph glyph-name="Ocircumflex" unicode="&#xd4;" horiz-adv-x="1564" 
d="M1152 1873l189 -297h-142l-127 208h-11l-215 -208h-160l316 297h150zM799 -30q-253 0 -414 169.5t-161 434.5q0 189 58.5 356t160 286t244 188t303.5 69q252 0 412 -169t160 -435q0 -254 -99 -460t-273.5 -322.5t-390.5 -116.5zM1419 858q0 220 -120.5 354t-318.5 134
q-171 0 -311.5 -100t-220.5 -274.5t-80 -386.5q0 -220 121 -354t320 -134q172 0 311.5 99t219 273.5t79.5 388.5z" />
    <glyph glyph-name="Otilde" unicode="&#xd5;" horiz-adv-x="1564" 
d="M799 -30q-253 0 -414 169.5t-161 434.5q0 189 58.5 356t160 286t244 188t303.5 69q252 0 412 -169t160 -435q0 -254 -99 -460t-273.5 -322.5t-390.5 -116.5zM1419 858q0 220 -120.5 354t-318.5 134q-171 0 -311.5 -100t-220.5 -274.5t-80 -386.5q0 -220 121 -354
t320 -134q172 0 311.5 99t219 273.5t79.5 388.5zM1184 1577q-43 0 -79.5 16.5t-62 40.5t-47.5 48t-46.5 40.5t-49.5 16.5q-46 0 -78 -33t-45 -94h-110q18 107 83.5 169t152.5 62q42 0 78 -16.5t61.5 -40.5t47.5 -47.5t47 -40t50 -16.5q94 0 122 126h110
q-19 -108 -83.5 -169.5t-150.5 -61.5z" />
    <glyph glyph-name="Odieresis" unicode="&#xd6;" horiz-adv-x="1564" 
d="M850 1567q-42 0 -72 29.5t-30 72.5t30 72.5t72 29.5q43 0 73 -29.5t30 -72.5t-30 -72.5t-73 -29.5zM1214 1567q-43 0 -72.5 29.5t-29.5 72.5t29.5 72.5t72.5 29.5q42 0 72 -29.5t30 -72.5t-30 -72.5t-72 -29.5zM799 -30q-253 0 -414 169.5t-161 434.5q0 189 58.5 356
t160 286t244 188t303.5 69q252 0 412 -169t160 -435q0 -254 -99 -460t-273.5 -322.5t-390.5 -116.5zM1419 858q0 220 -120.5 354t-318.5 134q-171 0 -311.5 -100t-220.5 -274.5t-80 -386.5q0 -220 121 -354t320 -134q172 0 311.5 99t219 273.5t79.5 388.5z" />
    <glyph glyph-name="multiply" unicode="&#xd7;" horiz-adv-x="1320" 
d="M971 186l-241 307l-381 -314l-73 90l381 314l-244 311l97 80l245 -310l380 313l73 -89l-380 -315l240 -308z" />
    <glyph glyph-name="Oslash" unicode="&#xd8;" horiz-adv-x="1535" 
d="M1322 1177l-813 -970q116 -110 296 -110q172 0 311.5 99t219 273.5t79.5 388.5q0 192 -93 319zM446 282l812 965q-113 99 -282 99q-171 0 -311.5 -100t-220.5 -274.5t-80 -386.5q0 -179 82 -303zM1557 1457l-143 -171q144 -166 144 -417q0 -254 -99 -460t-273.5 -322.5
t-390.5 -116.5q-220 0 -374 132l-144 -172l-78 59l154 183q-133 163 -133 402q0 189 58.5 356t160 286t244 188t303.5 69q211 0 360 -121l135 160z" />
    <glyph glyph-name="Ugrave" unicode="&#xd9;" horiz-adv-x="1499" 
d="M920 1874l184 -297h-142l-200 297h158zM747 -26q-232 0 -363 122.5t-133 317.5q-1 60 13 132l189 897h140l-188 -890q-15 -66 -13 -132q3 -152 101 -236.5t276 -84.5q174 0 300 103.5t165 283.5l204 956h140l-210 -981q-50 -233 -209.5 -360.5t-411.5 -127.5z" />
    <glyph glyph-name="Uacute" unicode="&#xda;" horiz-adv-x="1499" 
d="M968 1577l372 297h175l-388 -297h-159zM747 -26q-232 0 -363 122.5t-133 317.5q-1 60 13 132l189 897h140l-188 -890q-15 -66 -13 -132q3 -152 101 -236.5t276 -84.5q174 0 300 103.5t165 283.5l204 956h140l-210 -981q-50 -233 -209.5 -360.5t-411.5 -127.5z" />
    <glyph glyph-name="Ucircumflex" unicode="&#xdb;" horiz-adv-x="1499" 
d="M1183 1874l189 -297h-142l-127 208h-11l-215 -208h-160l316 297h150zM747 -26q-232 0 -363 122.5t-133 317.5q-1 60 13 132l189 897h140l-188 -890q-15 -66 -13 -132q3 -152 101 -236.5t276 -84.5q174 0 300 103.5t165 283.5l204 956h140l-210 -981
q-50 -233 -209.5 -360.5t-411.5 -127.5z" />
    <glyph glyph-name="Udieresis" unicode="&#xdc;" horiz-adv-x="1499" 
d="M881 1568q-42 0 -72 29.5t-30 72.5t30 72.5t72 29.5q43 0 73 -29.5t30 -72.5t-30 -72.5t-73 -29.5zM1245 1568q-43 0 -72.5 29.5t-29.5 72.5t29.5 72.5t72.5 29.5q42 0 72 -29.5t30 -72.5t-30 -72.5t-72 -29.5zM747 -26q-232 0 -363 122.5t-133 317.5q-1 60 13 132
l189 897h140l-188 -890q-15 -66 -13 -132q3 -152 101 -236.5t276 -84.5q174 0 300 103.5t165 283.5l204 956h140l-210 -981q-50 -233 -209.5 -360.5t-411.5 -127.5z" />
    <glyph glyph-name="Yacute" unicode="&#xdd;" horiz-adv-x="1321" 
d="M690 0h-140l133 624l-342 819h143l289 -685h12l568 685h159l-695 -837zM878 1577l372 297h175l-388 -297h-159z" />
    <glyph glyph-name="Thorn" unicode="&#xde;" horiz-adv-x="1270" 
d="M143 0l307 1443h136l-59 -274h356q172 0 279.5 -98.5t107.5 -250.5q0 -210 -149.5 -339.5t-397.5 -129.5h-369l-74 -351h-137zM502 1046l-122 -573h338q191 0 300.5 90.5t109.5 243.5q0 108 -75 173.5t-215 65.5h-336z" />
    <glyph glyph-name="germandbls" unicode="&#xdf;" horiz-adv-x="1283" 
d="M303 0h-132l230 1079q34 163 149.5 255.5t285.5 92.5q164 0 272 -90.5t108 -229.5q0 -140 -94 -239t-241 -113l-2 -13q143 -16 229 -103.5t86 -217.5q0 -191 -138.5 -315.5t-350.5 -124.5q-119 0 -218 36l25 117q94 -34 197 -34q150 0 251.5 91t101.5 226
q0 119 -89.5 191.5t-236.5 72.5h-82l28 129h94q126 0 216.5 81t90.5 193q0 100 -70.5 163t-183.5 63q-116 0 -196 -71t-107 -198z" />
    <glyph glyph-name="agrave" unicode="&#xe0;" horiz-adv-x="1126" 
d="M501 97q135 0 240.5 80.5t131.5 202.5l32 149l-321 -17q-152 -8 -235 -67.5t-83 -158.5q0 -83 65.5 -136t169.5 -53zM462 -18q-142 0 -236.5 83t-94.5 208q0 156 119.5 246.5t340.5 100.5l337 16l17 81q8 42 8 64q0 92 -67.5 144t-187.5 52q-106 0 -181 -45t-100 -122
h-139q33 130 150.5 207.5t280.5 77.5q171 0 274 -80.5t103 -216.5q0 -39 -10 -89l-150 -709h-128l35 165h-12q-57 -84 -153.5 -133.5t-205.5 -49.5zM815 1267h-143l-199 327h162z" />
    <glyph glyph-name="aacute" unicode="&#xe1;" horiz-adv-x="1126" 
d="M501 97q135 0 240.5 80.5t131.5 202.5l32 149l-321 -17q-152 -8 -235 -67.5t-83 -158.5q0 -83 65.5 -136t169.5 -53zM462 -18q-142 0 -236.5 83t-94.5 208q0 156 119.5 246.5t340.5 100.5l337 16l17 81q8 42 8 64q0 92 -67.5 144t-187.5 52q-106 0 -181 -45t-100 -122
h-139q33 130 150.5 207.5t280.5 77.5q171 0 274 -80.5t103 -216.5q0 -39 -10 -89l-150 -709h-128l35 165h-12q-57 -84 -153.5 -133.5t-205.5 -49.5zM677 1267l320 327h169l-339 -327h-150z" />
    <glyph glyph-name="acircumflex" unicode="&#xe2;" horiz-adv-x="1126" 
d="M501 97q135 0 240.5 80.5t131.5 202.5l32 149l-321 -17q-152 -8 -235 -67.5t-83 -158.5q0 -83 65.5 -136t169.5 -53zM462 -18q-142 0 -236.5 83t-94.5 208q0 156 119.5 246.5t340.5 100.5l337 16l17 81q8 42 8 64q0 92 -67.5 144t-187.5 52q-106 0 -181 -45t-100 -122
h-139q33 130 150.5 207.5t280.5 77.5q171 0 274 -80.5t103 -216.5q0 -39 -10 -89l-150 -709h-128l35 165h-12q-57 -84 -153.5 -133.5t-205.5 -49.5zM890 1560l204 -332h-143l-142 243h-12l-244 -243h-163l346 332h154z" />
    <glyph glyph-name="atilde" unicode="&#xe3;" horiz-adv-x="1126" 
d="M501 97q135 0 240.5 80.5t131.5 202.5l32 149l-321 -17q-152 -8 -235 -67.5t-83 -158.5q0 -83 65.5 -136t169.5 -53zM462 -18q-142 0 -236.5 83t-94.5 208q0 156 119.5 246.5t340.5 100.5l337 16l17 81q8 42 8 64q0 92 -67.5 144t-187.5 52q-106 0 -181 -45t-100 -122
h-139q33 130 150.5 207.5t280.5 77.5q171 0 274 -80.5t103 -216.5q0 -39 -10 -89l-150 -709h-128l35 165h-12q-57 -84 -153.5 -133.5t-205.5 -49.5zM934 1216q-46 0 -83 19t-60.5 46.5t-44.5 55t-45.5 46.5t-52.5 19q-93 0 -122 -142h-110q15 116 80 181.5t157 65.5
q45 0 81.5 -19.5t60 -46.5t44.5 -54.5t46 -47t53 -19.5q93 0 121 142h110q-16 -117 -80 -181.5t-155 -64.5z" />
    <glyph glyph-name="adieresis" unicode="&#xe4;" horiz-adv-x="1126" 
d="M501 97q135 0 240.5 80.5t131.5 202.5l32 149l-321 -17q-152 -8 -235 -67.5t-83 -158.5q0 -83 65.5 -136t169.5 -53zM462 -18q-142 0 -236.5 83t-94.5 208q0 156 119.5 246.5t340.5 100.5l337 16l17 81q8 42 8 64q0 92 -67.5 144t-187.5 52q-106 0 -181 -45t-100 -122
h-139q33 130 150.5 207.5t280.5 77.5q171 0 274 -80.5t103 -216.5q0 -39 -10 -89l-150 -709h-128l35 165h-12q-57 -84 -153.5 -133.5t-205.5 -49.5zM591 1228q-42 0 -72 29.5t-30 72.5t30 72.5t72 29.5q43 0 73 -29.5t30 -72.5t-30 -72.5t-73 -29.5zM955 1228
q-43 0 -72.5 29.5t-29.5 72.5t29.5 72.5t72.5 29.5q42 0 72 -29.5t30 -72.5t-30 -72.5t-72 -29.5z" />
    <glyph glyph-name="aring" unicode="&#xe5;" horiz-adv-x="1126" 
d="M501 97q135 0 240.5 80.5t131.5 202.5l32 149l-321 -17q-152 -8 -235 -67.5t-83 -158.5q0 -83 65.5 -136t169.5 -53zM462 -18q-142 0 -236.5 83t-94.5 208q0 156 119.5 246.5t340.5 100.5l337 16l17 81q8 42 8 64q0 92 -67.5 144t-187.5 52q-106 0 -181 -45t-100 -122
h-139q33 130 150.5 207.5t280.5 77.5q171 0 274 -80.5t103 -216.5q0 -39 -10 -89l-150 -709h-128l35 165h-12q-57 -84 -153.5 -133.5t-205.5 -49.5zM796 1228q-88 0 -150 61t-62 150q0 88 62 149t150 61q89 0 151 -61t62 -149q0 -89 -62 -150t-151 -61zM796 1313
q53 0 89 36.5t36 89.5t-36 89t-89 36t-88.5 -36t-35.5 -89t36 -89.5t88 -36.5z" />
    <glyph glyph-name="ae" unicode="&#xe6;" horiz-adv-x="1898" 
d="M1323 -18q-140 0 -248.5 73.5t-145.5 197.5h-12q-56 -116 -178 -193.5t-263 -77.5q-152 0 -248.5 82.5t-96.5 208.5q0 155 118 243t341 98l336 17l19 86q8 42 8 64q0 92 -67.5 144t-187.5 52q-106 0 -181 -45t-100 -122h-139q33 130 150.5 207.5t280.5 77.5
q133 0 224 -54t122 -152h12q71 99 173 152.5t220 53.5q83 0 157 -30t129 -84t87 -135.5t32 -178.5q0 -81 -13 -151h-812q-5 -48 -5 -83q0 -162 87 -246.5t218 -84.5q226 0 309 162h140q-39 -126 -163 -204t-303 -78zM1059 623h667q3 18 3 58q0 127 -76.5 212.5t-204.5 85.5
q-137 0 -242 -97.5t-147 -258.5zM501 97q134 0 240 80.5t132 202.5l31 143l-321 -16q-153 -8 -235 -65.5t-82 -155.5q0 -83 65.5 -136t169.5 -53z" />
    <glyph glyph-name="ccedilla" unicode="&#xe7;" horiz-adv-x="1150" 
d="M1158 760h-134q-11 95 -91.5 156t-195.5 61q-178 0 -298.5 -153t-120.5 -378q0 -159 81.5 -251.5t220.5 -92.5q112 0 195.5 50t116.5 138h136q-35 -137 -157 -221t-290 -87l-77 -121q88 -9 133.5 -48.5t45.5 -106.5q0 -82 -65.5 -134t-166.5 -52q-96 0 -172 37l18 87
q66 -32 151 -32q54 0 87.5 23.5t33.5 63.5q0 39 -35.5 62t-101.5 25l-51 1l11 72l84 131q-155 29 -245 146t-90 292q0 189 73.5 341.5t203 239t290.5 86.5q155 0 266.5 -81t137.5 -209q4 -23 6 -45z" />
    <glyph glyph-name="egrave" unicode="&#xe8;" horiz-adv-x="1176" 
d="M832 1267h-143l-199 327h162zM613 -18q-189 0 -310.5 118.5t-121.5 323.5q0 194 72.5 347.5t200.5 238.5t288 85q172 0 288.5 -117.5t116.5 -310.5q0 -87 -14 -154h-811q-5 -43 -5 -78q0 -162 87 -247.5t218 -85.5q226 0 309 162h140q-38 -125 -161 -203.5t-297 -78.5z
M340 621h667q4 24 4 60q0 127 -76.5 212.5t-204.5 85.5q-138 0 -243.5 -98.5t-146.5 -259.5z" />
    <glyph glyph-name="eacute" unicode="&#xe9;" horiz-adv-x="1176" 
d="M694 1267l320 327h169l-339 -327h-150zM613 -18q-189 0 -310.5 118.5t-121.5 323.5q0 194 72.5 347.5t200.5 238.5t288 85q172 0 288.5 -117.5t116.5 -310.5q0 -87 -14 -154h-811q-5 -43 -5 -78q0 -162 87 -247.5t218 -85.5q226 0 309 162h140q-38 -125 -161 -203.5
t-297 -78.5zM340 621h667q4 24 4 60q0 127 -76.5 212.5t-204.5 85.5q-138 0 -243.5 -98.5t-146.5 -259.5z" />
    <glyph glyph-name="ecircumflex" unicode="&#xea;" horiz-adv-x="1176" 
d="M907 1560l204 -332h-143l-142 243h-12l-244 -243h-163l346 332h154zM613 -18q-189 0 -310.5 118.5t-121.5 323.5q0 194 72.5 347.5t200.5 238.5t288 85q172 0 288.5 -117.5t116.5 -310.5q0 -87 -14 -154h-811q-5 -43 -5 -78q0 -162 87 -247.5t218 -85.5q226 0 309 162
h140q-38 -125 -161 -203.5t-297 -78.5zM340 621h667q4 24 4 60q0 127 -76.5 212.5t-204.5 85.5q-138 0 -243.5 -98.5t-146.5 -259.5z" />
    <glyph glyph-name="edieresis" unicode="&#xeb;" horiz-adv-x="1176" 
d="M613 -18q-189 0 -310.5 118.5t-121.5 323.5q0 194 72.5 347.5t200.5 238.5t288 85q172 0 288.5 -117.5t116.5 -310.5q0 -87 -14 -154h-811q-5 -43 -5 -78q0 -162 87 -247.5t218 -85.5q226 0 309 162h140q-38 -125 -161 -203.5t-297 -78.5zM340 621h667q4 24 4 60
q0 127 -76.5 212.5t-204.5 85.5q-138 0 -243.5 -98.5t-146.5 -259.5zM608 1228q-42 0 -72 29.5t-30 72.5t30 72.5t72 29.5q43 0 73 -29.5t30 -72.5t-30 -72.5t-73 -29.5zM972 1228q-43 0 -72.5 29.5t-29.5 72.5t29.5 72.5t72.5 29.5q42 0 72 -29.5t30 -72.5t-30 -72.5
t-72 -29.5z" />
    <glyph glyph-name="igrave" unicode="&#xec;" horiz-adv-x="489" 
d="M528 1267h-143l-199 327h162zM138 0l229 1077h131l-229 -1077h-131z" />
    <glyph glyph-name="iacute" unicode="&#xed;" horiz-adv-x="489" 
d="M390 1267l320 327h169l-339 -327h-150zM138 0l229 1077h131l-229 -1077h-131z" />
    <glyph glyph-name="icircumflex" unicode="&#xee;" horiz-adv-x="489" 
d="M603 1560l204 -332h-143l-142 243h-12l-244 -243h-163l346 332h154zM138 0l229 1077h131l-229 -1077h-131z" />
    <glyph glyph-name="idieresis" unicode="&#xef;" horiz-adv-x="489" 
d="M138 0l229 1077h131l-229 -1077h-131zM304 1228q-42 0 -72 29.5t-30 72.5t30 72.5t72 29.5q43 0 73 -29.5t30 -72.5t-30 -72.5t-73 -29.5zM668 1228q-43 0 -72.5 29.5t-29.5 72.5t29.5 72.5t72.5 29.5q42 0 72 -29.5t30 -72.5t-30 -72.5t-72 -29.5z" />
    <glyph glyph-name="eth" unicode="&#xf0;" horiz-adv-x="1192" 
d="M600 -18q-189 0 -310 118.5t-121 299.5q0 185 69 335.5t191.5 237t274.5 86.5q123 0 220.5 -61.5t131.5 -159.5h11q1 1 1 17q-5 206 -120 404l-341 -112l-7 99l296 98q-52 66 -142 153h151q70 -70 105 -118l256 88l8 -99l-216 -75q127 -235 127 -485q0 -158 -37 -315
q-57 -238 -202 -374.5t-346 -136.5zM1031 623q0 140 -88 227t-227 87q-115 0 -208.5 -66.5t-146.5 -184.5t-53 -262q0 -148 82 -235.5t222 -87.5q110 0 207 71.5t154.5 192.5t57.5 258z" />
    <glyph glyph-name="ntilde" unicode="&#xf1;" horiz-adv-x="1198" 
d="M1000 1216q-46 0 -83 19t-60.5 46.5t-44.5 55t-45.5 46.5t-52.5 19q-93 0 -122 -142h-110q15 116 80 181.5t157 65.5q45 0 81.5 -19.5t60 -46.5t44.5 -54.5t46 -47t53 -19.5q93 0 121 142h110q-16 -117 -80 -181.5t-155 -64.5zM126 0l229 1077h128l-39 -183h12
q131 201 353 201q153 0 246 -93.5t93 -229.5q0 -58 -13 -119l-139 -653h-133l134 630q13 63 13 107q0 108 -67 174t-186 66q-134 0 -231 -89t-126 -226l-141 -662h-133z" />
    <glyph glyph-name="ograve" unicode="&#xf2;" horiz-adv-x="1216" 
d="M840 1267h-143l-199 327h162zM320 442q0 -155 86 -248t228 -93q112 0 206 69.5t148.5 189.5t54.5 263q0 164 -82.5 259t-225.5 95q-182 0 -298.5 -150t-116.5 -385zM618 -18q-196 0 -316.5 123t-120.5 323q0 191 72.5 343.5t202 238t291.5 85.5q195 0 315.5 -122.5
t120.5 -321.5q0 -190 -73 -343t-202.5 -239.5t-289.5 -86.5z" />
    <glyph glyph-name="oacute" unicode="&#xf3;" horiz-adv-x="1216" 
d="M702 1267l320 327h169l-339 -327h-150zM320 442q0 -155 86 -248t228 -93q112 0 206 69.5t148.5 189.5t54.5 263q0 164 -82.5 259t-225.5 95q-182 0 -298.5 -150t-116.5 -385zM618 -18q-196 0 -316.5 123t-120.5 323q0 191 72.5 343.5t202 238t291.5 85.5
q195 0 315.5 -122.5t120.5 -321.5q0 -190 -73 -343t-202.5 -239.5t-289.5 -86.5z" />
    <glyph glyph-name="ocircumflex" unicode="&#xf4;" horiz-adv-x="1216" 
d="M915 1560l204 -332h-143l-142 243h-12l-244 -243h-163l346 332h154zM320 442q0 -155 86 -248t228 -93q112 0 206 69.5t148.5 189.5t54.5 263q0 164 -82.5 259t-225.5 95q-182 0 -298.5 -150t-116.5 -385zM618 -18q-196 0 -316.5 123t-120.5 323q0 191 72.5 343.5t202 238
t291.5 85.5q195 0 315.5 -122.5t120.5 -321.5q0 -190 -73 -343t-202.5 -239.5t-289.5 -86.5z" />
    <glyph glyph-name="otilde" unicode="&#xf5;" horiz-adv-x="1216" 
d="M959 1216q-46 0 -83 19t-60.5 46.5t-44.5 55t-45.5 46.5t-52.5 19q-93 0 -122 -142h-110q15 116 80 181.5t157 65.5q45 0 81.5 -19.5t60 -46.5t44.5 -54.5t46 -47t53 -19.5q93 0 121 142h110q-16 -117 -80 -181.5t-155 -64.5zM320 442q0 -155 86 -248t228 -93
q112 0 206 69.5t148.5 189.5t54.5 263q0 164 -82.5 259t-225.5 95q-182 0 -298.5 -150t-116.5 -385zM618 -18q-196 0 -316.5 123t-120.5 323q0 191 72.5 343.5t202 238t291.5 85.5q195 0 315.5 -122.5t120.5 -321.5q0 -190 -73 -343t-202.5 -239.5t-289.5 -86.5z" />
    <glyph glyph-name="odieresis" unicode="&#xf6;" horiz-adv-x="1216" 
d="M616 1228q-42 0 -72 29.5t-30 72.5t30 72.5t72 29.5q43 0 73 -29.5t30 -72.5t-30 -72.5t-73 -29.5zM980 1228q-43 0 -72.5 29.5t-29.5 72.5t29.5 72.5t72.5 29.5q42 0 72 -29.5t30 -72.5t-30 -72.5t-72 -29.5zM320 442q0 -155 86 -248t228 -93q112 0 206 69.5
t148.5 189.5t54.5 263q0 164 -82.5 259t-225.5 95q-182 0 -298.5 -150t-116.5 -385zM618 -18q-196 0 -316.5 123t-120.5 323q0 191 72.5 343.5t202 238t291.5 85.5q195 0 315.5 -122.5t120.5 -321.5q0 -190 -73 -343t-202.5 -239.5t-289.5 -86.5z" />
    <glyph glyph-name="divide" unicode="&#xf7;" horiz-adv-x="1321" 
d="M1222 523h-983l24 114h983zM810 822q-46 0 -76.5 30.5t-30.5 76.5t30.5 76t76.5 30q45 0 75.5 -30t30.5 -76t-30.5 -76.5t-75.5 -30.5zM660 116q-46 0 -77 30.5t-31 76.5t31 76.5t77 30.5q45 0 75.5 -30.5t30.5 -76.5t-30.5 -76.5t-75.5 -30.5z" />
    <glyph glyph-name="oslash" unicode="&#xf8;" horiz-adv-x="1218" 
d="M1001 826l-586 -639q86 -86 222 -86q112 0 206 69.5t148.5 189.5t54.5 263q0 118 -45 203zM363 260l587 636q-81 81 -212 81q-182 0 -298.5 -150t-116.5 -385q0 -104 40 -182zM1237 1083l-138 -150q87 -115 87 -282q0 -190 -73 -343t-202.5 -239.5t-289.5 -86.5
q-179 0 -298 105l-132 -144l-70 55l143 156q-80 115 -80 274q0 191 72.5 343.5t202 238t291.5 85.5q174 0 291 -100l128 139z" />
    <glyph glyph-name="ugrave" unicode="&#xf9;" horiz-adv-x="1196" 
d="M867 1267h-143l-199 327h162zM1218 1077l-229 -1077h-127l38 173h-12q-54 -87 -145.5 -139t-212.5 -52q-149 0 -241 89.5t-92 226.5q0 64 14 129l137 650h134l-134 -629q-14 -68 -14 -118q0 -111 62.5 -170t181.5 -59q139 0 238.5 90.5t128.5 231.5l140 654h133z" />
    <glyph glyph-name="uacute" unicode="&#xfa;" horiz-adv-x="1196" 
d="M729 1267l320 327h169l-339 -327h-150zM1218 1077l-229 -1077h-127l38 173h-12q-54 -87 -145.5 -139t-212.5 -52q-149 0 -241 89.5t-92 226.5q0 64 14 129l137 650h134l-134 -629q-14 -68 -14 -118q0 -111 62.5 -170t181.5 -59q139 0 238.5 90.5t128.5 231.5l140 654h133
z" />
    <glyph glyph-name="ucircumflex" unicode="&#xfb;" horiz-adv-x="1196" 
d="M942 1560l204 -332h-143l-142 243h-12l-244 -243h-163l346 332h154zM1218 1077l-229 -1077h-127l38 173h-12q-54 -87 -145.5 -139t-212.5 -52q-149 0 -241 89.5t-92 226.5q0 64 14 129l137 650h134l-134 -629q-14 -68 -14 -118q0 -111 62.5 -170t181.5 -59
q139 0 238.5 90.5t128.5 231.5l140 654h133z" />
    <glyph glyph-name="udieresis" unicode="&#xfc;" horiz-adv-x="1196" 
d="M1218 1077l-229 -1077h-127l38 173h-12q-54 -87 -145.5 -139t-212.5 -52q-149 0 -241 89.5t-92 226.5q0 64 14 129l137 650h134l-134 -629q-14 -68 -14 -118q0 -111 62.5 -170t181.5 -59q139 0 238.5 90.5t128.5 231.5l140 654h133zM643 1228q-42 0 -72 29.5t-30 72.5
t30 72.5t72 29.5q43 0 73 -29.5t30 -72.5t-30 -72.5t-73 -29.5zM1007 1228q-43 0 -72.5 29.5t-29.5 72.5t29.5 72.5t72.5 29.5q42 0 72 -29.5t30 -72.5t-30 -72.5t-72 -29.5z" />
    <glyph glyph-name="yacute" unicode="&#xfd;" horiz-adv-x="1079" 
d="M161 -382q-54 0 -103 13l23 110q42 -11 88 -11q61 0 111 42.5t107 145.5l46 81l-179 1078h131l143 -913h12l515 913h145l-696 -1202q-86 -148 -161.5 -202.5t-181.5 -54.5zM684 1267l320 327h169l-339 -327h-150z" />
    <glyph glyph-name="thorn" unicode="&#xfe;" horiz-adv-x="1255" 
d="M664 101q117 0 215 75t153.5 202.5t55.5 279.5q0 149 -77 234t-211 85q-122 0 -223 -77t-156 -202t-55 -268q0 -152 80.5 -240.5t217.5 -88.5zM318 244l-132 -615h-132l397 1867h131l-127 -603h13q64 97 161 149.5t213 52.5q166 0 274.5 -117.5t108.5 -300.5
q0 -189 -73 -349t-200 -253t-280 -93q-130 0 -224.5 72.5t-117.5 189.5h-12z" />
    <glyph glyph-name="ydieresis" unicode="&#xff;" horiz-adv-x="1079" 
d="M161 -382q-54 0 -103 13l23 110q42 -11 88 -11q61 0 111 42.5t107 145.5l46 81l-179 1078h131l143 -913h12l515 913h145l-696 -1202q-86 -148 -161.5 -202.5t-181.5 -54.5zM598 1228q-42 0 -72 29.5t-30 72.5t30 72.5t72 29.5q43 0 73 -29.5t30 -72.5t-30 -72.5
t-73 -29.5zM962 1228q-43 0 -72.5 29.5t-29.5 72.5t29.5 72.5t72.5 29.5q42 0 72 -29.5t30 -72.5t-30 -72.5t-72 -29.5z" />
    <glyph glyph-name="Amacron" unicode="&#x100;" horiz-adv-x="1363" 
d="M1112 0l-67 443h-608l-254 -443h-149l851 1443h128l233 -1443h-134zM907 1262l-404 -702h527l-110 702h-13zM1309 1619h-645l23 105h644z" />
    <glyph glyph-name="amacron" unicode="&#x101;" horiz-adv-x="1126" 
d="M501 97q135 0 240.5 80.5t131.5 202.5l32 149l-321 -17q-152 -8 -235 -67.5t-83 -158.5q0 -83 65.5 -136t169.5 -53zM462 -18q-142 0 -236.5 83t-94.5 208q0 156 119.5 246.5t340.5 100.5l337 16l17 81q8 42 8 64q0 92 -67.5 144t-187.5 52q-106 0 -181 -45t-100 -122
h-139q33 130 150.5 207.5t280.5 77.5q171 0 274 -80.5t103 -216.5q0 -39 -10 -89l-150 -709h-128l35 165h-12q-57 -84 -153.5 -133.5t-205.5 -49.5zM1096 1292h-662l22 106h663z" />
    <glyph glyph-name="Abreve" unicode="&#x102;" horiz-adv-x="1363" 
d="M1112 0l-67 443h-608l-254 -443h-149l851 1443h128l233 -1443h-134zM907 1262l-404 -702h527l-110 702h-13zM676 1837q0 11 1 14h116q-1 -5 -1 -15q0 -69 56 -114t143 -45q86 0 144.5 47t74.5 127h119q-19 -125 -113.5 -199.5t-228.5 -74.5q-139 0 -225 72t-86 188z" />
    <glyph glyph-name="abreve" unicode="&#x103;" horiz-adv-x="1126" 
d="M501 97q135 0 240.5 80.5t131.5 202.5l32 149l-321 -17q-152 -8 -235 -67.5t-83 -158.5q0 -83 65.5 -136t169.5 -53zM462 -18q-142 0 -236.5 83t-94.5 208q0 156 119.5 246.5t340.5 100.5l337 16l17 81q8 42 8 64q0 92 -67.5 144t-187.5 52q-106 0 -181 -45t-100 -122
h-139q33 130 150.5 207.5t280.5 77.5q171 0 274 -80.5t103 -216.5q0 -39 -10 -89l-150 -709h-128l35 165h-12q-57 -84 -153.5 -133.5t-205.5 -49.5zM464 1538h117q-2 -18 -2 -31q0 -77 54 -121.5t146 -44.5q98 0 158.5 51.5t72.5 145.5h120q-12 -134 -109 -216t-248 -82
q-145 0 -228 72t-83 187q0 11 2 39z" />
    <glyph glyph-name="Aogonek" unicode="&#x104;" horiz-adv-x="1363" 
d="M907 1262l-404 -702h527l-110 702h-13zM1109 26l-64 417h-608l-254 -443h-149l851 1443h128l233 -1443l-27 -8q-110 -32 -172 -84.5t-62 -116.5q0 -45 36.5 -71.5t99.5 -26.5q24 0 39 3l-22 -103q-31 -9 -66 -9q-97 0 -159.5 50t-62.5 129q0 84 67 154t192 109z" />
    <glyph glyph-name="aogonek" unicode="&#x105;" horiz-adv-x="1126" 
d="M501 97q135 0 240.5 80.5t131.5 202.5l32 149l-321 -17q-152 -8 -235 -67.5t-83 -158.5q0 -83 65.5 -136t169.5 -53zM801 14l32 151h-12q-57 -84 -153.5 -133.5t-205.5 -49.5q-142 0 -236.5 83t-94.5 208q0 156 119.5 246.5t340.5 100.5l337 16l17 81q8 42 8 64
q0 92 -67.5 144t-187.5 52q-106 0 -181 -45t-100 -122h-139q33 130 150.5 207.5t280.5 77.5q171 0 274 -80.5t103 -216.5q0 -46 -10 -89l-152 -716l-5 -2q-109 -35 -172.5 -85.5t-63.5 -114.5q0 -46 36.5 -72t99.5 -26q25 0 39 3l-22 -103q-36 -9 -66 -9q-97 0 -159 50
t-62 129q0 84 66 148.5t186 102.5z" />
    <glyph glyph-name="Cacute" unicode="&#x106;" horiz-adv-x="1464" 
d="M930 1578l372 297h175l-388 -297h-159zM1378 990q0 2 0.5 7t0.5 8q-8 150 -122 245.5t-292 95.5q-165 0 -302.5 -101t-217 -276.5t-79.5 -386.5q0 -226 115.5 -355.5t315.5 -129.5q160 0 283 77.5t166 204.5h144q-54 -189 -217.5 -299t-389.5 -110q-255 0 -407 162
t-152 435q0 192 57.5 360t157 288t239 189t297.5 69q234 0 388 -133.5t154 -331.5q0 -4 -0.5 -10t-0.5 -8h-138z" />
    <glyph glyph-name="cacute" unicode="&#x107;" horiz-adv-x="1148" 
d="M1158 760h-134q-11 95 -91.5 156t-195.5 61q-178 0 -298.5 -153t-120.5 -378q0 -159 81.5 -251.5t220.5 -92.5q112 0 195.5 50t116.5 138h136q-35 -139 -161 -223.5t-298 -84.5q-194 0 -311 122t-117 324q0 189 73.5 341.5t203 239t290.5 86.5q155 0 266.5 -81
t137.5 -209q4 -23 6 -45zM724 1267l320 327h169l-339 -327h-150z" />
    <glyph glyph-name="Ccircumflex" unicode="&#x108;" horiz-adv-x="1464" 
d="M1378 990q0 2 0.5 7t0.5 8q-8 150 -122 245.5t-292 95.5q-165 0 -302.5 -101t-217 -276.5t-79.5 -386.5q0 -226 115.5 -355.5t315.5 -129.5q160 0 283 77.5t166 204.5h144q-54 -189 -217.5 -299t-389.5 -110q-255 0 -407 162t-152 435q0 192 57.5 360t157 288t239 189
t297.5 69q234 0 388 -133.5t154 -331.5q0 -4 -0.5 -10t-0.5 -8h-138zM1145 1875l189 -297h-142l-127 208h-11l-215 -208h-160l316 297h150z" />
    <glyph glyph-name="ccircumflex" unicode="&#x109;" horiz-adv-x="1148" 
d="M937 1560l204 -332h-143l-142 243h-12l-244 -243h-163l346 332h154zM1158 760h-134q-11 95 -91.5 156t-195.5 61q-178 0 -298.5 -153t-120.5 -378q0 -159 81.5 -251.5t220.5 -92.5q112 0 195.5 50t116.5 138h136q-35 -139 -161 -223.5t-298 -84.5q-194 0 -311 122
t-117 324q0 189 73.5 341.5t203 239t290.5 86.5q155 0 266.5 -81t137.5 -209q4 -23 6 -45z" />
    <glyph glyph-name="Cdotaccent" unicode="&#x10a;" horiz-adv-x="1464" 
d="M1029 1578q-44 0 -74.5 30.5t-30.5 73.5q0 44 31 74.5t74 30.5t73.5 -31t30.5 -74t-30.5 -73.5t-73.5 -30.5zM1378 990q0 2 0.5 7t0.5 8q-8 150 -122 245.5t-292 95.5q-165 0 -302.5 -101t-217 -276.5t-79.5 -386.5q0 -226 115.5 -355.5t315.5 -129.5q160 0 283 77.5
t166 204.5h144q-54 -189 -217.5 -299t-389.5 -110q-255 0 -407 162t-152 435q0 192 57.5 360t157 288t239 189t297.5 69q234 0 388 -133.5t154 -331.5q0 -4 -0.5 -10t-0.5 -8h-138z" />
    <glyph glyph-name="cdotaccent" unicode="&#x10b;" horiz-adv-x="1148" 
d="M1158 760h-134q-11 95 -91.5 156t-195.5 61q-178 0 -298.5 -153t-120.5 -378q0 -159 81.5 -251.5t220.5 -92.5q112 0 195.5 50t116.5 138h136q-35 -139 -161 -223.5t-298 -84.5q-194 0 -311 122t-117 324q0 189 73.5 341.5t203 239t290.5 86.5q155 0 266.5 -81
t137.5 -209q4 -23 6 -45zM833 1280q-45 0 -77 32.5t-32 77.5t32 77t77 32t77.5 -32t32.5 -77t-32.5 -77.5t-77.5 -32.5z" />
    <glyph glyph-name="Ccaron" unicode="&#x10c;" horiz-adv-x="1464" 
d="M1378 990q0 2 0.5 7t0.5 8q-8 150 -122 245.5t-292 95.5q-165 0 -302.5 -101t-217 -276.5t-79.5 -386.5q0 -226 115.5 -355.5t315.5 -129.5q160 0 283 77.5t166 204.5h144q-54 -189 -217.5 -299t-389.5 -110q-255 0 -407 162t-152 435q0 192 57.5 360t157 288t239 189
t297.5 69q234 0 388 -133.5t154 -331.5q0 -4 -0.5 -10t-0.5 -8h-138zM939 1578l-189 297h142l126 -208h12l214 208h161l-316 -297h-150z" />
    <glyph glyph-name="ccaron" unicode="&#x10d;" horiz-adv-x="1148" 
d="M885 1228h-153l-205 332h143l141 -243h12l245 243h163zM1158 760h-134q-11 95 -91.5 156t-195.5 61q-178 0 -298.5 -153t-120.5 -378q0 -159 81.5 -251.5t220.5 -92.5q112 0 195.5 50t116.5 138h136q-35 -139 -161 -223.5t-298 -84.5q-194 0 -311 122t-117 324
q0 189 73.5 341.5t203 239t290.5 86.5q155 0 266.5 -81t137.5 -209q4 -23 6 -45z" />
    <glyph glyph-name="Dcaron" unicode="&#x10e;" horiz-adv-x="1476" 
d="M773 1577l-189 297h142l126 -208h12l214 208h161l-316 -297h-150zM450 1443h413q286 0 447 -162t161 -445q0 -177 -59.5 -332.5t-163 -266t-247.5 -174t-308 -63.5h-548zM564 1321l-255 -1199h390q179 0 323.5 91.5t226.5 253.5t82 362q0 230 -127.5 361t-351.5 131h-288
z" />
    <glyph glyph-name="dcaron" unicode="&#x10f;" horiz-adv-x="1328" 
d="M1488 1506h130l-132 -444h-93zM569 -18q-167 0 -279 120.5t-112 313.5q0 188 75 344.5t203 245.5t280 89q130 0 224.5 -72.5t118.5 -188.5h12l142 672h134l-320 -1506h-127l39 185h-13q-63 -94 -163.5 -148.5t-213.5 -54.5zM609 101q122 0 222 74t156 199t56 273
q0 151 -81 240.5t-218 89.5q-87 0 -166.5 -42t-137 -114t-91.5 -172.5t-34 -212.5q0 -150 81 -242.5t213 -92.5z" />
    <glyph glyph-name="Dcroat" unicode="&#x110;" horiz-adv-x="1476" 
d="M309 122h390q179 0 323.5 91.5t226.5 253.5t82 362q0 230 -127.5 361t-351.5 131h-288l-110 -516h251l-27 -124h-250zM450 1443h413q286 0 447 -162t161 -445q0 -177 -59.5 -332.5t-163 -266t-247.5 -174t-308 -63.5h-548l144 681h-182l27 124h181z" />
    <glyph glyph-name="dcroat" unicode="&#x111;" horiz-adv-x="1265" 
d="M609 101q122 0 222 74t156 199t56 273q0 151 -81 240.5t-218 89.5q-87 0 -166.5 -42t-137 -114t-91.5 -172.5t-34 -212.5q0 -150 81 -242.5t213 -92.5zM1497 1383l-21 -98h-156l-273 -1285h-127l39 185h-13q-63 -94 -163.5 -148.5t-213.5 -54.5q-167 0 -279 120.5
t-112 313.5q0 188 75 344.5t203 245.5t280 89q130 0 224.5 -72.5t118.5 -188.5h12l95 451h-251l20 98h252l26 123h134l-26 -123h156z" />
    <glyph glyph-name="Emacron" unicode="&#x112;" horiz-adv-x="1196" 
d="M1042 124l-26 -124h-873l307 1443h873l-27 -124h-732l-112 -519h697l-26 -122h-696l-119 -554h734zM1246 1619h-645l23 105h644z" />
    <glyph glyph-name="emacron" unicode="&#x113;" horiz-adv-x="1176" 
d="M613 -18q-189 0 -310.5 118.5t-121.5 323.5q0 194 72.5 347.5t200.5 238.5t288 85q172 0 288.5 -117.5t116.5 -310.5q0 -87 -14 -154h-811q-5 -43 -5 -78q0 -162 87 -247.5t218 -85.5q226 0 309 162h140q-38 -125 -161 -203.5t-297 -78.5zM340 621h667q4 24 4 60
q0 127 -76.5 212.5t-204.5 85.5q-138 0 -243.5 -98.5t-146.5 -259.5zM1113 1292h-662l22 106h663z" />
    <glyph glyph-name="Ebreve" unicode="&#x114;" horiz-adv-x="1196" 
d="M1042 124l-26 -124h-873l307 1443h873l-27 -124h-732l-112 -519h697l-26 -122h-696l-119 -554h734zM614 1837q0 11 1 14h116q-1 -5 -1 -15q0 -69 56 -114t143 -45q86 0 144.5 47t74.5 127h119q-19 -125 -113.5 -199.5t-228.5 -74.5q-139 0 -225 72t-86 188z" />
    <glyph glyph-name="ebreve" unicode="&#x115;" horiz-adv-x="1176" 
d="M613 -18q-189 0 -310.5 118.5t-121.5 323.5q0 194 72.5 347.5t200.5 238.5t288 85q172 0 288.5 -117.5t116.5 -310.5q0 -87 -14 -154h-811q-5 -43 -5 -78q0 -162 87 -247.5t218 -85.5q226 0 309 162h140q-38 -125 -161 -203.5t-297 -78.5zM340 621h667q4 24 4 60
q0 127 -76.5 212.5t-204.5 85.5q-138 0 -243.5 -98.5t-146.5 -259.5zM481 1538h117q-2 -18 -2 -31q0 -77 54 -121.5t146 -44.5q98 0 158.5 51.5t72.5 145.5h120q-12 -134 -109 -216t-248 -82q-145 0 -228 72t-83 187q0 11 2 39z" />
    <glyph glyph-name="Edotaccent" unicode="&#x116;" horiz-adv-x="1196" 
d="M938 1577q-44 0 -74.5 30.5t-30.5 73.5t30.5 74t74.5 31q43 0 73.5 -31t30.5 -74t-30.5 -73.5t-73.5 -30.5zM1042 124l-26 -124h-873l307 1443h873l-27 -124h-732l-112 -519h697l-26 -122h-696l-119 -554h734z" />
    <glyph glyph-name="edotaccent" unicode="&#x117;" horiz-adv-x="1176" 
d="M803 1280q-45 0 -77 32.5t-32 77.5t32 77t77 32t77.5 -32t32.5 -77t-32.5 -77.5t-77.5 -32.5zM613 -18q-189 0 -310.5 118.5t-121.5 323.5q0 194 72.5 347.5t200.5 238.5t288 85q172 0 288.5 -117.5t116.5 -310.5q0 -87 -14 -154h-811q-5 -43 -5 -78q0 -162 87 -247.5
t218 -85.5q226 0 309 162h140q-38 -125 -161 -203.5t-297 -78.5zM340 621h667q4 24 4 60q0 127 -76.5 212.5t-204.5 85.5q-138 0 -243.5 -98.5t-146.5 -259.5z" />
    <glyph glyph-name="Eogonek" unicode="&#x118;" horiz-adv-x="1196" 
d="M803 -12l3 12h-663l307 1443h873l-27 -124h-732l-112 -519h697l-26 -122h-696l-119 -554h734l-26 -124l-35 -10q-111 -32 -174.5 -84t-63.5 -115q0 -45 36.5 -71.5t99.5 -26.5q25 0 39 3l-22 -103q-31 -9 -66 -9q-97 0 -159.5 50t-62.5 129q0 73 52.5 132t142.5 93z" />
    <glyph glyph-name="eogonek" unicode="&#x119;" horiz-adv-x="1179" 
d="M738 -416q-98 0 -160 50t-62 129q0 60 43.5 118.5t116.5 94.5l2 15q-34 -9 -65 -9q-195 0 -313.5 121t-118.5 321q0 193 72 346.5t200 239t289 85.5q177 0 291 -120.5t114 -307.5q0 -87 -14 -154h-811q-5 -55 -5 -78q0 -152 83 -242.5t222 -90.5q226 0 309 162h140
q-40 -132 -185 -217q-235 -140 -235 -256q0 -45 36.5 -71.5t98.5 -26.5q26 0 39 3l-22 -103q-36 -9 -65 -9zM340 621h667q4 24 4 60q0 131 -78.5 214.5t-202.5 83.5q-137 0 -243 -97.5t-147 -260.5z" />
    <glyph glyph-name="Ecaron" unicode="&#x11a;" horiz-adv-x="1196" 
d="M848 1577l-189 297h142l126 -208h12l214 208h161l-316 -297h-150zM1042 124l-26 -124h-873l307 1443h873l-27 -124h-732l-112 -519h697l-26 -122h-696l-119 -554h734z" />
    <glyph glyph-name="ecaron" unicode="&#x11b;" horiz-adv-x="1176" 
d="M855 1228h-153l-205 332h143l141 -243h12l245 243h163zM613 -18q-189 0 -310.5 118.5t-121.5 323.5q0 194 72.5 347.5t200.5 238.5t288 85q172 0 288.5 -117.5t116.5 -310.5q0 -87 -14 -154h-811q-5 -43 -5 -78q0 -162 87 -247.5t218 -85.5q226 0 309 162h140
q-38 -125 -161 -203.5t-297 -78.5zM340 621h667q4 24 4 60q0 127 -76.5 212.5t-204.5 85.5q-138 0 -243.5 -98.5t-146.5 -259.5z" />
    <glyph glyph-name="Gcircumflex" unicode="&#x11c;" horiz-adv-x="1506" 
d="M1132 1874l189 -297h-142l-127 208h-11l-215 -208h-160l316 297h150zM1486 721l-39 -192q-56 -270 -225 -414.5t-427 -144.5t-413.5 165.5t-155.5 440.5q0 254 97 459.5t268 321.5t383 116q224 0 374.5 -124t160.5 -314q1 -7 1 -28h-138q-8 150 -120 244.5t-288 94.5
q-124 0 -234.5 -58.5t-190 -159t-125.5 -240.5t-46 -298q0 -230 119 -361.5t326 -131.5q186 0 320.5 115t171.5 307l16 81h-434l26 121h573z" />
    <glyph glyph-name="gcircumflex" unicode="&#x11d;" horiz-adv-x="1247" 
d="M934 1560l204 -332h-143l-142 243h-12l-244 -243h-163l346 332h154zM526 -403q-174 0 -293 83t-131 203h139q15 -75 94.5 -123.5t202.5 -48.5q146 0 239.5 72t123.5 202l50 225h-12q-60 -97 -153.5 -148t-209.5 -51q-171 0 -282 119.5t-111 310.5q0 185 71.5 335
t195.5 234.5t276 84.5q129 0 226.5 -72.5t123.5 -187.5h12l50 233l127 -1l-238 -1107q-36 -171 -167.5 -267t-333.5 -96zM615 127q182 0 301 149t119 373q0 152 -82 240t-219 88q-117 0 -211.5 -66.5t-148.5 -185t-54 -265.5q0 -156 79 -244.5t216 -88.5z" />
    <glyph glyph-name="Gbreve" unicode="&#x11e;" horiz-adv-x="1506" 
d="M1486 721l-39 -192q-56 -270 -225 -414.5t-427 -144.5t-413.5 165.5t-155.5 440.5q0 254 97 459.5t268 321.5t383 116q224 0 374.5 -124t160.5 -314q1 -7 1 -28h-138q-8 150 -120 244.5t-288 94.5q-124 0 -234.5 -58.5t-190 -159t-125.5 -240.5t-46 -298
q0 -230 119 -361.5t326 -131.5q186 0 320.5 115t171.5 307l16 81h-434l26 121h573zM692 1837q0 11 1 14h116q-1 -5 -1 -15q0 -69 56 -114t143 -45q86 0 144.5 47t74.5 127h119q-19 -125 -113.5 -199.5t-228.5 -74.5q-139 0 -225 72t-86 188z" />
    <glyph glyph-name="gbreve" unicode="&#x11f;" horiz-adv-x="1247" 
d="M508 1538h117q-2 -18 -2 -31q0 -77 54 -121.5t146 -44.5q98 0 158.5 51.5t72.5 145.5h120q-12 -134 -109 -216t-248 -82q-145 0 -228 72t-83 187q0 11 2 39zM526 -403q-174 0 -293 83t-131 203h139q15 -75 94.5 -123.5t202.5 -48.5q146 0 239.5 72t123.5 202l50 225h-12
q-60 -97 -153.5 -148t-209.5 -51q-171 0 -282 119.5t-111 310.5q0 185 71.5 335t195.5 234.5t276 84.5q129 0 226.5 -72.5t123.5 -187.5h12l50 233l127 -1l-238 -1107q-36 -171 -167.5 -267t-333.5 -96zM615 127q182 0 301 149t119 373q0 152 -82 240t-219 88
q-117 0 -211.5 -66.5t-148.5 -185t-54 -265.5q0 -156 79 -244.5t216 -88.5z" />
    <glyph glyph-name="Gdotaccent" unicode="&#x120;" horiz-adv-x="1506" 
d="M1016 1577q-44 0 -74.5 30.5t-30.5 73.5t30.5 74t74.5 31q43 0 73.5 -31t30.5 -74t-30.5 -73.5t-73.5 -30.5zM1486 721l-39 -192q-56 -270 -225 -414.5t-427 -144.5t-413.5 165.5t-155.5 440.5q0 254 97 459.5t268 321.5t383 116q224 0 374.5 -124t160.5 -314q1 -7 1 -28
h-138q-8 150 -120 244.5t-288 94.5q-124 0 -234.5 -58.5t-190 -159t-125.5 -240.5t-46 -298q0 -230 119 -361.5t326 -131.5q186 0 320.5 115t171.5 307l16 81h-434l26 121h573z" />
    <glyph glyph-name="gdotaccent" unicode="&#x121;" horiz-adv-x="1247" 
d="M830 1280q-45 0 -77 32.5t-32 77.5t32 77t77 32t77.5 -32t32.5 -77t-32.5 -77.5t-77.5 -32.5zM526 -403q-174 0 -293 83t-131 203h139q15 -75 94.5 -123.5t202.5 -48.5q146 0 239.5 72t123.5 202l50 225h-12q-60 -97 -153.5 -148t-209.5 -51q-171 0 -282 119.5
t-111 310.5q0 185 71.5 335t195.5 234.5t276 84.5q129 0 226.5 -72.5t123.5 -187.5h12l50 233l127 -1l-238 -1107q-36 -171 -167.5 -267t-333.5 -96zM615 127q182 0 301 149t119 373q0 152 -82 240t-219 88q-117 0 -211.5 -66.5t-148.5 -185t-54 -265.5q0 -156 79 -244.5
t216 -88.5z" />
    <glyph glyph-name="Gcommaaccent" unicode="&#x122;" horiz-adv-x="1506" 
d="M678 -506h-127l179 364h141zM1486 721l-39 -192q-56 -270 -225 -414.5t-427 -144.5t-413.5 165.5t-155.5 440.5q0 254 97 459.5t268 321.5t383 116q224 0 374.5 -124t160.5 -314q1 -7 1 -28h-138q-8 150 -120 244.5t-288 94.5q-124 0 -234.5 -58.5t-190 -159
t-125.5 -240.5t-46 -298q0 -230 119 -361.5t326 -131.5q186 0 320.5 115t171.5 307l16 81h-434l26 121h573z" />
    <glyph glyph-name="gcommaaccent" unicode="&#x123;" horiz-adv-x="1247" 
d="M1061 1647h127l-179 -364h-141zM526 -403q-174 0 -293 83t-131 203h139q15 -75 94.5 -123.5t202.5 -48.5q146 0 239.5 72t123.5 202l50 225h-12q-60 -97 -153.5 -148t-209.5 -51q-171 0 -282 119.5t-111 310.5q0 185 71.5 335t195.5 234.5t276 84.5q129 0 226.5 -72.5
t123.5 -187.5h12l50 233l127 -1l-238 -1107q-36 -171 -167.5 -267t-333.5 -96zM615 127q182 0 301 149t119 373q0 152 -82 240t-219 88q-117 0 -211.5 -66.5t-148.5 -185t-54 -265.5q0 -156 79 -244.5t216 -88.5z" />
    <glyph glyph-name="Hcircumflex" unicode="&#x124;" horiz-adv-x="1489" 
d="M1263 0h-140l144 677h-841l-144 -677h-139l307 1443h140l-137 -642h841l137 642h139zM1178 1874l189 -297h-142l-127 208h-11l-215 -208h-160l316 297h150z" />
    <glyph glyph-name="hcircumflex" unicode="&#x125;" horiz-adv-x="1215" 
d="M136 0l322 1506h133l-131 -611h12q132 200 349 200q155 0 249.5 -94t94.5 -232q0 -55 -13 -116l-139 -653h-133l134 630q13 63 13 104q0 110 -68.5 176.5t-189.5 66.5q-135 0 -232 -89t-127 -226l-141 -662h-133zM691 1937l189 -297h-142l-127 208h-11l-215 -208h-160
l316 297h150z" />
    <glyph glyph-name="Hbar" unicode="&#x126;" horiz-adv-x="1489" 
d="M1295 801l63 294h-841l-63 -294h841zM1663 1206l-23 -111h-143l-233 -1095h-140l144 677h-841l-144 -677h-139l233 1095h-145l23 111h146l50 237h140l-51 -237h841l51 237h139l-50 -237h142z" />
    <glyph glyph-name="hbar" unicode="&#x127;" horiz-adv-x="1215" 
d="M460 895h12q132 200 349 200q155 0 249.5 -94t94.5 -232q0 -55 -13 -116l-139 -653h-133l134 630q13 63 13 104q0 110 -68.5 176.5t-189.5 66.5q-135 0 -232 -89t-127 -226l-141 -662h-133l275 1285h-153l21 98h153l26 123h133l-26 -123h256l-21 -98h-256z" />
    <glyph glyph-name="Itilde" unicode="&#x128;" horiz-adv-x="509" 
d="M283 0h-140l307 1443h140zM720 1578q-43 0 -79.5 16.5t-62 40.5t-47.5 48t-46.5 40.5t-49.5 16.5q-46 0 -78 -33t-45 -94h-110q18 107 83.5 169t152.5 62q42 0 78 -16.5t61.5 -40t47.5 -47.5t47 -40.5t50 -16.5q94 0 122 126h110q-19 -108 -83.5 -169.5t-150.5 -61.5z
" />
    <glyph glyph-name="itilde" unicode="&#x129;" horiz-adv-x="489" 
d="M138 0l229 1077h131l-229 -1077h-131zM647 1216q-46 0 -83 19t-60.5 46.5t-44.5 55t-45.5 46.5t-52.5 19q-93 0 -122 -142h-110q15 116 80 181.5t157 65.5q45 0 81.5 -19.5t60 -46.5t44.5 -54.5t46 -47t53 -19.5q93 0 121 142h110q-16 -117 -80 -181.5t-155 -64.5z" />
    <glyph glyph-name="Imacron" unicode="&#x12a;" horiz-adv-x="509" 
d="M283 0h-140l307 1443h140zM880 1619h-645l23 105h644z" />
    <glyph glyph-name="imacron" unicode="&#x12b;" horiz-adv-x="489" 
d="M138 0l229 1077h131l-229 -1077h-131zM809 1292h-662l22 106h663z" />
    <glyph glyph-name="Ibreve" unicode="&#x12c;" horiz-adv-x="509" 
d="M283 0h-140l307 1443h140zM248 1837q0 11 1 14h116q-1 -5 -1 -15q0 -69 56 -114t143 -45q86 0 144.5 47t74.5 127h119q-19 -125 -113.5 -199.5t-228.5 -74.5q-139 0 -225 72t-86 188z" />
    <glyph glyph-name="ibreve" unicode="&#x12d;" horiz-adv-x="489" 
d="M138 0l229 1077h131l-229 -1077h-131zM177 1538h117q-2 -18 -2 -31q0 -77 54 -121.5t146 -44.5q98 0 158.5 51.5t72.5 145.5h120q-12 -134 -109 -216t-248 -82q-145 0 -228 72t-83 187q0 11 2 39z" />
    <glyph glyph-name="Iogonek" unicode="&#x12e;" horiz-adv-x="509" 
d="M225 -407q-29 -9 -65 -9q-98 0 -160 50.5t-62 128.5q0 75 55.5 142.5t150.5 99.5l306 1438h140l-309 -1449l-7 -2q-201 -72 -201 -201q0 -45 36.5 -71.5t99.5 -26.5q24 0 39 3z" />
    <glyph glyph-name="iogonek" unicode="&#x12f;" horiz-adv-x="489" 
d="M504 1317q-40 0 -68.5 29t-28.5 69t28.5 68.5t68.5 28.5t69 -28.5t29 -68.5q0 -41 -29 -69.5t-69 -28.5zM146 -416q-97 0 -159 50.5t-62 128.5q0 76 58 146t157 103l227 1065h131l-231 -1084l-7 -2q-101 -33 -151 -85.5t-50 -114.5q0 -45 36.5 -71.5t99.5 -26.5
q25 0 39 3l-22 -103q-31 -9 -66 -9z" />
    <glyph glyph-name="Idotaccent" unicode="&#x130;" horiz-adv-x="509" 
d="M283 0h-140l307 1443h140zM571 1577q-44 0 -74.5 30.5t-30.5 73.5t31 74t74 31t73.5 -31t30.5 -74t-30.5 -73.5t-73.5 -30.5z" />
    <glyph glyph-name="dotlessi" unicode="&#x131;" horiz-adv-x="489" 
d="M138 0l229 1077h131l-229 -1077h-131z" />
    <glyph glyph-name="u0132" unicode="&#x132;" horiz-adv-x="1595" 
d="M283 0h-140l307 1443h140zM631 330h137v-6q1 -103 70 -164.5t182 -61.5q116 0 191.5 73.5t106.5 216.5l224 1055h136l-231 -1090q-39 -183 -153 -283t-290 -100q-169 0 -275 100.5t-98 252.5v7z" />
    <glyph glyph-name="u0133" unicode="&#x133;" horiz-adv-x="977" 
d="M138 0l229 1077h131l-229 -1077h-131zM504 1317q-40 0 -68.5 29t-28.5 69t28.5 68.5t68.5 28.5t69 -28.5t29 -68.5q0 -41 -29 -69.5t-69 -28.5zM988 1077l-249 -1170q-30 -143 -108 -208.5t-212 -65.5q-46 0 -73 5l27 117q23 -5 50 -5q81 0 125 40t63 134l246 1153h131z
M990 1317q-40 0 -68.5 29t-28.5 69t28.5 68.5t68.5 28.5t69 -28.5t29 -68.5q0 -41 -29 -69.5t-69 -28.5z" />
    <glyph glyph-name="Jcircumflex" unicode="&#x134;" horiz-adv-x="1091" 
d="M124 330h137v-6q1 -103 70 -164.5t182 -61.5q116 0 191.5 73.5t106.5 216.5l224 1055h136l-231 -1090q-39 -183 -153 -283t-290 -100q-169 0 -275 100.5t-98 252.5v7zM1270 1874l189 -297h-142l-127 208h-11l-215 -208h-160l316 297h150z" />
    <glyph glyph-name="jcircumflex" unicode="&#x135;" horiz-adv-x="490" 
d="M499 1077l-249 -1170q-30 -143 -108 -208.5t-212 -65.5q-46 0 -73 5l27 116q26 -4 50 -4q81 0 125 40.5t63 133.5l245 1153h132zM604 1560l204 -332h-143l-142 243h-12l-244 -243h-163l346 332h154z" />
    <glyph glyph-name="Kcommaaccent" unicode="&#x136;" horiz-adv-x="1311" 
d="M280 0h-137l307 1443h136l-158 -743h12l833 743h180l-706 -631l458 -812h-159l-407 728l-250 -221zM517 -506h-127l179 364h141z" />
    <glyph glyph-name="kcommaaccent" unicode="&#x137;" horiz-adv-x="1074" 
d="M407 594l616 483h177l-583 -464l378 -613h-154l-330 539l-152 -112l-90 -427h-133l320 1506h133l-194 -912h12zM414 -506h-127l179 364h141z" />
    <glyph glyph-name="Lacute" unicode="&#x139;" horiz-adv-x="1139" 
d="M472 1577l372 297h175l-388 -297h-159zM1029 124l-26 -124h-860l307 1443h140l-282 -1319h721z" />
    <glyph glyph-name="lacute" unicode="&#x13a;" horiz-adv-x="490" 
d="M476 1640l372 297h175l-388 -297h-159zM136 0l320 1506h134l-320 -1506h-134z" />
    <glyph glyph-name="Lcommaaccent" unicode="&#x13b;" horiz-adv-x="1139" 
d="M447 -506h-127l179 364h141zM1029 124l-26 -124h-860l307 1443h140l-282 -1319h721z" />
    <glyph glyph-name="lcommaaccent" unicode="&#x13c;" horiz-adv-x="490" 
d="M77 -506h-127l179 364h141zM136 0l320 1506h134l-320 -1506h-134z" />
    <glyph glyph-name="Lcaron" unicode="&#x13d;" horiz-adv-x="1139" 
d="M837 1443h129l-137 -473h-93zM1029 124l-26 -124h-860l307 1443h140l-282 -1319h721z" />
    <glyph glyph-name="lcaron" unicode="&#x13e;" horiz-adv-x="557" 
d="M717 1506h130l-132 -444h-92zM136 0l320 1506h134l-320 -1506h-134z" />
    <glyph glyph-name="Lslash" unicode="&#x141;" horiz-adv-x="1139" 
d="M308 124h721l-26 -124h-860l154 726l-184 -81l23 112l185 81l129 605h140l-115 -537l346 152l-24 -112l-346 -152z" />
    <glyph glyph-name="lslash" unicode="&#x142;" horiz-adv-x="489" 
d="M615 979l-23 -112l-153 -72l-169 -795h-134l154 725l-148 -70l23 113l149 70l142 668h134l-127 -598z" />
    <glyph glyph-name="Nacute" unicode="&#x143;" horiz-adv-x="1492" 
d="M971 1577l372 297h175l-388 -297h-159zM281 0h-138l307 1443h135l579 -1218h12l259 1218h138l-307 -1443h-133l-581 1220h-12z" />
    <glyph glyph-name="nacute" unicode="&#x144;" horiz-adv-x="1198" 
d="M743 1267l320 327h169l-339 -327h-150zM126 0l229 1077h128l-39 -183h12q131 201 353 201q153 0 246 -93.5t93 -229.5q0 -58 -13 -119l-139 -653h-133l134 630q13 63 13 107q0 108 -67 174t-186 66q-134 0 -231 -89t-126 -226l-141 -662h-133z" />
    <glyph glyph-name="Ncommaaccent" unicode="&#x145;" horiz-adv-x="1492" 
d="M580 -506h-127l179 364h141zM281 0h-138l307 1443h135l579 -1218h12l259 1218h138l-307 -1443h-133l-581 1220h-12z" />
    <glyph glyph-name="ncommaaccent" unicode="&#x146;" horiz-adv-x="1198" 
d="M429 -506h-127l179 364h141zM126 0l229 1077h128l-39 -183h12q131 201 353 201q153 0 246 -93.5t93 -229.5q0 -58 -13 -119l-139 -653h-133l134 630q13 63 13 107q0 108 -67 174t-186 66q-134 0 -231 -89t-126 -226l-141 -662h-133z" />
    <glyph glyph-name="Ncaron" unicode="&#x147;" horiz-adv-x="1492" 
d="M980 1577l-189 297h142l126 -208h12l214 208h161l-316 -297h-150zM281 0h-138l307 1443h135l579 -1218h12l259 1218h138l-307 -1443h-133l-581 1220h-12z" />
    <glyph glyph-name="ncaron" unicode="&#x148;" horiz-adv-x="1198" 
d="M904 1228h-153l-205 332h143l141 -243h12l245 243h163zM126 0l229 1077h128l-39 -183h12q131 201 353 201q153 0 246 -93.5t93 -229.5q0 -58 -13 -119l-139 -653h-133l134 630q13 63 13 107q0 108 -67 174t-186 66q-134 0 -231 -89t-126 -226l-141 -662h-133z" />
    <glyph glyph-name="Omacron" unicode="&#x14c;" horiz-adv-x="1564" 
d="M799 -30q-253 0 -414 169.5t-161 434.5q0 189 58.5 356t160 286t244 188t303.5 69q252 0 412 -169t160 -435q0 -254 -99 -460t-273.5 -322.5t-390.5 -116.5zM1419 858q0 220 -120.5 354t-318.5 134q-171 0 -311.5 -100t-220.5 -274.5t-80 -386.5q0 -220 121 -354
t320 -134q172 0 311.5 99t219 273.5t79.5 388.5zM1345 1618h-645l23 105h644z" />
    <glyph glyph-name="omacron" unicode="&#x14d;" horiz-adv-x="1216" 
d="M1121 1292h-662l22 106h663zM320 442q0 -155 86 -248t228 -93q112 0 206 69.5t148.5 189.5t54.5 263q0 164 -82.5 259t-225.5 95q-182 0 -298.5 -150t-116.5 -385zM618 -18q-196 0 -316.5 123t-120.5 323q0 191 72.5 343.5t202 238t291.5 85.5q195 0 315.5 -122.5
t120.5 -321.5q0 -190 -73 -343t-202.5 -239.5t-289.5 -86.5z" />
    <glyph glyph-name="Obreve" unicode="&#x14e;" horiz-adv-x="1564" 
d="M799 -30q-253 0 -414 169.5t-161 434.5q0 189 58.5 356t160 286t244 188t303.5 69q252 0 412 -169t160 -435q0 -254 -99 -460t-273.5 -322.5t-390.5 -116.5zM1419 858q0 220 -120.5 354t-318.5 134q-171 0 -311.5 -100t-220.5 -274.5t-80 -386.5q0 -220 121 -354
t320 -134q172 0 311.5 99t219 273.5t79.5 388.5zM712 1836q0 11 1 14h116q-1 -5 -1 -15q0 -69 56 -114t143 -45q86 0 144.5 47t74.5 127h119q-19 -125 -113.5 -199.5t-228.5 -74.5q-139 0 -225 72t-86 188z" />
    <glyph glyph-name="obreve" unicode="&#x14f;" horiz-adv-x="1216" 
d="M489 1538h117q-2 -18 -2 -31q0 -77 54 -121.5t146 -44.5q98 0 158.5 51.5t72.5 145.5h120q-12 -134 -109 -216t-248 -82q-145 0 -228 72t-83 187q0 11 2 39zM320 442q0 -155 86 -248t228 -93q112 0 206 69.5t148.5 189.5t54.5 263q0 164 -82.5 259t-225.5 95
q-182 0 -298.5 -150t-116.5 -385zM618 -18q-196 0 -316.5 123t-120.5 323q0 191 72.5 343.5t202 238t291.5 85.5q195 0 315.5 -122.5t120.5 -321.5q0 -190 -73 -343t-202.5 -239.5t-289.5 -86.5z" />
    <glyph glyph-name="Ohungarumlaut" unicode="&#x150;" horiz-adv-x="1564" 
d="M1106 1576l372 297h175l-388 -297h-159zM743 1576l372 297h175l-389 -297h-158zM799 -30q-253 0 -414 169.5t-161 434.5q0 189 58.5 356t160 286t244 188t303.5 69q252 0 412 -169t160 -435q0 -254 -99 -460t-273.5 -322.5t-390.5 -116.5zM1419 858q0 220 -120.5 354
t-318.5 134q-171 0 -311.5 -100t-220.5 -274.5t-80 -386.5q0 -220 121 -354t320 -134q172 0 311.5 99t219 273.5t79.5 388.5z" />
    <glyph glyph-name="ohungarumlaut" unicode="&#x151;" horiz-adv-x="1216" 
d="M882 1264l320 330h162l-341 -330h-141zM530 1264l321 330h161l-341 -330h-141zM320 442q0 -155 86 -248t228 -93q112 0 206 69.5t148.5 189.5t54.5 263q0 164 -82.5 259t-225.5 95q-182 0 -298.5 -150t-116.5 -385zM618 -18q-196 0 -316.5 123t-120.5 323
q0 191 72.5 343.5t202 238t291.5 85.5q195 0 315.5 -122.5t120.5 -321.5q0 -190 -73 -343t-202.5 -239.5t-289.5 -86.5z" />
    <glyph glyph-name="OE" unicode="&#x152;" horiz-adv-x="2324" 
d="M1419 858q0 220 -121 354t-318 134q-171 0 -311 -99.5t-220.5 -274.5t-80.5 -387q0 -220 121 -354t320 -134q172 0 311.5 99t219 273.5t79.5 388.5zM1265 0l45 209l-12 -1q-88 -110 -216.5 -174t-282.5 -64q-252 0 -413.5 169t-161.5 435q0 190 59 357t160.5 286
t243.5 187.5t303 68.5q185 0 317.5 -99t181.5 -263h13l70 332h873l-27 -124h-733l-111 -519h697l-27 -122h-696l-118 -554h734l-26 -124h-873z" />
    <glyph glyph-name="oe" unicode="&#x153;" horiz-adv-x="2030" 
d="M1463 -18q-143 0 -246 70t-143 197h-12q-72 -126 -188.5 -196.5t-257.5 -70.5q-195 0 -315 123t-120 323q0 190 72 342.5t201.5 238.5t292.5 86q144 0 245.5 -73.5t141.5 -207.5h12q69 134 185 207.5t261 73.5q178 0 291.5 -120.5t114.5 -307.5q0 -84 -15 -154h-811
q-5 -62 -5 -80q0 -151 83.5 -241t221.5 -90q227 0 309 162h140q-39 -129 -163 -205.5t-295 -76.5zM1190 620h667q4 17 4 61q0 131 -78 214.5t-203 83.5q-136 0 -242 -97.5t-148 -261.5zM320 442q0 -155 86 -248t228 -93q113 0 207 70t148 189.5t54 262.5q0 164 -82.5 259
t-225.5 95q-183 0 -299 -150.5t-116 -384.5z" />
    <glyph glyph-name="Racute" unicode="&#x154;" horiz-adv-x="1311" 
d="M788 1577l372 297h175l-388 -297h-159zM143 0l309 1443h474q194 0 307.5 -100.5t113.5 -273.5t-110 -298t-293 -159l220 -612h-150l-206 591h-12h-386l-127 -591h-140zM565 1321l-130 -607h376q174 0 283 95t109 247q0 124 -75 194.5t-207 70.5h-356z" />
    <glyph glyph-name="racute" unicode="&#x155;" horiz-adv-x="774" 
d="M549 1267l320 327h169l-339 -327h-150zM121 0l229 1077h127l-34 -157h13q108 175 300 175q87 0 133 -18l-28 -126q-59 17 -138 17q-127 0 -213 -81t-118 -232l-139 -655h-132z" />
    <glyph glyph-name="Rcommaaccent" unicode="&#x156;" horiz-adv-x="1311" 
d="M143 0l309 1443h474q194 0 307.5 -100.5t113.5 -273.5t-110 -298t-293 -159l220 -612h-150l-206 591h-12h-386l-127 -591h-140zM565 1321l-130 -607h376q174 0 283 95t109 247q0 124 -75 194.5t-207 70.5h-356zM513 -506h-127l179 364h141z" />
    <glyph glyph-name="rcommaaccent" unicode="&#x157;" horiz-adv-x="774" 
d="M121 0l229 1077h127l-34 -157h13q108 175 300 175q87 0 133 -18l-28 -126q-59 17 -138 17q-127 0 -213 -81t-118 -232l-139 -655h-132zM68 -506h-127l179 364h141z" />
    <glyph glyph-name="Rcaron" unicode="&#x158;" horiz-adv-x="1311" 
d="M143 0l309 1443h474q194 0 307.5 -100.5t113.5 -273.5t-110 -298t-293 -159l220 -612h-150l-206 591h-12h-386l-127 -591h-140zM565 1321l-130 -607h376q174 0 283 95t109 247q0 124 -75 194.5t-207 70.5h-356zM797 1577l-189 297h142l126 -208h12l214 208h161l-316 -297
h-150z" />
    <glyph glyph-name="rcaron" unicode="&#x159;" horiz-adv-x="774" 
d="M710 1228h-153l-205 332h143l141 -243h12l245 243h163zM121 0l229 1077h127l-34 -157h13q108 175 300 175q87 0 133 -18l-28 -126q-59 17 -138 17q-127 0 -213 -81t-118 -232l-139 -655h-132z" />
    <glyph glyph-name="Sacute" unicode="&#x15a;" horiz-adv-x="1267" 
d="M830 1577l372 297h175l-388 -297h-159zM142 392h138q19 -134 130.5 -215.5t275.5 -81.5q165 0 266.5 79.5t101.5 208.5q0 93 -62 159t-201 115l-136 48q-157 55 -238 148.5t-81 216.5q0 174 140.5 288.5t353.5 114.5q202 0 341.5 -112t155.5 -286h-137
q-23 124 -123.5 198.5t-245.5 74.5q-148 0 -244.5 -75.5t-96.5 -191.5q0 -86 61.5 -149t195.5 -111l132 -47q329 -118 329 -376q0 -190 -145.5 -309t-377.5 -119q-222 0 -367 115t-166 307z" />
    <glyph glyph-name="sacute" unicode="&#x15b;" horiz-adv-x="1050" 
d="M126 281h135q19 -84 96 -135.5t189 -51.5q121 0 199.5 55t78.5 141q0 59 -39.5 101.5t-131.5 73.5l-143 48q-127 43 -187.5 108.5t-60.5 164.5q0 136 111.5 222.5t280.5 86.5q161 0 266.5 -78t123.5 -206h-130q-15 77 -87.5 124.5t-176.5 47.5q-110 0 -182.5 -53
t-72.5 -132q0 -57 42.5 -98.5t131.5 -71.5l129 -43q137 -47 199 -114.5t62 -171.5q0 -138 -119 -227.5t-300 -89.5q-173 0 -288 83t-126 216zM624 1267l320 327h169l-339 -327h-150z" />
    <glyph glyph-name="Scircumflex" unicode="&#x15c;" horiz-adv-x="1267" 
d="M142 392h138q19 -134 130.5 -215.5t275.5 -81.5q165 0 266.5 79.5t101.5 208.5q0 93 -62 159t-201 115l-136 48q-157 55 -238 148.5t-81 216.5q0 174 140.5 288.5t353.5 114.5q202 0 341.5 -112t155.5 -286h-137q-23 124 -123.5 198.5t-245.5 74.5q-148 0 -244.5 -75.5
t-96.5 -191.5q0 -86 61.5 -149t195.5 -111l132 -47q329 -118 329 -376q0 -190 -145.5 -309t-377.5 -119q-222 0 -367 115t-166 307zM1036 1874l189 -297h-142l-127 208h-11l-215 -208h-160l316 297h150z" />
    <glyph glyph-name="scircumflex" unicode="&#x15d;" horiz-adv-x="1050" 
d="M837 1560l204 -332h-143l-142 243h-12l-244 -243h-163l346 332h154zM126 281h135q19 -84 96 -135.5t189 -51.5q121 0 199.5 55t78.5 141q0 59 -39.5 101.5t-131.5 73.5l-143 48q-127 43 -187.5 108.5t-60.5 164.5q0 136 111.5 222.5t280.5 86.5q161 0 266.5 -78
t123.5 -206h-130q-15 77 -87.5 124.5t-176.5 47.5q-110 0 -182.5 -53t-72.5 -132q0 -57 42.5 -98.5t131.5 -71.5l129 -43q137 -47 199 -114.5t62 -171.5q0 -138 -119 -227.5t-300 -89.5q-173 0 -288 83t-126 216z" />
    <glyph glyph-name="Scedilla" unicode="&#x15e;" horiz-adv-x="1267" 
d="M737 821l132 -47q329 -118 329 -376q0 -183 -137 -301.5t-358 -126.5l-70 -109q88 -9 133.5 -48.5t45.5 -106.5q0 -82 -65.5 -134t-166.5 -52q-96 0 -172 37l18 87q66 -32 151 -32q54 0 87.5 23.5t33.5 63.5q0 39 -35.5 62t-101.5 25l-51 1l11 72l74 115
q-191 21 -312.5 133t-140.5 285h138q19 -134 130.5 -215.5t275.5 -81.5q165 0 266.5 79.5t101.5 208.5q0 93 -62 159t-201 115l-136 48q-157 55 -238 148.5t-81 216.5q0 174 140.5 288.5t353.5 114.5q202 0 341.5 -112t155.5 -286h-137q-23 124 -123.5 198.5t-245.5 74.5
q-148 0 -244.5 -75.5t-96.5 -191.5q0 -86 61.5 -149t195.5 -111z" />
    <glyph glyph-name="scedilla" unicode="&#x15f;" horiz-adv-x="1050" 
d="M569 628l129 -43q137 -47 199 -114.5t62 -171.5q0 -131 -108.5 -219.5t-277.5 -96.5l-78 -122q88 -9 133.5 -48.5t45.5 -106.5q0 -82 -65.5 -134t-166.5 -52q-96 0 -172 37l18 87q66 -32 151 -32q54 0 87.5 23.5t33.5 63.5q0 39 -35.5 62t-101.5 25l-51 1l11 72l82 128
q-145 17 -237 97t-102 197h135q19 -84 96 -135.5t189 -51.5q121 0 199.5 55t78.5 141q0 59 -39.5 101.5t-131.5 73.5l-143 48q-127 43 -187.5 108.5t-60.5 164.5q0 136 111.5 222.5t280.5 86.5q161 0 266.5 -78t123.5 -206h-130q-15 77 -87.5 124.5t-176.5 47.5
q-110 0 -182.5 -53t-72.5 -132q0 -57 42.5 -98.5t131.5 -71.5z" />
    <glyph glyph-name="Scaron" unicode="&#x160;" horiz-adv-x="1267" 
d="M142 392h138q19 -134 130.5 -215.5t275.5 -81.5q165 0 266.5 79.5t101.5 208.5q0 93 -62 159t-201 115l-136 48q-157 55 -238 148.5t-81 216.5q0 174 140.5 288.5t353.5 114.5q202 0 341.5 -112t155.5 -286h-137q-23 124 -123.5 198.5t-245.5 74.5q-148 0 -244.5 -75.5
t-96.5 -191.5q0 -86 61.5 -149t195.5 -111l132 -47q329 -118 329 -376q0 -190 -145.5 -309t-377.5 -119q-222 0 -367 115t-166 307zM839 1577l-189 297h142l126 -208h12l214 208h161l-316 -297h-150z" />
    <glyph glyph-name="scaron" unicode="&#x161;" horiz-adv-x="1050" 
d="M785 1228h-153l-205 332h143l141 -243h12l245 243h163zM126 281h135q19 -84 96 -135.5t189 -51.5q121 0 199.5 55t78.5 141q0 59 -39.5 101.5t-131.5 73.5l-143 48q-127 43 -187.5 108.5t-60.5 164.5q0 136 111.5 222.5t280.5 86.5q161 0 266.5 -78t123.5 -206h-130
q-15 77 -87.5 124.5t-176.5 47.5q-110 0 -182.5 -53t-72.5 -132q0 -57 42.5 -98.5t131.5 -71.5l129 -43q137 -47 199 -114.5t62 -171.5q0 -138 -119 -227.5t-300 -89.5q-173 0 -288 83t-126 216z" />
    <glyph glyph-name="Tcedilla" unicode="&#x162;" horiz-adv-x="1280" 
d="M351 1443h1104l-26 -124h-482l-281 -1319h-17l-89 -139q88 -9 133.5 -48.5t45.5 -106.5q0 -82 -65.5 -134t-166.5 -52q-96 0 -172 37l18 87q66 -32 151 -32q54 0 87.5 23.5t33.5 63.5q0 39 -35.5 62t-101.5 25l-51 1l11 72l90 141h-11l280 1319h-482z" />
    <glyph glyph-name="tcedilla" unicode="&#x163;" horiz-adv-x="724" 
d="M532 966l-137 -642q-11 -57 -11 -91q0 -123 149 -123q55 0 79 3l-24 -112q-28 -7 -100 -7q-30 0 -62 5l-88 -138q88 -9 133.5 -48.5t45.5 -106.5q0 -82 -65.5 -134t-166.5 -52q-96 0 -172 37l18 87q66 -32 151 -32q54 0 87.5 23.5t33.5 63.5q0 39 -35.5 62t-101.5 25
l-51 1l11 72l109 170q-91 53 -91 167q0 45 11 93l144 677h-180l23 111h181l58 280h134l-60 -280h254l-25 -111h-252z" />
    <glyph glyph-name="Tcaron" unicode="&#x164;" horiz-adv-x="1280" 
d="M870 1577l-189 297h142l126 -208h12l214 208h161l-316 -297h-150zM666 0h-139l280 1319h-482l26 124h1104l-26 -124h-482z" />
    <glyph glyph-name="tcaron" unicode="&#x165;" horiz-adv-x="724" 
d="M823 1233h-92l94 444h130zM488 -6q-112 0 -178 52t-66 150q0 45 11 93l144 677h-180l23 111h181l58 280h134l-60 -280h254l-25 -111h-252l-137 -642q-11 -57 -11 -91q0 -123 149 -123q55 0 79 3l-24 -112q-28 -7 -100 -7z" />
    <glyph glyph-name="Tbar" unicode="&#x166;" horiz-adv-x="1280" 
d="M1429 1319h-482l-113 -531h304l-23 -110h-305l-144 -678h-139l144 678h-300l24 110h299l113 531h-482l26 124h1104z" />
    <glyph glyph-name="tbar" unicode="&#x167;" horiz-adv-x="705" 
d="M784 966h-252l-67 -316h243l-24 -111h-243l-46 -215q-11 -57 -11 -91q0 -123 149 -123q55 0 79 3l-24 -112q-28 -7 -100 -7q-112 0 -178 52t-66 150q0 45 11 93l53 250h-174l24 111h174l67 316h-180l23 111h181l58 280h134l-60 -280h254z" />
    <glyph glyph-name="Utilde" unicode="&#x168;" horiz-adv-x="1499" 
d="M747 -26q-232 0 -363 122.5t-133 317.5q-1 60 13 132l189 897h140l-188 -890q-15 -66 -13 -132q3 -152 101 -236.5t276 -84.5q174 0 300 103.5t165 283.5l204 956h140l-210 -981q-50 -233 -209.5 -360.5t-411.5 -127.5zM1215 1578q-43 0 -79.5 16.5t-62 40.5t-47.5 48
t-46.5 40.5t-49.5 16.5q-46 0 -78 -33t-45 -94h-110q18 107 83.5 169t152.5 62q42 0 78 -16.5t61.5 -40t47.5 -47.5t47 -40.5t50 -16.5q94 0 122 126h110q-19 -108 -83.5 -169.5t-150.5 -61.5z" />
    <glyph glyph-name="utilde" unicode="&#x169;" horiz-adv-x="1196" 
d="M1218 1077l-229 -1077h-127l38 173h-12q-54 -87 -145.5 -139t-212.5 -52q-149 0 -241 89.5t-92 226.5q0 64 14 129l137 650h134l-134 -629q-14 -68 -14 -118q0 -111 62.5 -170t181.5 -59q139 0 238.5 90.5t128.5 231.5l140 654h133zM986 1216q-46 0 -83 19t-60.5 46.5
t-44.5 55t-45.5 46.5t-52.5 19q-93 0 -122 -142h-110q15 116 80 181.5t157 65.5q45 0 81.5 -19.5t60 -46.5t44.5 -54.5t46 -47t53 -19.5q93 0 121 142h110q-16 -117 -80 -181.5t-155 -64.5z" />
    <glyph glyph-name="Umacron" unicode="&#x16a;" horiz-adv-x="1499" 
d="M747 -26q-232 0 -363 122.5t-133 317.5q-1 60 13 132l189 897h140l-188 -890q-15 -66 -13 -132q3 -152 101 -236.5t276 -84.5q174 0 300 103.5t165 283.5l204 956h140l-210 -981q-50 -233 -209.5 -360.5t-411.5 -127.5zM1375 1619h-645l23 105h644z" />
    <glyph glyph-name="umacron" unicode="&#x16b;" horiz-adv-x="1196" 
d="M1218 1077l-229 -1077h-127l38 173h-12q-54 -87 -145.5 -139t-212.5 -52q-149 0 -241 89.5t-92 226.5q0 64 14 129l137 650h134l-134 -629q-14 -68 -14 -118q0 -111 62.5 -170t181.5 -59q139 0 238.5 90.5t128.5 231.5l140 654h133zM1148 1292h-662l22 106h663z" />
    <glyph glyph-name="Ubreve" unicode="&#x16c;" horiz-adv-x="1499" 
d="M747 -26q-232 0 -363 122.5t-133 317.5q-1 60 13 132l189 897h140l-188 -890q-15 -66 -13 -132q3 -152 101 -236.5t276 -84.5q174 0 300 103.5t165 283.5l204 956h140l-210 -981q-50 -233 -209.5 -360.5t-411.5 -127.5zM743 1837q0 11 1 14h116q-1 -5 -1 -15
q0 -69 56 -114t143 -45q86 0 144.5 47t74.5 127h119q-19 -125 -113.5 -199.5t-228.5 -74.5q-139 0 -225 72t-86 188z" />
    <glyph glyph-name="ubreve" unicode="&#x16d;" horiz-adv-x="1196" 
d="M1218 1077l-229 -1077h-127l38 173h-12q-54 -87 -145.5 -139t-212.5 -52q-149 0 -241 89.5t-92 226.5q0 64 14 129l137 650h134l-134 -629q-14 -68 -14 -118q0 -111 62.5 -170t181.5 -59q139 0 238.5 90.5t128.5 231.5l140 654h133zM516 1538h117q-2 -18 -2 -31
q0 -77 54 -121.5t146 -44.5q98 0 158.5 51.5t72.5 145.5h120q-12 -134 -109 -216t-248 -82q-145 0 -228 72t-83 187q0 11 2 39z" />
    <glyph glyph-name="Uring" unicode="&#x16e;" horiz-adv-x="1499" 
d="M1082 1563q-76 0 -129.5 53t-53.5 129t53.5 128.5t129.5 52.5q77 0 130 -52.5t53 -128.5t-53 -129t-130 -53zM1082 1635q46 0 77.5 31.5t31.5 78.5t-31.5 78t-77.5 31t-77.5 -31t-31.5 -78t31.5 -78.5t77.5 -31.5zM747 -26q-232 0 -363 122.5t-133 317.5q-1 60 13 132
l189 897h140l-188 -890q-15 -66 -13 -132q3 -152 101 -236.5t276 -84.5q174 0 300 103.5t165 283.5l204 956h140l-210 -981q-50 -233 -209.5 -360.5t-411.5 -127.5z" />
    <glyph glyph-name="uring" unicode="&#x16f;" horiz-adv-x="1196" 
d="M1218 1077l-229 -1077h-127l38 173h-12q-54 -87 -145.5 -139t-212.5 -52q-149 0 -241 89.5t-92 226.5q0 64 14 129l137 650h134l-134 -629q-14 -68 -14 -118q0 -111 62.5 -170t181.5 -59q139 0 238.5 90.5t128.5 231.5l140 654h133zM848 1228q-88 0 -150 61t-62 150
q0 88 62 149t150 61q89 0 151 -61t62 -149q0 -89 -62 -150t-151 -61zM848 1313q53 0 89 36.5t36 89.5t-36 89t-89 36t-88.5 -36t-35.5 -89t36 -89.5t88 -36.5z" />
    <glyph glyph-name="Uhungarumlaut" unicode="&#x170;" horiz-adv-x="1499" 
d="M747 -26q-232 0 -363 122.5t-133 317.5q-1 60 13 132l189 897h140l-188 -890q-15 -66 -13 -132q3 -152 101 -236.5t276 -84.5q174 0 300 103.5t165 283.5l204 956h140l-210 -981q-50 -233 -209.5 -360.5t-411.5 -127.5zM1136 1577l372 297h175l-388 -297h-159zM773 1577
l372 297h175l-389 -297h-158z" />
    <glyph glyph-name="uhungarumlaut" unicode="&#x171;" horiz-adv-x="1196" 
d="M909 1264l320 330h162l-341 -330h-141zM557 1264l321 330h161l-341 -330h-141zM1218 1077l-229 -1077h-127l38 173h-12q-54 -87 -145.5 -139t-212.5 -52q-149 0 -241 89.5t-92 226.5q0 64 14 129l137 650h134l-134 -629q-14 -68 -14 -118q0 -111 62.5 -170t181.5 -59
q139 0 238.5 90.5t128.5 231.5l140 654h133z" />
    <glyph glyph-name="Uogonek" unicode="&#x172;" horiz-adv-x="1499" 
d="M899 -416q-97 0 -159.5 50.5t-62.5 128.5q0 62 46 119t121 92l4 16q-43 -16 -101 -16q-233 0 -364.5 122.5t-131.5 318.5q0 65 13 131l189 897h140l-188 -890q-14 -64 -14 -124q0 -156 97.5 -242.5t280.5 -86.5q176 0 301.5 104t163.5 283l204 956h140l-210 -981
q-32 -148 -112.5 -256t-201.5 -169q-117 -59 -179.5 -123t-62.5 -122q0 -46 36.5 -72.5t98.5 -26.5q25 0 39 3l-22 -103q-32 -9 -65 -9z" />
    <glyph glyph-name="uogonek" unicode="&#x173;" horiz-adv-x="1196" 
d="M866 15l34 158h-12q-54 -87 -145.5 -139t-212.5 -52q-149 0 -241 89.5t-92 226.5q0 64 14 129l137 650h134l-134 -629q-14 -68 -14 -118q0 -111 62.5 -170t181.5 -59q139 0 238.5 90.5t128.5 231.5l140 654h133l-231 -1084l-5 -2q-109 -35 -172.5 -85.5t-63.5 -114.5
q0 -46 36.5 -72t99.5 -26q26 0 39 3l-22 -103q-36 -9 -66 -9q-97 0 -159 50t-62 129q0 84 66.5 149t187.5 103z" />
    <glyph glyph-name="Wcircumflex" unicode="&#x174;" horiz-adv-x="1958" 
d="M1411 1874l189 -297h-142l-127 208h-11l-215 -208h-160l316 297h150zM1185 1206l-600 -1206h-133l-91 1443h126l69 -1230h9l609 1230h122l100 -1230h10l581 1230h141l-698 -1443h-133l-103 1206h-9z" />
    <glyph glyph-name="wcircumflex" unicode="&#x175;" horiz-adv-x="1567" 
d="M1137 1560l204 -332h-143l-142 243h-12l-244 -243h-163l346 332h154zM1688 1077l-536 -1077h-139l-80 890h-12l-451 -890h-138l-78 1077h122l59 -908h12l451 908h139l71 -914h12l434 914h134z" />
    <glyph glyph-name="Ycircumflex" unicode="&#x176;" horiz-adv-x="1321" 
d="M690 0h-140l133 624l-342 819h143l289 -685h12l568 685h159l-695 -837zM1093 1874l189 -297h-142l-127 208h-11l-215 -208h-160l316 297h150z" />
    <glyph glyph-name="ycircumflex" unicode="&#x177;" horiz-adv-x="1079" 
d="M161 -382q-54 0 -103 13l23 110q42 -11 88 -11q61 0 111 42.5t107 145.5l46 81l-179 1078h131l143 -913h12l515 913h145l-696 -1202q-86 -148 -161.5 -202.5t-181.5 -54.5zM897 1560l204 -332h-143l-142 243h-12l-244 -243h-163l346 332h154z" />
    <glyph glyph-name="Ydieresis" unicode="&#x178;" horiz-adv-x="1321" 
d="M690 0h-140l133 624l-342 819h143l289 -685h12l568 685h159l-695 -837zM791 1568q-42 0 -72 29.5t-30 72.5t30 72.5t72 29.5q43 0 73 -29.5t30 -72.5t-30 -72.5t-73 -29.5zM1155 1568q-43 0 -72.5 29.5t-29.5 72.5t29.5 72.5t72.5 29.5q42 0 72 -29.5t30 -72.5t-30 -72.5
t-72 -29.5z" />
    <glyph glyph-name="Zacute" unicode="&#x179;" horiz-adv-x="1328" 
d="M878 1577l372 297h175l-388 -297h-159zM97 0l21 99l1111 1208l3 13h-826l26 123h1011l-21 -100l-1109 -1207l-2 -13h863l-26 -123h-1051z" />
    <glyph glyph-name="zacute" unicode="&#x17a;" horiz-adv-x="1082" 
d="M687 1267l320 327h169l-339 -327h-150zM90 0l21 100l822 854l3 12h-639l24 111h816l-23 -101l-818 -853l-3 -12h640l-24 -111h-819z" />
    <glyph glyph-name="Zdotaccent" unicode="&#x17b;" horiz-adv-x="1328" 
d="M977 1577q-44 0 -74.5 30.5t-30.5 73.5t31 74t74 31t73.5 -31t30.5 -74t-30.5 -73.5t-73.5 -30.5zM97 0l21 99l1111 1208l3 13h-826l26 123h1011l-21 -100l-1109 -1207l-2 -13h863l-26 -123h-1051z" />
    <glyph glyph-name="zdotaccent" unicode="&#x17c;" horiz-adv-x="1082" 
d="M796 1280q-45 0 -77 32.5t-32 77.5t32 77t77 32t77.5 -32t32.5 -77t-32.5 -77.5t-77.5 -32.5zM90 0l21 100l822 854l3 12h-639l24 111h816l-23 -101l-818 -853l-3 -12h640l-24 -111h-819z" />
    <glyph glyph-name="Zcaron" unicode="&#x17d;" horiz-adv-x="1328" 
d="M97 0l21 99l1111 1208l3 13h-826l26 123h1011l-21 -100l-1109 -1207l-2 -13h863l-26 -123h-1051zM887 1577l-189 297h142l126 -208h12l214 208h161l-316 -297h-150z" />
    <glyph glyph-name="zcaron" unicode="&#x17e;" horiz-adv-x="1082" 
d="M848 1228h-153l-205 332h143l141 -243h12l245 243h163zM90 0l21 100l822 854l3 12h-639l24 111h816l-23 -101l-818 -853l-3 -12h640l-24 -111h-819z" />
    <glyph glyph-name="florin" unicode="&#x192;" horiz-adv-x="1321" 
d="M267 -18q-81 0 -211 42l29 121q97 -41 193 -41q103 0 169 50t108 164l160 427h-364l23 111h381l104 275q126 338 431 338q111 0 206 -37l-27 -115q-82 32 -186 32q-110 0 -180.5 -56.5t-113.5 -171.5l-101 -265h393l-23 -111h-410l-164 -438q-63 -170 -163 -247.5
t-254 -77.5z" />
    <glyph glyph-name="Ohorn" unicode="&#x1a0;" horiz-adv-x="1574" 
d="M1562 869q0 -254 -99 -460t-273.5 -322.5t-390.5 -116.5q-253 0 -414 169.5t-161 434.5q0 189 58.5 356t160 286t244 188t303.5 69q56 0 175 -16.5t230 -16.5q83 0 123.5 26.5t52.5 84.5l25 122h124l-32 -147q-37 -179 -243 -179q-40 0 -103 7l-4 -7q106 -71 165 -197
t59 -281zM1419 858q0 220 -120.5 354t-318.5 134q-171 0 -311.5 -100t-220.5 -274.5t-80 -386.5q0 -220 121 -354t320 -134q172 0 311.5 99t219 273.5t79.5 388.5z" />
    <glyph glyph-name="ohorn" unicode="&#x1a1;" horiz-adv-x="1259" 
d="M1183 651q0 -190 -73 -343t-202.5 -239.5t-289.5 -86.5q-196 0 -316.5 123t-120.5 323q0 191 72.5 343.5t202 238t291.5 85.5q49 0 144 -11t140 -11q74 0 108.5 25t48.5 86l29 135h123l-34 -160q-19 -87 -72 -133t-135 -46q-40 0 -52 6l-4 -7q65 -49 102.5 -137.5
t37.5 -190.5zM320 442q0 -155 86 -248t228 -93q112 0 206 69.5t148.5 189.5t54.5 263q0 164 -82.5 259t-225.5 95q-182 0 -298.5 -150t-116.5 -385z" />
    <glyph glyph-name="Uhorn" unicode="&#x1af;" horiz-adv-x="1642" 
d="M747 -26q-233 0 -364.5 122.5t-131.5 316.5q0 69 13 133l189 897h140l-188 -890q-14 -63 -14 -132q0 -151 100 -236t278 -85q174 0 300 103.5t165 283.5l204 956h153q65 0 97 24t42 74l28 132h123l-33 -156q-18 -83 -75 -126.5t-144 -43.5h-72l-189 -885
q-49 -233 -209 -360.5t-412 -127.5z" />
    <glyph glyph-name="uhorn" unicode="&#x1b0;" horiz-adv-x="1355" 
d="M888 173q-54 -87 -145.5 -139t-212.5 -52q-149 0 -241 89.5t-92 226.5q0 66 14 131l137 648h134l-134 -629q-14 -68 -14 -118q0 -111 62.5 -170t181.5 -59q139 0 238.5 90t128.5 230l140 656h137q65 0 97 23t42 71l31 148h123l-37 -172q-18 -83 -75 -126.5t-143 -43.5
h-63l-208 -977h-127l38 173h-12z" />
    <glyph glyph-name="u01C4" unicode="&#x1c4;" horiz-adv-x="2799" 
d="M450 1443h413q286 0 447 -162t161 -445q0 -177 -59.5 -332.5t-163 -266t-247.5 -174t-308 -63.5h-548zM564 1321l-255 -1199h390q179 0 323.5 91.5t226.5 253.5t82 362q0 230 -127.5 361t-351.5 131h-288zM1568 0l21 99l1111 1208l3 13h-826l26 123h1011l-21 -100
l-1109 -1207l-2 -13h863l-26 -123h-1051zM2358 1577l-189 297h142l126 -208h12l214 208h161l-316 -297h-150z" />
    <glyph glyph-name="u01C5" unicode="&#x1c5;" horiz-adv-x="2553" 
d="M450 1443h413q286 0 447 -162t161 -445q0 -177 -59.5 -332.5t-163 -266t-247.5 -174t-308 -63.5h-548zM564 1321l-255 -1199h390q179 0 323.5 91.5t226.5 253.5t82 362q0 230 -127.5 361t-351.5 131h-288zM2319 1228h-153l-205 332h143l141 -243h12l245 243h163zM1561 0
l21 100l822 854l3 12h-639l24 111h816l-23 -101l-818 -853l-3 -12h640l-24 -111h-819z" />
    <glyph glyph-name="u01C6" unicode="&#x1c6;" horiz-adv-x="2337" 
d="M569 -18q-167 0 -279 120.5t-112 313.5q0 188 75 344.5t203 245.5t280 89q130 0 224.5 -72.5t118.5 -188.5h12l142 672h134l-320 -1506h-127l39 185h-13q-63 -94 -163.5 -148.5t-213.5 -54.5zM609 101q122 0 222 74t156 199t56 273q0 151 -81 240.5t-218 89.5
q-87 0 -166.5 -42t-137 -114t-91.5 -172.5t-34 -212.5q0 -150 81 -242.5t213 -92.5zM2104 1228h-153l-205 332h143l141 -243h12l245 243h163zM1346 0l21 100l822 854l3 12h-639l24 111h816l-23 -101l-818 -853l-3 -12h640l-24 -111h-819z" />
    <glyph glyph-name="u01C7" unicode="&#x1c7;" horiz-adv-x="2227" 
d="M1263 330h137v-6q1 -103 70 -164.5t182 -61.5q116 0 191.5 73.5t106.5 216.5l224 1055h136l-231 -1090q-39 -183 -153 -283t-290 -100q-169 0 -275 100.5t-98 252.5v7zM1029 124l-26 -124h-860l307 1443h140l-282 -1319h721z" />
    <glyph glyph-name="u01C8" unicode="&#x1c8;" horiz-adv-x="1627" 
d="M1638 1077l-249 -1170q-30 -143 -108 -208.5t-212 -65.5q-46 0 -73 5l27 117q23 -5 50 -5q81 0 125 40t63 134l246 1153h131zM1640 1317q-40 0 -68.5 29t-28.5 69t28.5 68.5t68.5 28.5t69 -28.5t29 -68.5q0 -41 -29 -69.5t-69 -28.5zM1029 124l-26 -124h-860l307 1443
h140l-282 -1319h721z" />
    <glyph glyph-name="u01C9" unicode="&#x1c9;" horiz-adv-x="977" 
d="M988 1077l-249 -1170q-30 -143 -108 -208.5t-212 -65.5q-46 0 -73 5l27 117q23 -5 50 -5q81 0 125 40t63 134l246 1153h131zM990 1317q-40 0 -68.5 29t-28.5 69t28.5 68.5t68.5 28.5t69 -28.5t29 -68.5q0 -41 -29 -69.5t-69 -28.5zM136 0l320 1506h134l-320 -1506h-134z
" />
    <glyph glyph-name="u01CA" unicode="&#x1ca;" horiz-adv-x="2582" 
d="M1618 330h137v-6q1 -103 70 -164.5t182 -61.5q116 0 191.5 73.5t106.5 216.5l224 1055h136l-231 -1090q-39 -183 -153 -283t-290 -100q-169 0 -275 100.5t-98 252.5v7zM281 0h-138l307 1443h135l579 -1218h12l259 1218h138l-307 -1443h-133l-581 1220h-12z" />
    <glyph glyph-name="u01CB" unicode="&#x1cb;" horiz-adv-x="1983" 
d="M1993 1077l-249 -1170q-30 -143 -108 -208.5t-212 -65.5q-46 0 -73 5l27 117q23 -5 50 -5q81 0 125 40t63 134l246 1153h131zM1995 1317q-40 0 -68.5 29t-28.5 69t28.5 68.5t68.5 28.5t69 -28.5t29 -68.5q0 -41 -28.5 -69.5t-69.5 -28.5zM281 0h-138l307 1443h135
l579 -1218h12l259 1218h138l-307 -1443h-133l-581 1220h-12z" />
    <glyph glyph-name="u01CC" unicode="&#x1cc;" horiz-adv-x="1683" 
d="M1693 1077l-249 -1170q-30 -143 -108 -208.5t-212 -65.5q-46 0 -73 5l27 117q23 -5 50 -5q81 0 125 40t63 134l246 1153h131zM1695 1317q-40 0 -68.5 29t-28.5 69t28.5 68.5t68.5 28.5t69 -28.5t29 -68.5q0 -41 -28.5 -69.5t-69.5 -28.5zM126 0l229 1077h128l-39 -183h12
q131 201 353 201q153 0 246 -93.5t93 -229.5q0 -58 -13 -119l-139 -653h-133l134 630q13 63 13 107q0 108 -67 174t-186 66q-134 0 -231 -89t-126 -226l-141 -662h-133z" />
    <glyph glyph-name="Acaron" unicode="&#x1cd;" horiz-adv-x="1363" 
d="M1112 0l-67 443h-608l-254 -443h-149l851 1443h128l233 -1443h-134zM907 1262l-404 -702h527l-110 702h-13zM910 1577l-189 297h142l126 -208h12l214 208h161l-316 -297h-150z" />
    <glyph glyph-name="acaron" unicode="&#x1ce;" horiz-adv-x="1126" 
d="M501 97q135 0 240.5 80.5t131.5 202.5l32 149l-321 -17q-152 -8 -235 -67.5t-83 -158.5q0 -83 65.5 -136t169.5 -53zM462 -18q-142 0 -236.5 83t-94.5 208q0 156 119.5 246.5t340.5 100.5l337 16l17 81q8 42 8 64q0 92 -67.5 144t-187.5 52q-106 0 -181 -45t-100 -122
h-139q33 130 150.5 207.5t280.5 77.5q171 0 274 -80.5t103 -216.5q0 -39 -10 -89l-150 -709h-128l35 165h-12q-57 -84 -153.5 -133.5t-205.5 -49.5zM838 1228h-153l-205 332h143l141 -243h12l245 243h163z" />
    <glyph glyph-name="Icaron" unicode="&#x1cf;" horiz-adv-x="509" 
d="M283 0h-140l307 1443h140zM482 1577l-189 297h142l126 -208h12l214 208h161l-316 -297h-150z" />
    <glyph glyph-name="icaron" unicode="&#x1d0;" horiz-adv-x="489" 
d="M551 1228h-153l-205 332h143l141 -243h12l245 243h163zM138 0l229 1077h131l-229 -1077h-131z" />
    <glyph glyph-name="Ocaron" unicode="&#x1d1;" horiz-adv-x="1564" 
d="M946 1576l-189 297h142l126 -208h12l214 208h161l-316 -297h-150zM799 -30q-253 0 -414 169.5t-161 434.5q0 189 58.5 356t160 286t244 188t303.5 69q252 0 412 -169t160 -435q0 -254 -99 -460t-273.5 -322.5t-390.5 -116.5zM1419 858q0 220 -120.5 354t-318.5 134
q-171 0 -311.5 -100t-220.5 -274.5t-80 -386.5q0 -220 121 -354t320 -134q172 0 311.5 99t219 273.5t79.5 388.5z" />
    <glyph glyph-name="ocaron" unicode="&#x1d2;" horiz-adv-x="1216" 
d="M863 1228h-153l-205 332h143l141 -243h12l245 243h163zM320 442q0 -155 86 -248t228 -93q112 0 206 69.5t148.5 189.5t54.5 263q0 164 -82.5 259t-225.5 95q-182 0 -298.5 -150t-116.5 -385zM618 -18q-196 0 -316.5 123t-120.5 323q0 191 72.5 343.5t202 238t291.5 85.5
q195 0 315.5 -122.5t120.5 -321.5q0 -190 -73 -343t-202.5 -239.5t-289.5 -86.5z" />
    <glyph glyph-name="Ucaron" unicode="&#x1d3;" horiz-adv-x="1499" 
d="M977 1577l-189 297h142l126 -208h12l214 208h161l-316 -297h-150zM747 -26q-232 0 -363 122.5t-133 317.5q-1 60 13 132l189 897h140l-188 -890q-15 -66 -13 -132q3 -152 101 -236.5t276 -84.5q174 0 300 103.5t165 283.5l204 956h140l-210 -981q-50 -233 -209.5 -360.5
t-411.5 -127.5z" />
    <glyph glyph-name="ucaron" unicode="&#x1d4;" horiz-adv-x="1196" 
d="M890 1228h-153l-205 332h143l141 -243h12l245 243h163zM1218 1077l-229 -1077h-127l38 173h-12q-54 -87 -145.5 -139t-212.5 -52q-149 0 -241 89.5t-92 226.5q0 64 14 129l137 650h134l-134 -629q-14 -68 -14 -118q0 -111 62.5 -170t181.5 -59q139 0 238.5 90.5
t128.5 231.5l140 654h133z" />
    <glyph glyph-name="Udieresismacron" unicode="&#x1d5;" horiz-adv-x="1499" 
d="M747 -26q-232 0 -363 122.5t-133 317.5q-1 60 13 132l189 897h140l-188 -890q-15 -66 -13 -132q3 -152 101 -236.5t276 -84.5q174 0 300 103.5t165 283.5l204 956h140l-210 -981q-50 -233 -209.5 -360.5t-411.5 -127.5zM793 1915l22 101h644l-22 -101h-644zM887 1580
q-41 0 -70.5 29t-29.5 70t29.5 70t70.5 29t70 -29t29 -70t-29 -70t-70 -29zM1250 1580q-41 0 -70 29t-29 70t29 70t70 29t70.5 -29t29.5 -70t-29.5 -70t-70.5 -29z" />
    <glyph glyph-name="udieresismacron" unicode="&#x1d6;" horiz-adv-x="1196" 
d="M1218 1077l-229 -1077h-127l38 173h-12q-54 -87 -145.5 -139t-212.5 -52q-149 0 -241 89.5t-92 226.5q0 64 14 129l137 650h134l-134 -629q-14 -68 -14 -118q0 -111 62.5 -170t181.5 -59q139 0 238.5 90.5t128.5 231.5l140 654h133zM645 1240q-41 0 -70.5 29t-29.5 70
q0 42 29 70.5t71 28.5q41 0 70 -28.5t29 -70.5q0 -41 -29 -70t-70 -29zM1009 1240q-42 0 -71 29t-29 70q0 42 29 70.5t71 28.5q41 0 70 -28.5t29 -70.5q0 -41 -29 -70t-70 -29zM1216 1614h-662l22 106h663z" />
    <glyph glyph-name="Udieresisacute" unicode="&#x1d7;" horiz-adv-x="1499" 
d="M995 1839l272 217h175l-308 -217h-139zM874 1568q-42 0 -72 29.5t-30 72.5t30 72.5t72 29.5q43 0 73 -29.5t30 -72.5t-30 -72.5t-73 -29.5zM1238 1568q-43 0 -72.5 29.5t-29.5 72.5t29.5 72.5t72.5 29.5q42 0 72 -29.5t30 -72.5t-30 -72.5t-72 -29.5zM747 -26
q-232 0 -363 122.5t-133 317.5q-1 60 13 132l189 897h140l-188 -890q-15 -66 -13 -132q3 -152 101 -236.5t276 -84.5q174 0 300 103.5t165 283.5l204 956h140l-210 -981q-50 -233 -209.5 -360.5t-411.5 -127.5z" />
    <glyph glyph-name="udieresisacute" unicode="&#x1d8;" horiz-adv-x="1196" 
d="M779 1554l270 296h155l-292 -296h-133zM644 1228q-42 0 -72 29.5t-30 72.5t30 72.5t72 29.5q43 0 73 -29.5t30 -72.5t-30 -72.5t-73 -29.5zM1008 1228q-43 0 -72.5 29.5t-29.5 72.5t29.5 72.5t72.5 29.5q42 0 72 -29.5t30 -72.5t-30 -72.5t-72 -29.5zM1218 1077
l-229 -1077h-127l38 173h-12q-54 -87 -145.5 -139t-212.5 -52q-149 0 -241 89.5t-92 226.5q0 64 14 129l137 650h134l-134 -629q-14 -68 -14 -118q0 -111 62.5 -170t181.5 -59q139 0 238.5 90.5t128.5 231.5l140 654h133z" />
    <glyph glyph-name="Udieresiscaron" unicode="&#x1d9;" horiz-adv-x="1499" 
d="M884 1580q-41 0 -70 29t-29 70t29 70t70 29t70 -29t29 -70t-29 -70t-70 -29zM1248 1580q-41 0 -70.5 29t-29.5 70t29.5 70t70.5 29t70 -29t29 -70t-29 -70t-70 -29zM1031 1832l-237 224h164l150 -146h12l212 146h181l-331 -224h-151zM747 -26q-232 0 -363 122.5
t-133 317.5q-1 60 13 132l189 897h140l-188 -890q-15 -66 -13 -132q3 -152 101 -236.5t276 -84.5q174 0 300 103.5t165 283.5l204 956h140l-210 -981q-50 -233 -209.5 -360.5t-411.5 -127.5z" />
    <glyph glyph-name="udieresiscaron" unicode="&#x1da;" horiz-adv-x="1196" 
d="M642 1228q-41 0 -70 29t-29 70q0 42 29 71t70 29t70.5 -29t29.5 -71q0 -41 -29.5 -70t-70.5 -29zM1006 1228q-41 0 -70 29t-29 70q0 42 29 71t70 29t70 -29t29 -71q0 -41 -29 -70t-70 -29zM767 1548l-199 306h142l137 -217h12l228 217h164l-329 -306h-155zM1218 1077
l-229 -1077h-127l38 173h-12q-54 -87 -145.5 -139t-212.5 -52q-149 0 -241 89.5t-92 226.5q0 64 14 129l137 650h134l-134 -629q-14 -68 -14 -118q0 -111 62.5 -170t181.5 -59q139 0 238.5 90.5t128.5 231.5l140 654h133z" />
    <glyph glyph-name="Udieresisgrave" unicode="&#x1db;" horiz-adv-x="1499" 
d="M1153 1839h-136l-221 217h172zM890 1568q-42 0 -72 29.5t-30 72.5t30 72.5t72 29.5q43 0 73 -29.5t30 -72.5t-30 -72.5t-73 -29.5zM1254 1568q-43 0 -72.5 29.5t-29.5 72.5t29.5 72.5t72.5 29.5q42 0 72 -29.5t30 -72.5t-30 -72.5t-72 -29.5zM747 -26q-232 0 -363 122.5
t-133 317.5q-1 60 13 132l189 897h140l-188 -890q-15 -66 -13 -132q3 -152 101 -236.5t276 -84.5q174 0 300 103.5t165 283.5l204 956h140l-210 -981q-50 -233 -209.5 -360.5t-411.5 -127.5z" />
    <glyph glyph-name="udieresisgrave" unicode="&#x1dc;" horiz-adv-x="1196" 
d="M911 1554h-130l-167 296h153zM643 1228q-42 0 -72 29.5t-30 72.5t30 72.5t72 29.5q43 0 73 -29.5t30 -72.5t-30 -72.5t-73 -29.5zM1007 1228q-43 0 -72.5 29.5t-29.5 72.5t29.5 72.5t72.5 29.5q42 0 72 -29.5t30 -72.5t-30 -72.5t-72 -29.5zM1218 1077l-229 -1077h-127
l38 173h-12q-54 -87 -145.5 -139t-212.5 -52q-149 0 -241 89.5t-92 226.5q0 64 14 129l137 650h134l-134 -629q-14 -68 -14 -118q0 -111 62.5 -170t181.5 -59q139 0 238.5 90.5t128.5 231.5l140 654h133z" />
    <glyph glyph-name="Adieresismacron" unicode="&#x1de;" horiz-adv-x="1363" 
d="M1112 0l-67 443h-608l-254 -443h-149l851 1443h128l233 -1443h-134zM907 1262l-404 -702h527l-110 702h-13zM726 1915l22 101h644l-22 -101h-644zM820 1580q-41 0 -70.5 29t-29.5 70t29.5 70t70.5 29t70 -29t29 -70t-29 -70t-70 -29zM1183 1580q-41 0 -70 29t-29 70
t29 70t70 29t70.5 -29t29.5 -70t-29.5 -70t-70.5 -29z" />
    <glyph glyph-name="adieresismacron" unicode="&#x1df;" horiz-adv-x="1126" 
d="M501 97q135 0 240.5 80.5t131.5 202.5l32 149l-321 -17q-152 -8 -235 -67.5t-83 -158.5q0 -83 65.5 -136t169.5 -53zM462 -18q-142 0 -236.5 83t-94.5 208q0 156 119.5 246.5t340.5 100.5l337 16l17 81q8 42 8 64q0 92 -67.5 144t-187.5 52q-106 0 -181 -45t-100 -122
h-139q33 130 150.5 207.5t280.5 77.5q171 0 274 -80.5t103 -216.5q0 -39 -10 -89l-150 -709h-128l35 165h-12q-57 -84 -153.5 -133.5t-205.5 -49.5zM593 1240q-41 0 -70.5 29t-29.5 70q0 42 29 70.5t71 28.5q41 0 70 -28.5t29 -70.5q0 -41 -29 -70t-70 -29zM957 1240
q-42 0 -71 29t-29 70q0 42 29 70.5t71 28.5q41 0 70 -28.5t29 -70.5q0 -41 -29 -70t-70 -29zM1164 1614h-662l22 106h663z" />
    <glyph glyph-name="Adotmacron" unicode="&#x1e0;" horiz-adv-x="1363" 
d="M1112 0l-67 443h-608l-254 -443h-149l851 1443h128l233 -1443h-134zM907 1262l-404 -702h527l-110 702h-13zM1370 1915h-644l22 101h644zM999 1578q-43 0 -73.5 30.5t-30.5 73.5t30.5 73.5t73.5 30.5t73.5 -30.5t30.5 -73.5t-30.5 -73.5t-73.5 -30.5z" />
    <glyph glyph-name="adotmacron" unicode="&#x1e1;" horiz-adv-x="1126" 
d="M501 97q135 0 240.5 80.5t131.5 202.5l32 149l-321 -17q-152 -8 -235 -67.5t-83 -158.5q0 -83 65.5 -136t169.5 -53zM462 -18q-142 0 -236.5 83t-94.5 208q0 156 119.5 246.5t340.5 100.5l337 16l17 81q8 42 8 64q0 92 -67.5 144t-187.5 52q-106 0 -181 -45t-100 -122
h-139q33 130 150.5 207.5t280.5 77.5q171 0 274 -80.5t103 -216.5q0 -39 -10 -89l-150 -709h-128l35 165h-12q-57 -84 -153.5 -133.5t-205.5 -49.5zM770 1228q-43 0 -72.5 30t-29.5 73t29.5 73t72.5 30q44 0 74 -30t30 -73t-30 -73t-74 -30zM1158 1585h-662l22 106h663z" />
    <glyph glyph-name="AEmacron" unicode="&#x1e2;" horiz-adv-x="1955" 
d="M1249 1327h-162l-528 -766h526zM966 0l95 443h-581l-303 -443h-144l984 1443h1068l-27 -124h-675l-111 -526h638l-26 -122h-639l-116 -547h675l-26 -124h-812zM1804 1619h-645l23 105h644z" />
    <glyph glyph-name="aemacron" unicode="&#x1e3;" horiz-adv-x="1904" 
d="M1323 -18q-140 0 -248.5 73.5t-145.5 197.5h-12q-56 -116 -178 -193.5t-263 -77.5q-152 0 -248.5 82.5t-96.5 208.5q0 155 118 243t341 98l336 17l19 86q8 42 8 64q0 92 -67.5 144t-187.5 52q-106 0 -181 -45t-100 -122h-139q33 130 150.5 207.5t280.5 77.5
q133 0 224 -54t122 -152h12q71 99 173 152.5t220 53.5q83 0 157 -30t129 -84t87 -135.5t32 -178.5q0 -81 -13 -151h-812q-5 -48 -5 -83q0 -162 87 -246.5t218 -84.5q226 0 309 162h140q-39 -126 -163 -204t-303 -78zM1059 623h667q3 18 3 58q0 127 -76.5 212.5t-204.5 85.5
q-137 0 -242 -97.5t-147 -258.5zM501 97q134 0 240 80.5t132 202.5l31 143l-321 -16q-153 -8 -235 -65.5t-82 -155.5q0 -83 65.5 -136t169.5 -53zM1476 1292h-662l22 106h663z" />
    <glyph glyph-name="Gcaron" unicode="&#x1e6;" horiz-adv-x="1506" 
d="M926 1577l-189 297h142l126 -208h12l214 208h161l-316 -297h-150zM1486 721l-39 -192q-56 -270 -225 -414.5t-427 -144.5t-413.5 165.5t-155.5 440.5q0 254 97 459.5t268 321.5t383 116q224 0 374.5 -124t160.5 -314q1 -7 1 -28h-138q-8 150 -120 244.5t-288 94.5
q-124 0 -234.5 -58.5t-190 -159t-125.5 -240.5t-46 -298q0 -230 119 -361.5t326 -131.5q186 0 320.5 115t171.5 307l16 81h-434l26 121h573z" />
    <glyph glyph-name="gcaron" unicode="&#x1e7;" horiz-adv-x="1247" 
d="M882 1228h-153l-205 332h143l141 -243h12l245 243h163zM526 -403q-174 0 -293 83t-131 203h139q15 -75 94.5 -123.5t202.5 -48.5q146 0 239.5 72t123.5 202l50 225h-12q-60 -97 -153.5 -148t-209.5 -51q-171 0 -282 119.5t-111 310.5q0 185 71.5 335t195.5 234.5
t276 84.5q129 0 226.5 -72.5t123.5 -187.5h12l50 233l127 -1l-238 -1107q-36 -171 -167.5 -267t-333.5 -96zM615 127q182 0 301 149t119 373q0 152 -82 240t-219 88q-117 0 -211.5 -66.5t-148.5 -185t-54 -265.5q0 -156 79 -244.5t216 -88.5z" />
    <glyph glyph-name="Kcaron" unicode="&#x1e8;" horiz-adv-x="1311" 
d="M280 0h-137l307 1443h136l-158 -743h12l833 743h180l-706 -631l458 -812h-159l-407 728l-250 -221zM845 1577l-189 297h142l126 -208h12l214 208h161l-316 -297h-150z" />
    <glyph glyph-name="kcaron" unicode="&#x1e9;" horiz-adv-x="1074" 
d="M407 594l616 483h177l-583 -464l378 -613h-154l-330 539l-152 -112l-90 -427h-133l320 1506h133l-194 -912h12zM447 1640l-189 297h142l126 -208h12l214 208h161l-316 -297h-150z" />
    <glyph glyph-name="Oogonek" unicode="&#x1ea;" horiz-adv-x="1564" 
d="M944 -416q-98 0 -160 50t-62 129q0 61 45.5 117t122.5 90l3 16q-46 -16 -94 -16q-253 0 -414 169.5t-161 434.5q0 189 58.5 356t160 286t244 188t303.5 69q252 0 412 -169t160 -435q0 -267 -124 -492.5t-338 -344.5q-128 -71 -185.5 -127.5t-57.5 -113.5
q0 -45 36.5 -71.5t99.5 -26.5q25 0 38 3l-22 -103q-34 -9 -65 -9zM1419 858q0 220 -120.5 354t-318.5 134q-171 0 -311.5 -100t-220.5 -274.5t-80 -386.5q0 -220 121 -354t320 -134q172 0 311.5 99t219 273.5t79.5 388.5z" />
    <glyph glyph-name="oogonek" unicode="&#x1eb;" horiz-adv-x="1218" 
d="M749 -416q-98 0 -160 50t-62 129q0 60 44.5 118.5t117.5 94.5l2 15q-41 -9 -73 -9q-196 0 -316.5 123t-120.5 323q0 191 72.5 343.5t202 238t291.5 85.5q195 0 315.5 -122.5t120.5 -321.5q0 -185 -71.5 -338t-199.5 -241q-131 -89 -190.5 -156t-59.5 -125
q0 -45 36.5 -71.5t99.5 -26.5q24 0 39 3l-22 -103q-34 -9 -66 -9zM320 442q0 -155 86 -248t228 -93q112 0 206 69.5t148.5 189.5t54.5 263q0 164 -82.5 259t-225.5 95q-182 0 -298.5 -150t-116.5 -385z" />
    <glyph glyph-name="Oogonekmacron" unicode="&#x1ec;" horiz-adv-x="1561" 
d="M944 -416q-98 0 -160 50t-62 129q0 61 45.5 117t122.5 90l3 16q-46 -16 -94 -16q-253 0 -414 169.5t-161 434.5q0 189 58.5 356t160 286t244 188t303.5 69q252 0 412 -169t160 -435q0 -267 -124 -492.5t-338 -344.5q-128 -71 -185.5 -127.5t-57.5 -113.5
q0 -45 36.5 -71.5t99.5 -26.5q25 0 38 3l-22 -103q-34 -9 -65 -9zM1419 858q0 220 -120.5 354t-318.5 134q-171 0 -311.5 -100t-220.5 -274.5t-80 -386.5q0 -220 121 -354t320 -134q172 0 311.5 99t219 273.5t79.5 388.5zM1345 1618h-645l23 105h644z" />
    <glyph glyph-name="oogonekmacron" unicode="&#x1ed;" horiz-adv-x="1217" 
d="M1121 1292h-662l22 106h663zM749 -416q-98 0 -160 50t-62 129q0 60 44.5 118.5t117.5 94.5l2 15q-41 -9 -73 -9q-196 0 -316.5 123t-120.5 323q0 191 72.5 343.5t202 238t291.5 85.5q195 0 315.5 -122.5t120.5 -321.5q0 -185 -71.5 -338t-199.5 -241
q-131 -89 -190.5 -156t-59.5 -125q0 -45 36.5 -71.5t99.5 -26.5q24 0 39 3l-22 -103q-34 -9 -66 -9zM320 442q0 -155 86 -248t228 -93q112 0 206 69.5t148.5 189.5t54.5 263q0 164 -82.5 259t-225.5 95q-182 0 -298.5 -150t-116.5 -385z" />
    <glyph glyph-name="u01F1" unicode="&#x1f1;" horiz-adv-x="2799" 
d="M1568 0l21 99l1111 1208l3 13h-826l26 123h1011l-21 -100l-1109 -1207l-2 -13h863l-26 -123h-1051zM450 1443h413q286 0 447 -162t161 -445q0 -177 -59.5 -332.5t-163 -266t-247.5 -174t-308 -63.5h-548zM564 1321l-255 -1199h390q179 0 323.5 91.5t226.5 253.5t82 362
q0 230 -127.5 361t-351.5 131h-288z" />
    <glyph glyph-name="u01F2" unicode="&#x1f2;" horiz-adv-x="2553" 
d="M1561 0l21 100l822 854l3 12h-639l24 111h816l-23 -101l-818 -853l-3 -12h640l-24 -111h-819zM450 1443h413q286 0 447 -162t161 -445q0 -177 -59.5 -332.5t-163 -266t-247.5 -174t-308 -63.5h-548zM564 1321l-255 -1199h390q179 0 323.5 91.5t226.5 253.5t82 362
q0 230 -127.5 361t-351.5 131h-288z" />
    <glyph glyph-name="u01F3" unicode="&#x1f3;" horiz-adv-x="2337" 
d="M1346 0l21 100l822 854l3 12h-639l24 111h816l-23 -101l-818 -853l-3 -12h640l-24 -111h-819zM569 -18q-167 0 -279 120.5t-112 313.5q0 188 75 344.5t203 245.5t280 89q130 0 224.5 -72.5t118.5 -188.5h12l142 672h134l-320 -1506h-127l39 185h-13
q-63 -94 -163.5 -148.5t-213.5 -54.5zM609 101q122 0 222 74t156 199t56 273q0 151 -81 240.5t-218 89.5q-87 0 -166.5 -42t-137 -114t-91.5 -172.5t-34 -212.5q0 -150 81 -242.5t213 -92.5z" />
    <glyph glyph-name="Gacute" unicode="&#x1f4;" horiz-adv-x="1506" 
d="M917 1577l372 297h175l-388 -297h-159zM1486 721l-39 -192q-56 -270 -225 -414.5t-427 -144.5t-413.5 165.5t-155.5 440.5q0 254 97 459.5t268 321.5t383 116q224 0 374.5 -124t160.5 -314q1 -7 1 -28h-138q-8 150 -120 244.5t-288 94.5q-124 0 -234.5 -58.5t-190 -159
t-125.5 -240.5t-46 -298q0 -230 119 -361.5t326 -131.5q186 0 320.5 115t171.5 307l16 81h-434l26 121h573z" />
    <glyph glyph-name="gacute" unicode="&#x1f5;" horiz-adv-x="1247" 
d="M721 1267l320 327h169l-339 -327h-150zM526 -403q-174 0 -293 83t-131 203h139q15 -75 94.5 -123.5t202.5 -48.5q146 0 239.5 72t123.5 202l50 225h-12q-60 -97 -153.5 -148t-209.5 -51q-171 0 -282 119.5t-111 310.5q0 185 71.5 335t195.5 234.5t276 84.5
q129 0 226.5 -72.5t123.5 -187.5h12l50 233l127 -1l-238 -1107q-36 -171 -167.5 -267t-333.5 -96zM615 127q182 0 301 149t119 373q0 152 -82 240t-219 88q-117 0 -211.5 -66.5t-148.5 -185t-54 -265.5q0 -156 79 -244.5t216 -88.5z" />
    <glyph glyph-name="Ngrave" unicode="&#x1f8;" horiz-adv-x="1492" 
d="M923 1874l184 -297h-142l-200 297h158zM281 0h-138l307 1443h135l579 -1218h12l259 1218h138l-307 -1443h-133l-581 1220h-12z" />
    <glyph glyph-name="ngrave" unicode="&#x1f9;" horiz-adv-x="1198" 
d="M881 1267h-143l-199 327h162zM126 0l229 1077h128l-39 -183h12q131 201 353 201q153 0 246 -93.5t93 -229.5q0 -58 -13 -119l-139 -653h-133l134 630q13 63 13 107q0 108 -67 174t-186 66q-134 0 -231 -89t-126 -226l-141 -662h-133z" />
    <glyph glyph-name="Aringacute" unicode="&#x1fa;" horiz-adv-x="1363" 
d="M1112 0l-67 443h-608l-254 -443h-149l851 1443h128l233 -1443h-134zM907 1262l-404 -702h527l-110 702h-13zM902 1723q0 -45 30.5 -76t74.5 -31q45 0 75.5 31t30.5 76t-30.5 75.5t-75.5 30.5q-44 0 -74.5 -30.5t-30.5 -75.5zM1007 1538q-77 0 -132 54t-55 131
q0 78 54.5 131.5t132.5 53.5t133 -53.5t55 -131.5q0 -77 -55 -131t-133 -54zM1110 2138h147l-175 -169h-126z" />
    <glyph glyph-name="aringacute" unicode="&#x1fb;" horiz-adv-x="1126" 
d="M501 97q135 0 240.5 80.5t131.5 202.5l32 149l-321 -17q-152 -8 -235 -67.5t-83 -158.5q0 -83 65.5 -136t169.5 -53zM462 -18q-142 0 -236.5 83t-94.5 208q0 156 119.5 246.5t340.5 100.5l337 16l17 81q8 42 8 64q0 92 -67.5 144t-187.5 52q-106 0 -181 -45t-100 -122
h-139q33 130 150.5 207.5t280.5 77.5q171 0 274 -80.5t103 -216.5q0 -39 -10 -89l-150 -709h-128l35 165h-12q-57 -84 -153.5 -133.5t-205.5 -49.5zM786 1209q-80 0 -135.5 54.5t-55.5 133.5t55.5 133.5t135.5 54.5t135.5 -54.5t55.5 -133.5t-55.5 -133.5t-135.5 -54.5z
M677 1396q0 -46 31.5 -77.5t77.5 -31.5q45 0 76.5 31.5t31.5 77.5q0 47 -31 78.5t-77 31.5t-77.5 -32t-31.5 -78zM727 1669l208 206h156l-229 -206h-135z" />
    <glyph glyph-name="AEacute" unicode="&#x1fc;" horiz-adv-x="1955" 
d="M1397 1577l372 297h175l-388 -297h-159zM1249 1327h-162l-528 -766h526zM966 0l95 443h-581l-303 -443h-144l984 1443h1068l-27 -124h-675l-111 -526h638l-26 -122h-639l-116 -547h675l-26 -124h-812z" />
    <glyph glyph-name="aeacute" unicode="&#x1fd;" horiz-adv-x="1904" 
d="M1057 1267l320 327h169l-339 -327h-150zM1323 -18q-140 0 -248.5 73.5t-145.5 197.5h-12q-56 -116 -178 -193.5t-263 -77.5q-152 0 -248.5 82.5t-96.5 208.5q0 155 118 243t341 98l336 17l19 86q8 42 8 64q0 92 -67.5 144t-187.5 52q-106 0 -181 -45t-100 -122h-139
q33 130 150.5 207.5t280.5 77.5q133 0 224 -54t122 -152h12q71 99 173 152.5t220 53.5q83 0 157 -30t129 -84t87 -135.5t32 -178.5q0 -81 -13 -151h-812q-5 -48 -5 -83q0 -162 87 -246.5t218 -84.5q226 0 309 162h140q-39 -126 -163 -204t-303 -78zM1059 623h667q3 18 3 58
q0 127 -76.5 212.5t-204.5 85.5q-137 0 -242 -97.5t-147 -258.5zM501 97q134 0 240 80.5t132 202.5l31 143l-321 -16q-153 -8 -235 -65.5t-82 -155.5q0 -83 65.5 -136t169.5 -53z" />
    <glyph glyph-name="Oslashacute" unicode="&#x1fe;" horiz-adv-x="1530" 
d="M1484 1873l-388 -297h-159l372 297h175zM1322 1177l-813 -970q116 -110 296 -110q172 0 311.5 99t219 273.5t79.5 388.5q0 192 -93 319zM446 282l812 965q-113 99 -282 99q-171 0 -311.5 -100t-220.5 -274.5t-80 -386.5q0 -179 82 -303zM1557 1457l-143 -171
q144 -166 144 -417q0 -254 -99 -460t-273.5 -322.5t-390.5 -116.5q-220 0 -374 132l-144 -172l-78 59l154 183q-133 163 -133 402q0 189 58.5 356t160 286t244 188t303.5 69q211 0 360 -121l135 160z" />
    <glyph glyph-name="oslashacute" unicode="&#x1ff;" horiz-adv-x="1218" 
d="M1194 1594l-339 -327h-150l320 327h169zM1001 826l-586 -639q86 -86 222 -86q112 0 206 69.5t148.5 189.5t54.5 263q0 118 -45 203zM363 260l587 636q-81 81 -212 81q-182 0 -298.5 -150t-116.5 -385q0 -104 40 -182zM1237 1083l-138 -150q87 -115 87 -282
q0 -190 -73 -343t-202.5 -239.5t-289.5 -86.5q-179 0 -298 105l-132 -144l-70 55l143 156q-80 115 -80 274q0 191 72.5 343.5t202 238t291.5 85.5q174 0 291 -100l128 139z" />
    <glyph glyph-name="Adblgrave" unicode="&#x200;" horiz-adv-x="1363" 
d="M1112 0l-67 443h-608l-254 -443h-149l851 1443h128l233 -1443h-134zM907 1262l-404 -702h527l-110 702h-13zM877 1577h-155l-200 297h172zM1240 1577h-155l-200 297h172z" />
    <glyph glyph-name="adblgrave" unicode="&#x201;" horiz-adv-x="1126" 
d="M501 97q135 0 240.5 80.5t131.5 202.5l32 149l-321 -17q-152 -8 -235 -67.5t-83 -158.5q0 -83 65.5 -136t169.5 -53zM462 -18q-142 0 -236.5 83t-94.5 208q0 156 119.5 246.5t340.5 100.5l337 16l17 81q8 42 8 64q0 92 -67.5 144t-187.5 52q-106 0 -181 -45t-100 -122
h-139q33 130 150.5 207.5t280.5 77.5q171 0 274 -80.5t103 -216.5q0 -39 -10 -89l-150 -709h-128l35 165h-12q-57 -84 -153.5 -133.5t-205.5 -49.5zM636 1267h-135l-201 327h156zM979 1267h-136l-201 327h156z" />
    <glyph glyph-name="Ainvertedbreve" unicode="&#x202;" horiz-adv-x="1363" 
d="M1112 0l-67 443h-608l-254 -443h-149l851 1443h128l233 -1443h-134zM907 1262l-404 -702h527l-110 702h-13zM1335 1590q0 -10 -1 -13h-115v14q0 70 -56 114.5t-142 44.5t-145 -47t-75 -126h-119q20 124 114.5 199t228.5 75q138 0 224 -72.5t86 -188.5z" />
    <glyph glyph-name="ainvertedbreve" unicode="&#x203;" horiz-adv-x="1126" 
d="M501 97q135 0 240.5 80.5t131.5 202.5l32 149l-321 -17q-152 -8 -235 -67.5t-83 -158.5q0 -83 65.5 -136t169.5 -53zM462 -18q-142 0 -236.5 83t-94.5 208q0 156 119.5 246.5t340.5 100.5l337 16l17 81q8 42 8 64q0 92 -67.5 144t-187.5 52q-106 0 -181 -45t-100 -122
h-139q33 130 150.5 207.5t280.5 77.5q171 0 274 -80.5t103 -216.5q0 -39 -10 -89l-150 -709h-128l35 165h-12q-57 -84 -153.5 -133.5t-205.5 -49.5zM1104 1228h-117q2 12 2 27q0 77 -54 123.5t-146 46.5q-97 0 -157.5 -52t-73.5 -145h-120q12 133 109 215.5t248 82.5
q139 0 225 -74.5t86 -188.5q0 -13 -2 -35z" />
    <glyph glyph-name="Edblgrave" unicode="&#x204;" horiz-adv-x="1196" 
d="M814 1577h-155l-200 297h172zM1177 1577h-155l-200 297h172zM1042 124l-26 -124h-873l307 1443h873l-27 -124h-732l-112 -519h697l-26 -122h-696l-119 -554h734z" />
    <glyph glyph-name="edblgrave" unicode="&#x205;" horiz-adv-x="1176" 
d="M613 -18q-189 0 -310.5 118.5t-121.5 323.5q0 194 72.5 347.5t200.5 238.5t288 85q172 0 288.5 -117.5t116.5 -310.5q0 -87 -14 -154h-811q-5 -43 -5 -78q0 -162 87 -247.5t218 -85.5q226 0 309 162h140q-38 -125 -161 -203.5t-297 -78.5zM340 621h667q4 24 4 60
q0 127 -76.5 212.5t-204.5 85.5q-138 0 -243.5 -98.5t-146.5 -259.5zM653 1267h-135l-201 327h156zM996 1267h-136l-201 327h156z" />
    <glyph glyph-name="Einvertedbreve" unicode="&#x206;" horiz-adv-x="1196" 
d="M1042 124l-26 -124h-873l307 1443h873l-27 -124h-732l-112 -519h697l-26 -122h-696l-119 -554h734zM1273 1590q0 -10 -1 -13h-115v14q0 70 -56 114.5t-142 44.5t-145 -47t-75 -126h-119q20 124 114.5 199t228.5 75q138 0 224 -72.5t86 -188.5z" />
    <glyph glyph-name="einvertedbreve" unicode="&#x207;" horiz-adv-x="1176" 
d="M613 -18q-189 0 -310.5 118.5t-121.5 323.5q0 194 72.5 347.5t200.5 238.5t288 85q172 0 288.5 -117.5t116.5 -310.5q0 -87 -14 -154h-811q-5 -43 -5 -78q0 -162 87 -247.5t218 -85.5q226 0 309 162h140q-38 -125 -161 -203.5t-297 -78.5zM340 621h667q4 24 4 60
q0 127 -76.5 212.5t-204.5 85.5q-138 0 -243.5 -98.5t-146.5 -259.5zM1121 1228h-117q2 12 2 27q0 77 -54 123.5t-146 46.5q-97 0 -157.5 -52t-73.5 -145h-120q12 133 109 215.5t248 82.5q139 0 225 -74.5t86 -188.5q0 -13 -2 -35z" />
    <glyph glyph-name="Idblgrave" unicode="&#x208;" horiz-adv-x="509" 
d="M283 0h-140l307 1443h140zM448 1577h-155l-200 297h172zM811 1577h-155l-200 297h172z" />
    <glyph glyph-name="idblgrave" unicode="&#x209;" horiz-adv-x="489" 
d="M138 0l229 1077h131l-229 -1077h-131zM349 1267h-135l-201 327h156zM692 1267h-136l-201 327h156z" />
    <glyph glyph-name="Iinvertedbreve" unicode="&#x20a;" horiz-adv-x="509" 
d="M283 0h-140l307 1443h140zM907 1590q0 -10 -1 -13h-115v14q0 70 -56 114.5t-142 44.5t-145 -47t-75 -126h-119q20 124 114.5 199t228.5 75q138 0 224 -72.5t86 -188.5z" />
    <glyph glyph-name="iinvertedbreve" unicode="&#x20b;" horiz-adv-x="489" 
d="M138 0l229 1077h131l-229 -1077h-131zM817 1228h-117q2 12 2 27q0 77 -54 123.5t-146 46.5q-97 0 -157.5 -52t-73.5 -145h-120q12 133 109 215.5t248 82.5q139 0 225 -74.5t86 -188.5q0 -13 -2 -35z" />
    <glyph glyph-name="Odblgrave" unicode="&#x20c;" horiz-adv-x="1564" 
d="M912 1576h-155l-200 297h172zM1275 1576h-155l-200 297h172zM799 -30q-253 0 -414 169.5t-161 434.5q0 189 58.5 356t160 286t244 188t303.5 69q252 0 412 -169t160 -435q0 -254 -99 -460t-273.5 -322.5t-390.5 -116.5zM1419 858q0 220 -120.5 354t-318.5 134
q-171 0 -311.5 -100t-220.5 -274.5t-80 -386.5q0 -220 121 -354t320 -134q172 0 311.5 99t219 273.5t79.5 388.5z" />
    <glyph glyph-name="odblgrave" unicode="&#x20d;" horiz-adv-x="1216" 
d="M320 442q0 -155 86 -248t228 -93q112 0 206 69.5t148.5 189.5t54.5 263q0 164 -82.5 259t-225.5 95q-182 0 -298.5 -150t-116.5 -385zM618 -18q-196 0 -316.5 123t-120.5 323q0 191 72.5 343.5t202 238t291.5 85.5q195 0 315.5 -122.5t120.5 -321.5q0 -190 -73 -343
t-202.5 -239.5t-289.5 -86.5zM661 1267h-135l-201 327h156zM1004 1267h-136l-201 327h156z" />
    <glyph glyph-name="Oinvertedbreve" unicode="&#x20e;" horiz-adv-x="1564" 
d="M1371 1589q0 -10 -1 -13h-115v14q0 70 -56 114.5t-142 44.5t-145 -47t-75 -126h-119q20 124 114.5 199t228.5 75q138 0 224 -72.5t86 -188.5zM799 -30q-253 0 -414 169.5t-161 434.5q0 189 58.5 356t160 286t244 188t303.5 69q252 0 412 -169t160 -435q0 -254 -99 -460
t-273.5 -322.5t-390.5 -116.5zM1419 858q0 220 -120.5 354t-318.5 134q-171 0 -311.5 -100t-220.5 -274.5t-80 -386.5q0 -220 121 -354t320 -134q172 0 311.5 99t219 273.5t79.5 388.5z" />
    <glyph glyph-name="oinvertedbreve" unicode="&#x20f;" horiz-adv-x="1216" 
d="M320 442q0 -155 86 -248t228 -93q112 0 206 69.5t148.5 189.5t54.5 263q0 164 -82.5 259t-225.5 95q-182 0 -298.5 -150t-116.5 -385zM618 -18q-196 0 -316.5 123t-120.5 323q0 191 72.5 343.5t202 238t291.5 85.5q195 0 315.5 -122.5t120.5 -321.5q0 -190 -73 -343
t-202.5 -239.5t-289.5 -86.5zM1129 1228h-117q2 12 2 27q0 77 -54 123.5t-146 46.5q-97 0 -157.5 -52t-73.5 -145h-120q12 133 109 215.5t248 82.5q139 0 225 -74.5t86 -188.5q0 -13 -2 -35z" />
    <glyph glyph-name="Rdblgrave" unicode="&#x210;" horiz-adv-x="1311" 
d="M763 1577h-155l-200 297h172zM1126 1577h-155l-200 297h172zM143 0l309 1443h474q194 0 307.5 -100.5t113.5 -273.5t-110 -298t-293 -159l220 -612h-150l-206 591h-12h-386l-127 -591h-140zM565 1321l-130 -607h376q174 0 283 95t109 247q0 124 -75 194.5t-207 70.5h-356
z" />
    <glyph glyph-name="rdblgrave" unicode="&#x211;" horiz-adv-x="774" 
d="M121 0l229 1077h127l-34 -157h13q108 175 300 175q87 0 133 -18l-28 -126q-59 17 -138 17q-127 0 -213 -81t-118 -232l-139 -655h-132zM508 1267h-135l-201 327h156zM851 1267h-136l-201 327h156z" />
    <glyph glyph-name="Rinvertedbreve" unicode="&#x212;" horiz-adv-x="1311" 
d="M143 0l309 1443h474q194 0 307.5 -100.5t113.5 -273.5t-110 -298t-293 -159l220 -612h-150l-206 591h-12h-386l-127 -591h-140zM565 1321l-130 -607h376q174 0 283 95t109 247q0 124 -75 194.5t-207 70.5h-356zM1222 1590q0 -10 -1 -13h-115v14q0 70 -56 114.5t-142 44.5
t-145 -47t-75 -126h-119q20 124 114.5 199t228.5 75q138 0 224 -72.5t86 -188.5z" />
    <glyph glyph-name="rinvertedbreve" unicode="&#x213;" horiz-adv-x="774" 
d="M121 0l229 1077h127l-34 -157h13q108 175 300 175q87 0 133 -18l-28 -126q-59 17 -138 17q-127 0 -213 -81t-118 -232l-139 -655h-132zM976 1228h-117q2 12 2 27q0 77 -54 123.5t-146 46.5q-97 0 -157.5 -52t-73.5 -145h-120q12 133 109 215.5t248 82.5q139 0 225 -74.5
t86 -188.5q0 -13 -2 -35z" />
    <glyph glyph-name="Udblgrave" unicode="&#x214;" horiz-adv-x="1499" 
d="M943 1577h-155l-200 297h172zM1306 1577h-155l-200 297h172zM747 -26q-232 0 -363 122.5t-133 317.5q-1 60 13 132l189 897h140l-188 -890q-15 -66 -13 -132q3 -152 101 -236.5t276 -84.5q174 0 300 103.5t165 283.5l204 956h140l-210 -981q-50 -233 -209.5 -360.5
t-411.5 -127.5z" />
    <glyph glyph-name="udblgrave" unicode="&#x215;" horiz-adv-x="1196" 
d="M1218 1077l-229 -1077h-127l38 173h-12q-54 -87 -145.5 -139t-212.5 -52q-149 0 -241 89.5t-92 226.5q0 64 14 129l137 650h134l-134 -629q-14 -68 -14 -118q0 -111 62.5 -170t181.5 -59q139 0 238.5 90.5t128.5 231.5l140 654h133zM688 1267h-135l-201 327h156z
M1031 1267h-136l-201 327h156z" />
    <glyph glyph-name="Uinvertedbreve" unicode="&#x216;" horiz-adv-x="1499" 
d="M747 -26q-232 0 -363 122.5t-133 317.5q-1 60 13 132l189 897h140l-188 -890q-15 -66 -13 -132q3 -152 101 -236.5t276 -84.5q174 0 300 103.5t165 283.5l204 956h140l-210 -981q-50 -233 -209.5 -360.5t-411.5 -127.5zM1402 1590q0 -10 -1 -13h-115v14q0 70 -56 114.5
t-142 44.5t-145 -47t-75 -126h-119q20 124 114.5 199t228.5 75q138 0 224 -72.5t86 -188.5z" />
    <glyph glyph-name="uinvertedbreve" unicode="&#x217;" horiz-adv-x="1196" 
d="M1218 1077l-229 -1077h-127l38 173h-12q-54 -87 -145.5 -139t-212.5 -52q-149 0 -241 89.5t-92 226.5q0 64 14 129l137 650h134l-134 -629q-14 -68 -14 -118q0 -111 62.5 -170t181.5 -59q139 0 238.5 90.5t128.5 231.5l140 654h133zM1156 1228h-117q2 12 2 27
q0 77 -54 123.5t-146 46.5q-97 0 -157.5 -52t-73.5 -145h-120q12 133 109 215.5t248 82.5q139 0 225 -74.5t86 -188.5q0 -13 -2 -35z" />
    <glyph glyph-name="Scommaaccent" unicode="&#x218;" horiz-adv-x="1267" 
d="M142 392h138q19 -134 130.5 -215.5t275.5 -81.5q165 0 266.5 79.5t101.5 208.5q0 93 -62 159t-201 115l-136 48q-157 55 -238 148.5t-81 216.5q0 174 140.5 288.5t353.5 114.5q202 0 341.5 -112t155.5 -286h-137q-23 124 -123.5 198.5t-245.5 74.5q-148 0 -244.5 -75.5
t-96.5 -191.5q0 -86 61.5 -149t195.5 -111l132 -47q329 -118 329 -376q0 -190 -145.5 -309t-377.5 -119q-222 0 -367 115t-166 307zM538 -506h-127l179 364h141z" />
    <glyph glyph-name="scommaaccent" unicode="&#x219;" horiz-adv-x="1050" 
d="M126 281h135q19 -84 96 -135.5t189 -51.5q121 0 199.5 55t78.5 141q0 59 -39.5 101.5t-131.5 73.5l-143 48q-127 43 -187.5 108.5t-60.5 164.5q0 136 111.5 222.5t280.5 86.5q161 0 266.5 -78t123.5 -206h-130q-15 77 -87.5 124.5t-176.5 47.5q-110 0 -182.5 -53
t-72.5 -132q0 -57 42.5 -98.5t131.5 -71.5l129 -43q137 -47 199 -114.5t62 -171.5q0 -138 -119 -227.5t-300 -89.5q-173 0 -288 83t-126 216zM400 -506h-127l179 364h141z" />
    <glyph glyph-name="Tcommaaccent" unicode="&#x21a;" horiz-adv-x="1280" 
d="M472 -506h-127l179 364h141zM666 0h-139l280 1319h-482l26 124h1104l-26 -124h-482z" />
    <glyph glyph-name="tcommaaccent" unicode="&#x21b;" horiz-adv-x="724" 
d="M243 -506h-127l179 364h141zM488 -6q-112 0 -178 52t-66 150q0 45 11 93l144 677h-180l23 111h181l58 280h134l-60 -280h254l-25 -111h-252l-137 -642q-11 -57 -11 -91q0 -123 149 -123q55 0 79 3l-24 -112q-28 -7 -100 -7z" />
    <glyph glyph-name="Hcaron" unicode="&#x21e;" horiz-adv-x="1489" 
d="M1263 0h-140l144 677h-841l-144 -677h-139l307 1443h140l-137 -642h841l137 642h139zM972 1577l-189 297h142l126 -208h12l214 208h161l-316 -297h-150z" />
    <glyph glyph-name="hcaron" unicode="&#x21f;" horiz-adv-x="1215" 
d="M136 0l322 1506h133l-131 -611h12q132 200 349 200q155 0 249.5 -94t94.5 -232q0 -55 -13 -116l-139 -653h-133l134 630q13 63 13 104q0 110 -68.5 176.5t-189.5 66.5q-135 0 -232 -89t-127 -226l-141 -662h-133zM485 1640l-189 297h142l126 -208h12l214 208h161
l-316 -297h-150z" />
    <glyph glyph-name="Adotaccent" unicode="&#x226;" horiz-adv-x="1363" 
d="M1112 0l-67 443h-608l-254 -443h-149l851 1443h128l233 -1443h-134zM907 1262l-404 -702h527l-110 702h-13zM1000 1577q-44 0 -74.5 30.5t-30.5 73.5t30.5 74t74.5 31q43 0 73.5 -31t30.5 -74t-30.5 -73.5t-73.5 -30.5z" />
    <glyph glyph-name="adotaccent" unicode="&#x227;" horiz-adv-x="1126" 
d="M501 97q135 0 240.5 80.5t131.5 202.5l32 149l-321 -17q-152 -8 -235 -67.5t-83 -158.5q0 -83 65.5 -136t169.5 -53zM462 -18q-142 0 -236.5 83t-94.5 208q0 156 119.5 246.5t340.5 100.5l337 16l17 81q8 42 8 64q0 92 -67.5 144t-187.5 52q-106 0 -181 -45t-100 -122
h-139q33 130 150.5 207.5t280.5 77.5q171 0 274 -80.5t103 -216.5q0 -39 -10 -89l-150 -709h-128l35 165h-12q-57 -84 -153.5 -133.5t-205.5 -49.5zM786 1280q-45 0 -77 32.5t-32 77.5t32 77t77 32t77.5 -32t32.5 -77t-32.5 -77.5t-77.5 -32.5z" />
    <glyph glyph-name="Ecedilla" unicode="&#x228;" horiz-adv-x="1196" 
d="M1296 1319h-732l-112 -519h697l-26 -122h-696l-119 -554h734l-26 -124h-379l-89 -139q88 -9 133.5 -48.5t45.5 -106.5q0 -82 -65.5 -134t-166.5 -52q-96 0 -172 37l18 87q66 -32 151 -32q54 0 87.5 23.5t33.5 63.5q0 39 -35.5 62t-101.5 25l-51 1l11 72l90 141h-383
l307 1443h873z" />
    <glyph glyph-name="ecedilla" unicode="&#x229;" horiz-adv-x="1175" 
d="M340 621h667q4 24 4 60q0 127 -76.5 212.5t-204.5 85.5q-138 0 -243.5 -98.5t-146.5 -259.5zM1133 513h-811q-5 -43 -5 -78q0 -162 87 -247.5t218 -85.5q226 0 309 162h140q-36 -117 -146 -194t-268 -87l-78 -122q88 -9 133.5 -48.5t45.5 -106.5q0 -82 -65.5 -134
t-166.5 -52q-96 0 -172 37l18 87q66 -32 151 -32q54 0 87.5 23.5t33.5 63.5q0 39 -35.5 62t-101.5 25l-51 1l11 72l81 127q-164 20 -265.5 136t-101.5 302q0 194 72.5 347.5t200.5 238.5t288 85q172 0 288.5 -117.5t116.5 -310.5q0 -87 -14 -154z" />
    <glyph glyph-name="Odieresismacron" unicode="&#x22a;" horiz-adv-x="1564" 
d="M799 -30q-253 0 -414 169.5t-161 434.5q0 189 58.5 356t160 286t244 188t303.5 69q252 0 412 -169t160 -435q0 -254 -99 -460t-273.5 -322.5t-390.5 -116.5zM1419 858q0 220 -120.5 354t-318.5 134q-171 0 -311.5 -100t-220.5 -274.5t-80 -386.5q0 -220 121 -354
t320 -134q172 0 311.5 99t219 273.5t79.5 388.5zM762 1914l22 101h644l-22 -101h-644zM856 1579q-41 0 -70.5 29t-29.5 70t29.5 70t70.5 29t70 -29t29 -70t-29 -70t-70 -29zM1219 1579q-41 0 -70 29t-29 70t29 70t70 29t70.5 -29t29.5 -70t-29.5 -70t-70.5 -29z" />
    <glyph glyph-name="odieresismacron" unicode="&#x22b;" horiz-adv-x="1216" 
d="M618 1240q-41 0 -70.5 29t-29.5 70q0 42 29 70.5t71 28.5q41 0 70 -28.5t29 -70.5q0 -41 -29 -70t-70 -29zM982 1240q-42 0 -71 29t-29 70q0 42 29 70.5t71 28.5q41 0 70 -28.5t29 -70.5q0 -41 -29 -70t-70 -29zM1189 1614h-662l22 106h663zM320 442q0 -155 86 -248
t228 -93q112 0 206 69.5t148.5 189.5t54.5 263q0 164 -82.5 259t-225.5 95q-182 0 -298.5 -150t-116.5 -385zM618 -18q-196 0 -316.5 123t-120.5 323q0 191 72.5 343.5t202 238t291.5 85.5q195 0 315.5 -122.5t120.5 -321.5q0 -190 -73 -343t-202.5 -239.5t-289.5 -86.5z
" />
    <glyph glyph-name="Otildemacron" unicode="&#x22c;" horiz-adv-x="1564" 
d="M1406 1914h-644l22 101h644zM1166 1576q-43 0 -82 20t-62.5 44t-53.5 44t-58 20q-89 0 -120 -106h-110q17 97 82.5 154t147.5 57q43 0 82 -20t62.5 -44t53.5 -44t58 -20q89 0 120 106h110q-17 -97 -82.5 -154t-147.5 -57zM799 -30q-253 0 -414 169.5t-161 434.5
q0 189 58.5 356t160 286t244 188t303.5 69q252 0 412 -169t160 -435q0 -254 -99 -460t-273.5 -322.5t-390.5 -116.5zM1419 858q0 220 -120.5 354t-318.5 134q-171 0 -311.5 -100t-220.5 -274.5t-80 -386.5q0 -220 121 -354t320 -134q172 0 311.5 99t219 273.5t79.5 388.5z
" />
    <glyph glyph-name="otildemacron" unicode="&#x22d;" horiz-adv-x="1216" 
d="M959 1216q-46 0 -83 19t-60.5 46.5t-44.5 55t-45.5 46.5t-52.5 19q-93 0 -122 -142h-110q15 116 80 181.5t157 65.5q45 0 81.5 -19.5t60 -46.5t44.5 -54.5t46 -47t53 -19.5q93 0 121 142h110q-16 -117 -80 -181.5t-155 -64.5zM1181 1618h-662l22 106h663zM320 442
q0 -155 86 -248t228 -93q112 0 206 69.5t148.5 189.5t54.5 263q0 164 -82.5 259t-225.5 95q-182 0 -298.5 -150t-116.5 -385zM618 -18q-196 0 -316.5 123t-120.5 323q0 191 72.5 343.5t202 238t291.5 85.5q195 0 315.5 -122.5t120.5 -321.5q0 -190 -73 -343t-202.5 -239.5
t-289.5 -86.5z" />
    <glyph glyph-name="Odotaccent" unicode="&#x22e;" horiz-adv-x="1564" 
d="M1036 1576q-44 0 -74.5 30.5t-30.5 73.5q0 44 30.5 74.5t74.5 30.5q43 0 73.5 -31t30.5 -74t-30.5 -73.5t-73.5 -30.5zM799 -30q-253 0 -414 169.5t-161 434.5q0 189 58.5 356t160 286t244 188t303.5 69q252 0 412 -169t160 -435q0 -254 -99 -460t-273.5 -322.5
t-390.5 -116.5zM1419 858q0 220 -120.5 354t-318.5 134q-171 0 -311.5 -100t-220.5 -274.5t-80 -386.5q0 -220 121 -354t320 -134q172 0 311.5 99t219 273.5t79.5 388.5z" />
    <glyph glyph-name="odotaccent" unicode="&#x22f;" horiz-adv-x="1216" 
d="M811 1280q-45 0 -77 32.5t-32 77.5t32 77t77 32t77.5 -32t32.5 -77t-32.5 -77.5t-77.5 -32.5zM320 442q0 -155 86 -248t228 -93q112 0 206 69.5t148.5 189.5t54.5 263q0 164 -82.5 259t-225.5 95q-182 0 -298.5 -150t-116.5 -385zM618 -18q-196 0 -316.5 123t-120.5 323
q0 191 72.5 343.5t202 238t291.5 85.5q195 0 315.5 -122.5t120.5 -321.5q0 -190 -73 -343t-202.5 -239.5t-289.5 -86.5z" />
    <glyph glyph-name="Odotaccentmacron" unicode="&#x230;" horiz-adv-x="1564" 
d="M1406 1914h-644l22 101h644zM1035 1577q-43 0 -73.5 30.5t-30.5 73.5t30.5 73.5t73.5 30.5t73.5 -30.5t30.5 -73.5t-30.5 -73.5t-73.5 -30.5zM799 -30q-253 0 -414 169.5t-161 434.5q0 189 58.5 356t160 286t244 188t303.5 69q252 0 412 -169t160 -435q0 -254 -99 -460
t-273.5 -322.5t-390.5 -116.5zM1419 858q0 220 -120.5 354t-318.5 134q-171 0 -311.5 -100t-220.5 -274.5t-80 -386.5q0 -220 121 -354t320 -134q172 0 311.5 99t219 273.5t79.5 388.5z" />
    <glyph glyph-name="odotaccentmacron" unicode="&#x231;" horiz-adv-x="1216" 
d="M320 442q0 -155 86 -248t228 -93q112 0 206 69.5t148.5 189.5t54.5 263q0 164 -82.5 259t-225.5 95q-182 0 -298.5 -150t-116.5 -385zM618 -18q-196 0 -316.5 123t-120.5 323q0 191 72.5 343.5t202 238t291.5 85.5q195 0 315.5 -122.5t120.5 -321.5q0 -190 -73 -343
t-202.5 -239.5t-289.5 -86.5zM795 1228q-43 0 -72.5 30t-29.5 73t29.5 73t72.5 30q44 0 74 -30t30 -73t-30 -73t-74 -30zM1183 1585h-662l22 106h663z" />
    <glyph glyph-name="Ymacron" unicode="&#x232;" horiz-adv-x="1321" 
d="M690 0h-140l133 624l-342 819h143l289 -685h12l568 685h159l-695 -837zM1286 1619h-645l23 105h644z" />
    <glyph glyph-name="ymacron" unicode="&#x233;" horiz-adv-x="1079" 
d="M161 -382q-54 0 -103 13l23 110q42 -11 88 -11q61 0 111 42.5t107 145.5l46 81l-179 1078h131l143 -913h12l515 913h145l-696 -1202q-86 -148 -161.5 -202.5t-181.5 -54.5zM1103 1292h-662l22 106h663z" />
    <glyph glyph-name="dotlessj" unicode="&#x237;" horiz-adv-x="490" 
d="M499 1077l-249 -1170q-30 -143 -108 -208.5t-212 -65.5q-46 0 -73 5l27 116q26 -4 50 -4q81 0 125 40.5t63 133.5l245 1153h132z" />
    <glyph glyph-name="quoteright" unicode="&#x2bc;" horiz-adv-x="548" 
d="M418 935h-123l244 508h137z" />
    <glyph glyph-name="quoteright" unicode="&#x2019;" horiz-adv-x="548" 
d="M418 935h-123l244 508h137z" />
    <glyph glyph-name="circumflex" unicode="&#x2c6;" horiz-adv-x="1000" 
d="M867 1560l204 -332h-143l-142 243h-12l-244 -243h-163l346 332h154z" />
    <glyph glyph-name="caron" unicode="&#x2c7;" horiz-adv-x="1000" 
d="M796 1228h-153l-205 332h143l141 -243h12l245 243h163z" />
    <glyph glyph-name="breve" unicode="&#x2d8;" horiz-adv-x="1017" 
d="M469 1538h117q-2 -18 -2 -31q0 -77 54 -121.5t146 -44.5q98 0 158.5 51.5t72.5 145.5h120q-12 -134 -109 -216t-248 -82q-145 0 -228 72t-83 187q0 11 2 39z" />
    <glyph glyph-name="dotaccent" unicode="&#x2d9;" horiz-adv-x="1018" 
d="M763 1280q-45 0 -77 32.5t-32 77.5t32 77t77 32t77.5 -32t32.5 -77t-32.5 -77.5t-77.5 -32.5z" />
    <glyph glyph-name="ring" unicode="&#x2da;" horiz-adv-x="1000" 
d="M764 1228q-88 0 -150 61t-62 150q0 88 62 149t150 61q89 0 151 -61t62 -149q0 -89 -62 -150t-151 -61zM764 1313q53 0 89 36.5t36 89.5t-36 89t-89 36t-88.5 -36t-35.5 -89t36 -89.5t88 -36.5z" />
    <glyph glyph-name="ogonek" unicode="&#x2db;" horiz-adv-x="919" 
d="M517 -312l-21 -96q-28 -13 -83 -13q-96 0 -151.5 48.5t-55.5 132.5q0 81 60.5 161.5t162.5 135.5l94 -22q-88 -54 -139 -121t-51 -129q0 -49 33 -76.5t92 -27.5q39 0 59 7z" />
    <glyph glyph-name="tilde" unicode="&#x2dc;" horiz-adv-x="1000" 
d="M906 1238q-46 0 -83 19t-60.5 46.5t-44.5 55t-45.5 46.5t-52.5 19q-93 0 -122 -142h-110q15 116 80 181.5t157 65.5q45 0 81.5 -19.5t60 -46.5t44.5 -54.5t46 -47t53 -19.5q93 0 121 142h110q-16 -117 -80 -181.5t-155 -64.5z" />
    <glyph glyph-name="hungarumlaut" unicode="&#x2dd;" horiz-adv-x="1000" 
d="M697 1264l320 330h162l-341 -330h-141zM345 1264l321 330h161l-341 -330h-141z" />
    <glyph glyph-name="gravecmb" unicode="&#x300;" 
d="M283 1267h-143l-199 327h162z" />
    <glyph glyph-name="acutecmb" unicode="&#x301;" 
d="M145 1267l320 327h169l-339 -327h-150z" />
    <glyph glyph-name="circumflexcmb" unicode="&#x302;" 
d="M358 1560l204 -332h-143l-142 243h-12l-244 -243h-163l346 332h154z" />
    <glyph glyph-name="tildecmb" unicode="&#x303;" 
d="M402 1216q-46 0 -83 19t-60.5 46.5t-44.5 55t-45.5 46.5t-52.5 19q-93 0 -122 -142h-110q15 116 80 181.5t157 65.5q45 0 81.5 -19.5t60 -46.5t44.5 -54.5t46 -47t53 -19.5q93 0 121 142h110q-16 -117 -80 -181.5t-155 -64.5z" />
    <glyph glyph-name="macroncmb" unicode="&#x304;" 
d="M564 1292h-662l22 106h663z" />
    <glyph glyph-name="brevecmb" unicode="&#x306;" 
d="M-68 1538h117q-2 -18 -2 -31q0 -77 54 -121.5t146 -44.5q98 0 158.5 51.5t72.5 145.5h120q-12 -134 -109 -216t-248 -82q-145 0 -228 72t-83 187q0 11 2 39z" />
    <glyph glyph-name="dotaccentcmb" unicode="&#x307;" 
d="M254 1280q-45 0 -77 32.5t-32 77.5t32 77t77 32t77.5 -32t32.5 -77t-32.5 -77.5t-77.5 -32.5z" />
    <glyph glyph-name="dieresiscmb" unicode="&#x308;" 
d="M59 1228q-42 0 -72 29.5t-30 72.5t30 72.5t72 29.5q43 0 73 -29.5t30 -72.5t-30 -72.5t-73 -29.5zM423 1228q-43 0 -72.5 29.5t-29.5 72.5t29.5 72.5t72.5 29.5q42 0 72 -29.5t30 -72.5t-30 -72.5t-72 -29.5z" />
    <glyph glyph-name="hookabovecmb" unicode="&#x309;" 
d="M118 1454l20 93q40 16 98 16q90 0 144.5 -40.5t54.5 -111.5q0 -73 -54.5 -131t-143.5 -82l-42 83q59 15 91 46t32 70q0 35 -27.5 53t-75.5 18q-51 0 -97 -14z" />
    <glyph glyph-name="ringcmb" unicode="&#x30a;" 
d="M264 1228q-88 0 -150 61t-62 150q0 88 62 149t150 61q89 0 151 -61t62 -149q0 -89 -62 -150t-151 -61zM264 1313q53 0 89 36.5t36 89.5t-36 89t-89 36t-88.5 -36t-35.5 -89t36 -89.5t88 -36.5z" />
    <glyph glyph-name="hungarumlautcmb" unicode="&#x30b;" 
d="M325 1264l320 330h162l-341 -330h-141zM-27 1264l321 330h161l-341 -330h-141z" />
    <glyph glyph-name="caroncmb" unicode="&#x30c;" 
d="M306 1228h-153l-205 332h143l141 -243h12l245 243h163z" />
    <glyph glyph-name="dblgravecmb" unicode="&#x30f;" 
d="M104 1267h-135l-201 327h156zM447 1267h-136l-201 327h156z" />
    <glyph glyph-name="invertedbrevecmb" unicode="&#x311;" 
d="M572 1228h-117q2 12 2 27q0 77 -54 123.5t-146 46.5q-97 0 -157.5 -52t-73.5 -145h-120q12 133 109 215.5t248 82.5q139 0 225 -74.5t86 -188.5q0 -13 -2 -35z" />
    <glyph glyph-name="horncmb" unicode="&#x31b;" 
d="M15 1092l22 87q33 0 41 1q111 9 132 116l23 127h122l-28 -150q-17 -94 -80 -142t-159 -48q-57 0 -73 9z" />
    <glyph glyph-name="dotbelowcmb" unicode="&#x323;" 
d="M-97 -364q-43 0 -73.5 31t-30.5 74t30.5 73.5t73.5 30.5t74 -30.5t31 -73.5t-31 -74t-74 -31z" />
    <glyph glyph-name="dieresisbelowcmb" unicode="&#x324;" 
d="M-285 -392q-42 0 -72 30t-30 72q0 43 30 72.5t72 29.5q43 0 72.5 -29.5t29.5 -72.5q0 -42 -29.5 -72t-72.5 -30zM79 -392q-43 0 -72.5 30t-29.5 72q0 43 29.5 72.5t72.5 29.5q42 0 72 -29.5t30 -72.5q0 -42 -30 -72t-72 -30z" />
    <glyph glyph-name="ringbelowcmb" unicode="&#x325;" 
d="M-114 -549q-88 0 -150 61t-62 150q0 88 62 149t150 61q89 0 151 -61t62 -149q0 -89 -62 -150t-151 -61zM-114 -464q53 0 89 36.5t36 89.5t-36 89t-89 36t-88.5 -36t-35.5 -89t36 -89.5t88 -36.5z" />
    <glyph glyph-name="commabelowcmb" unicode="&#x326;" 
d="M-168 -506h-127l179 364h141z" />
    <glyph glyph-name="cedillacmb" unicode="&#x327;" 
d="M-196 -213l11 72l111 173l109 -2l-108 -169q88 -9 133.5 -48.5t45.5 -106.5q0 -82 -65.5 -134t-166.5 -52q-96 0 -172 37l18 87q66 -32 151 -32q54 0 87.5 23.5t33.5 63.5q0 39 -35.5 62t-101.5 25z" />
    <glyph glyph-name="ogonekcmb" unicode="&#x328;" 
d="M18 -312l-21 -96q-28 -13 -83 -13q-96 0 -151.5 48.5t-55.5 132.5q0 81 60.5 161.5t162.5 135.5l94 -22q-88 -54 -139 -121t-51 -129q0 -49 33 -76.5t92 -27.5q39 0 59 7z" />
    <glyph glyph-name="circumflexbelowcmb" unicode="&#x32d;" 
d="M-10 -143l228 -289h-155l-147 197h-12l-232 -197h-156l350 289h124z" />
    <glyph glyph-name="brevebelowcmb" unicode="&#x32e;" 
d="M98 -137h119q-20 -125 -114 -199.5t-228 -74.5q-139 0 -224.5 72t-85.5 188v14h117q2 -79 54.5 -126t142.5 -47q86 0 144.5 46.5t74.5 126.5z" />
    <glyph glyph-name="tildebelowcmb" unicode="&#x330;" 
d="M47 -403q-45 0 -81.5 17t-61.5 41.5t-47 49.5t-47.5 42t-53.5 17q-43 0 -74.5 -34t-40.5 -102h-110q15 115 77 178t150 63q44 0 81 -17t61.5 -42t46.5 -49.5t47.5 -41.5t53.5 -17q44 0 75.5 34t40.5 102h110q-15 -115 -77 -178t-150 -63z" />
    <glyph glyph-name="macronbelowcmb" unicode="&#x331;" 
d="M216 -309h-645l23 105h644z" />
    <glyph glyph-name="greekquestionmark" unicode="&#x37e;" horiz-adv-x="593" 
d="M147 -339h-116l208 531h154zM425 763q-45 0 -77.5 32.5t-32.5 78.5t32.5 78t77.5 32q46 0 78 -32t32 -78t-32 -78.5t-78 -32.5z" />
    <glyph glyph-name="tonosgreek" unicode="&#x384;" horiz-adv-x="891" 
d="M668 1252h-121l157 328h159z" />
    <glyph glyph-name="dieresistonosgreek" unicode="&#x385;" horiz-adv-x="1202" 
d="M857 1252h-115l110 328h152zM567 1252q-39 0 -65 26t-26 65q0 46 32.5 79.5t82.5 33.5q39 0 65 -25.5t26 -63.5q0 -47 -32.5 -81t-82.5 -34zM1102 1252q-39 0 -65 26t-26 65q0 46 32.5 79.5t81.5 33.5q39 0 65 -25.5t26 -63.5q0 -47 -32.5 -81t-81.5 -34z" />
    <glyph glyph-name="Alphatonosgreek" unicode="&#x386;" horiz-adv-x="1365" 
d="M1113 0l-67 443h-608l-254 -443h-149l851 1443h128l233 -1443h-134zM908 1262l-404 -702h527l-110 702h-13zM396 1116h-122l157 327h159z" />
    <glyph glyph-name="anoteleia" unicode="&#x387;" horiz-adv-x="608" 
d="M467 841q-51 0 -84.5 33.5t-33.5 84.5t33.5 84.5t84.5 33.5t84 -33.5t33 -84.5t-33 -84.5t-84 -33.5z" />
    <glyph glyph-name="Epsilontonosgreek" unicode="&#x388;" horiz-adv-x="1513" 
d="M392 1116h-122l157 327h159zM1358 124l-26 -124h-873l307 1443h873l-27 -124h-732l-112 -519h697l-26 -122h-696l-119 -554h734z" />
    <glyph glyph-name="Etatonosgreek" unicode="&#x389;" horiz-adv-x="1804" 
d="M392 1116h-122l157 327h159zM1579 0h-140l144 677h-841l-144 -677h-139l307 1443h140l-137 -642h841l137 642h139z" />
    <glyph glyph-name="Iotatonosgreek" unicode="&#x38a;" horiz-adv-x="823" 
d="M599 0h-140l307 1443h140zM392 1116h-122l157 327h159z" />
    <glyph glyph-name="Omicrontonosgreek" unicode="&#x38c;" horiz-adv-x="1798" 
d="M1034 -30q-253 0 -414 169.5t-161 434.5q0 189 58.5 356t160 286t244 188t303.5 69q252 0 412 -169t160 -435q0 -254 -99 -460t-273.5 -322.5t-390.5 -116.5zM1654 858q0 220 -120.5 354t-318.5 134q-171 0 -311.5 -100t-220.5 -274.5t-80 -386.5q0 -220 121 -354
t320 -134q172 0 311.5 99t219 273.5t79.5 388.5zM399 1116h-122l157 327h159z" />
    <glyph glyph-name="Upsilontonosgreek" unicode="&#x38e;" horiz-adv-x="1636" 
d="M392 1116h-122l157 327h159zM1005 0h-140l133 624l-342 819h143l289 -685h12l568 685h159l-695 -837z" />
    <glyph glyph-name="Omegatonosgreek" unicode="&#x38f;" horiz-adv-x="1852" 
d="M1159 0l35 161q231 111 357 299.5t126 430.5q0 207 -121 331t-328 124q-178 0 -315.5 -87.5t-211 -239.5t-73.5 -344q0 -348 305 -514l-34 -161h-519l27 124h357l4 13q-281 178 -281 535q0 227 93 408.5t267 287t398 105.5q263 0 418.5 -155.5t155.5 -413.5
q0 -247 -126.5 -453t-343.5 -314l-3 -13h372l-26 -124h-533zM392 1116h-122l157 327h159z" />
    <glyph glyph-name="iotadieresistonosgreek" unicode="&#x390;" horiz-adv-x="577" 
d="M472 1077l-161 -753q-11 -55 -11 -93q0 -124 148 -124q46 0 80 6l-24 -112q-40 -10 -101 -10q-116 0 -180 53.5t-64 150.5q0 37 11 94l169 788h133zM494 1252h-115l110 328h152zM204 1252q-39 0 -65 26t-26 65q0 46 32.5 79.5t82.5 33.5q39 0 65 -25.5t26 -63.5
q0 -47 -32.5 -81t-82.5 -34zM739 1252q-39 0 -65 26t-26 65q0 46 32.5 79.5t81.5 33.5q39 0 65 -25.5t26 -63.5q0 -47 -32.5 -81t-81.5 -34z" />
    <glyph glyph-name="Alphagreek" unicode="&#x391;" horiz-adv-x="1363" 
d="M1112 0l-67 443h-608l-254 -443h-149l851 1443h128l233 -1443h-134zM907 1262l-404 -702h527l-110 702h-13z" />
    <glyph glyph-name="Betagreek" unicode="&#x392;" horiz-adv-x="1324" 
d="M716 0h-573l307 1443h480q182 0 291 -86t109 -225q0 -144 -91.5 -247t-240.5 -129l-3 -13q123 -20 194.5 -98t71.5 -194q0 -195 -152 -323t-393 -128zM563 1322l-109 -515h347q170 0 278.5 83t108.5 214q0 104 -78 161t-228 57h-319zM308 121h404q175 0 290 92t115 227
q0 119 -85 183.5t-247 64.5h-357z" />
    <glyph glyph-name="Gammagreek" unicode="&#x393;" horiz-adv-x="1134" 
d="M283 0h-140l307 1443h838l-27 -124h-697z" />
    <glyph glyph-name="Deltagreek" unicode="&#x394;" horiz-adv-x="1371" 
d="M1231 0h-1173l20 96l811 1347h128l235 -1346zM916 1272l-670 -1136l-2 -12h867l2 10l-191 1138h-6z" />
    <glyph glyph-name="Deltagreek" unicode="&#x2206;" horiz-adv-x="1371" 
d="M1231 0h-1173l20 96l811 1347h128l235 -1346zM916 1272l-670 -1136l-2 -12h867l2 10l-191 1138h-6z" />
    <glyph glyph-name="Epsilongreek" unicode="&#x395;" horiz-adv-x="1197" 
d="M1042 124l-26 -124h-873l307 1443h873l-27 -124h-732l-112 -519h697l-26 -122h-696l-119 -554h734z" />
    <glyph glyph-name="Zetagreek" unicode="&#x396;" horiz-adv-x="1328" 
d="M97 0l21 99l1111 1208l3 13h-826l26 123h1011l-21 -100l-1109 -1207l-2 -13h863l-26 -123h-1051z" />
    <glyph glyph-name="Etagreek" unicode="&#x397;" horiz-adv-x="1489" 
d="M1263 0h-140l144 677h-841l-144 -677h-139l307 1443h140l-137 -642h841l137 642h139z" />
    <glyph glyph-name="Thetagreek" unicode="&#x398;" horiz-adv-x="1572" 
d="M1205 661h-639l26 124h639zM782 -30q-264 0 -412 156.5t-148 431.5q0 262 99 470.5t278.5 326.5t406.5 118q271 0 419 -156t148 -439q0 -262 -102 -469.5t-282.5 -323t-406.5 -115.5zM1432 860q0 233 -115 359.5t-328 126.5q-179 0 -322.5 -100t-223.5 -276t-80 -393
q0 -226 116.5 -353t324.5 -127q176 0 319.5 98t226 273t82.5 392z" />
    <glyph glyph-name="Iotagreek" unicode="&#x399;" horiz-adv-x="509" 
d="M283 0h-140l307 1443h140z" />
    <glyph glyph-name="Kappagreek" unicode="&#x39a;" horiz-adv-x="1311" 
d="M280 0h-137l307 1443h136l-158 -743h12l833 743h180l-706 -631l458 -812h-159l-407 728l-250 -221z" />
    <glyph glyph-name="Lambdagreek" unicode="&#x39b;" horiz-adv-x="1349" 
d="M900 1262l-708 -1262h-148l834 1443h128l216 -1443h-134l-176 1262h-12z" />
    <glyph glyph-name="Mugreek" unicode="&#x39c;" horiz-adv-x="1763" 
d="M274 0h-131l307 1443h150l267 -1256h12l797 1256h167l-307 -1443h-131l250 1177h-9l-745 -1170h-119l-248 1170h-10z" />
    <glyph glyph-name="Nugreek" unicode="&#x39d;" horiz-adv-x="1492" 
d="M281 0h-138l307 1443h135l579 -1218h12l259 1218h138l-307 -1443h-133l-581 1220h-12z" />
    <glyph glyph-name="Xigreek" unicode="&#x39e;" horiz-adv-x="1323" 
d="M405 1443h1043l-27 -128h-1043zM1207 675h-888l28 127h888zM126 128h1042l-26 -128h-1043z" />
    <glyph glyph-name="Omicrongreek" unicode="&#x39f;" horiz-adv-x="1564" 
d="M799 -30q-253 0 -414 169.5t-161 434.5q0 189 58.5 356t160 286t244 188t303.5 69q252 0 412 -169t160 -435q0 -254 -99 -460t-273.5 -322.5t-390.5 -116.5zM1419 858q0 220 -120.5 354t-318.5 134q-171 0 -311.5 -100t-220.5 -274.5t-80 -386.5q0 -220 121 -354
t320 -134q172 0 311.5 99t219 273.5t79.5 388.5z" />
    <glyph glyph-name="Pigreek" unicode="&#x3a0;" horiz-adv-x="1469" 
d="M1243 0h-140l281 1319h-821l-281 -1319h-139l307 1443h1100z" />
    <glyph glyph-name="Rhogreek" unicode="&#x3a1;" horiz-adv-x="1277" 
d="M452 1443h478q181 0 297.5 -104.5t116.5 -272.5q0 -157 -73.5 -276.5t-201.5 -182.5t-289 -63h-382l-115 -544h-140zM565 1321l-141 -655h349q193 0 310.5 104t117.5 284q0 123 -84.5 195t-231.5 72h-320z" />
    <glyph glyph-name="Sigmagreek" unicode="&#x3a3;" horiz-adv-x="1322" 
d="M302 130l-1 -6h867l-26 -124h-1045l21 99l565 653l-277 587l22 104h1008l-26 -124h-840l-2 -6l261 -554l-6 -24z" />
    <glyph glyph-name="Taugreek" unicode="&#x3a4;" horiz-adv-x="1280" 
d="M666 0h-139l280 1319h-482l26 124h1104l-26 -124h-482z" />
    <glyph glyph-name="Upsilongreek" unicode="&#x3a5;" horiz-adv-x="1321" 
d="M690 0h-140l133 624l-342 819h143l289 -685h12l568 685h159l-695 -837z" />
    <glyph glyph-name="Phigreek" unicode="&#x3a6;" horiz-adv-x="1719" 
d="M736 -58l29 137q-263 20 -406.5 161t-143.5 373q0 159 58.5 295.5t164.5 235.5t260.5 156.5t339.5 60.5l28 134h139l-28 -134q263 -20 406.5 -161t143.5 -374q0 -158 -58.5 -294.5t-164.5 -235.5t-260.5 -156.5t-338.5 -60.5l-30 -137h-139zM791 202l220 1035
q-198 -1 -347.5 -80.5t-228 -217t-78.5 -312.5q0 -190 111 -302t323 -123zM931 203q149 1 272.5 47t207 126.5t129 193t45.5 244.5q0 189 -111 301t-323 123z" />
    <glyph glyph-name="Chigreek" unicode="&#x3a7;" horiz-adv-x="1367" 
d="M54 0l664 744l-338 699h156l282 -609h11l551 609h158l-659 -726l344 -717h-148l-295 618h-11l-558 -618h-157z" />
    <glyph glyph-name="Psigreek" unicode="&#x3a8;" horiz-adv-x="1633" 
d="M846 0h-140l73 345q-231 17 -351 126t-120 300q0 63 15 133l113 539h139l-112 -535q-16 -73 -16 -136q0 -143 92 -218t267 -83l207 972h139l-206 -972q232 2 359 115t174 336l110 521h139l-111 -526q-61 -290 -222.5 -425.5t-475.5 -146.5z" />
    <glyph glyph-name="Omegagreek" unicode="&#x3a9;" horiz-adv-x="1607" 
d="M914 0l35 161q231 111 357 299.5t126 430.5q0 207 -121 331t-328 124q-178 0 -315.5 -87.5t-211 -239.5t-73.5 -344q0 -348 305 -514l-34 -161h-519l27 124h357l4 13q-281 178 -281 535q0 227 93 408.5t267 287t398 105.5q263 0 418.5 -155.5t155.5 -413.5
q0 -247 -126.5 -453t-343.5 -314l-3 -13h372l-26 -124h-533z" />
    <glyph glyph-name="Omegagreek" unicode="&#x2126;" horiz-adv-x="1607" 
d="M914 0l35 161q231 111 357 299.5t126 430.5q0 207 -121 331t-328 124q-178 0 -315.5 -87.5t-211 -239.5t-73.5 -344q0 -348 305 -514l-34 -161h-519l27 124h357l4 13q-281 178 -281 535q0 227 93 408.5t267 287t398 105.5q263 0 418.5 -155.5t155.5 -413.5
q0 -247 -126.5 -453t-343.5 -314l-3 -13h372l-26 -124h-533z" />
    <glyph glyph-name="Iotadieresisgreek" unicode="&#x3aa;" horiz-adv-x="507" 
d="M283 0h-140l307 1443h140zM386 1568q-42 0 -72 29.5t-30 72.5t30 72.5t72 29.5q43 0 73 -29.5t30 -72.5t-30 -72.5t-73 -29.5zM750 1568q-43 0 -72.5 29.5t-29.5 72.5t29.5 72.5t72.5 29.5q42 0 72 -29.5t30 -72.5t-30 -72.5t-72 -29.5z" />
    <glyph glyph-name="Upsilondieresisgreek" unicode="&#x3ab;" horiz-adv-x="1321" 
d="M690 0h-140l133 624l-342 819h143l289 -685h12l568 685h159l-695 -837zM791 1568q-42 0 -72 29.5t-30 72.5t30 72.5t72 29.5q43 0 73 -29.5t30 -72.5t-30 -72.5t-73 -29.5zM1155 1568q-43 0 -72.5 29.5t-29.5 72.5t29.5 72.5t72.5 29.5q42 0 72 -29.5t30 -72.5t-30 -72.5
t-72 -29.5z" />
    <glyph glyph-name="alphatonosgreek" unicode="&#x3ac;" horiz-adv-x="1277" 
d="M535 -18q-164 0 -268 120.5t-104 311.5q0 187 71 343.5t193.5 247t269.5 90.5q139 0 231 -70t116 -193h13l53 245h127l-172 -811q-13 -52 -13 -87q0 -40 21 -56.5t71 -16.5q31 0 58 6l-24 -112q-42 -10 -82 -10q-89 0 -130.5 39.5t-41.5 127.5q0 12 9 57h-12
q-58 -109 -161 -170.5t-225 -61.5zM570 101q117 0 216 72t155.5 193.5t56.5 263.5q0 160 -78.5 253.5t-212.5 93.5q-112 0 -205.5 -72.5t-147.5 -198.5t-54 -277q0 -149 74 -238.5t196 -89.5zM815 1252h-121l157 328h159z" />
    <glyph glyph-name="epsilontonosgreek" unicode="&#x3ad;" horiz-adv-x="1117" 
d="M785 1252h-121l157 328h159zM555 -18q-175 0 -291 76.5t-116 211.5q0 110 69.5 183t188.5 98l3 12q-71 24 -112 77.5t-41 124.5q0 153 119 241.5t314 88.5q204 0 314 -84t127 -227h-134q-22 97 -96.5 145t-212.5 48q-139 0 -217.5 -58t-78.5 -150q0 -77 60 -119.5
t174 -42.5h156l-25 -118h-176q-140 0 -216 -54.5t-76 -149.5q0 -85 74.5 -134.5t203.5 -49.5q138 0 241 56.5t142 155.5h136q-44 -153 -184 -242t-346 -89z" />
    <glyph glyph-name="etatonosgreek" unicode="&#x3ae;" horiz-adv-x="1284" 
d="M883 -357l211 994q12 66 12 100q0 111 -67.5 175.5t-182.5 64.5q-131 0 -229.5 -87.5t-129.5 -234.5l-140 -655h-133l178 835q8 40 8 62q0 40 -20.5 57t-70.5 17q-32 0 -59 -5l24 111q38 10 80 10q83 0 124.5 -31.5t51.5 -104.5q0 -53 -2 -63h13q129 207 355 207
q150 0 244 -91t94 -239q0 -48 -15 -119l-214 -1003h-132zM821 1252h-121l157 328h159z" />
    <glyph glyph-name="iotatonosgreek" unicode="&#x3af;" horiz-adv-x="577" 
d="M472 1077l-161 -753q-11 -55 -11 -93q0 -124 148 -124q46 0 80 6l-24 -112q-40 -10 -101 -10q-116 0 -180 53.5t-64 150.5q0 37 11 94l169 788h133zM496 1252h-121l157 328h159z" />
    <glyph glyph-name="upsilondieresistonosgreek" unicode="&#x3b0;" horiz-adv-x="1149" 
d="M777 1252h-115l110 328h152zM487 1252q-39 0 -65 26t-26 65q0 46 32.5 79.5t82.5 33.5q39 0 65 -25.5t26 -63.5q0 -47 -32.5 -81t-82.5 -34zM1022 1252q-39 0 -65 26t-26 65q0 46 32.5 79.5t81.5 33.5q39 0 65 -25.5t26 -63.5q0 -47 -32.5 -81t-81.5 -34zM956 1077h136
q29 -113 29 -295q0 -374 -160.5 -587t-421.5 -213q-171 0 -264.5 82.5t-93.5 233.5q0 65 14 134l136 645h131l-134 -633q-17 -75 -15 -145q0 -97 58.5 -147t172.5 -50q208 0 325.5 181.5t117.5 491.5q0 175 -31 302z" />
    <glyph glyph-name="alphagreek" unicode="&#x3b1;" horiz-adv-x="1277" 
d="M535 -18q-164 0 -268 120.5t-104 311.5q0 187 71 343.5t193.5 247t269.5 90.5q139 0 231 -70t116 -193h13l53 245h127l-172 -811q-13 -52 -13 -87q0 -40 21 -56.5t71 -16.5q31 0 58 6l-24 -112q-42 -10 -82 -10q-89 0 -130.5 39.5t-41.5 127.5q0 12 9 57h-12
q-58 -109 -161 -170.5t-225 -61.5zM570 101q117 0 216 72t155.5 193.5t56.5 263.5q0 160 -78.5 253.5t-212.5 93.5q-112 0 -205.5 -72.5t-147.5 -198.5t-54 -277q0 -149 74 -238.5t196 -89.5z" />
    <glyph glyph-name="betagreek" unicode="&#x3b2;" horiz-adv-x="1246" 
d="M344 1058q50 239 165.5 352.5t318.5 113.5q171 0 276 -90.5t105 -239.5q0 -136 -71 -231.5t-202 -136.5l-2 -13q266 -83 266 -340q0 -211 -143 -351t-358 -140q-150 0 -249.5 68.5t-134.5 193.5h-12l-127 -601h-133zM607 754l25 118h105q151 0 245 83.5t94 216.5
q0 109 -65.5 171t-193.5 62q-134 0 -219 -88t-124 -271l-107 -503q-16 -71 -16 -122q0 -145 94 -232.5t248 -87.5q159 0 264.5 102.5t105.5 257.5q0 137 -89.5 215t-248.5 78h-118z" />
    <glyph glyph-name="gammagreek" unicode="&#x3b3;" horiz-adv-x="1094" 
d="M1131 1008q0 -213 -150 -459.5t-460 -571.5l-68 -319h-132l69 323l-146 1096h139l109 -956h15q248 272 370.5 486t122.5 406q0 37 -5 64h132q4 -22 4 -69z" />
    <glyph glyph-name="deltagreek" unicode="&#x3b4;" horiz-adv-x="1189" 
d="M594 -18q-199 0 -320 120.5t-121 317.5q0 154 60 279.5t174 204t265 91.5h10l4 14q-190 94 -190 239q0 127 107 201.5t289 74.5q103 0 195 -23t138 -61l-29 -117q-128 85 -326 85q-113 0 -177.5 -40.5t-64.5 -112.5q0 -55 42 -96.5t168 -107.5q180 -95 260 -204t80 -265
q0 -123 -44.5 -234.5t-120 -191.5t-180 -127t-219.5 -47zM607 98q177 0 296 135.5t119 335.5q0 149 -89.5 244t-229.5 95q-177 0 -295 -134.5t-118 -346.5q0 -147 87.5 -238t229.5 -91z" />
    <glyph glyph-name="epsilongreek" unicode="&#x3b5;" horiz-adv-x="1117" 
d="M555 -18q-175 0 -291 76.5t-116 211.5q0 110 69.5 183t188.5 98l3 12q-71 24 -112 77.5t-41 124.5q0 153 119 241.5t314 88.5q204 0 314 -84t127 -227h-134q-22 97 -96.5 145t-212.5 48q-139 0 -217.5 -58t-78.5 -150q0 -77 60 -119.5t174 -42.5h156l-25 -118h-176
q-140 0 -216 -54.5t-76 -149.5q0 -85 74.5 -134.5t203.5 -49.5q138 0 241 56.5t142 155.5h136q-44 -153 -184 -242t-346 -89z" />
    <glyph glyph-name="zetagreek" unicode="&#x3b6;" horiz-adv-x="911" 
d="M727 -359l-101 36q95 111 95 204q0 53 -38.5 91.5t-137.5 79.5q-211 86 -300.5 190t-89.5 265q0 235 186 454.5t530 412.5l3 13h-495l25 119h700l6 -126q-379 -182 -598.5 -409.5t-219.5 -453.5q0 -120 61.5 -192.5t227.5 -144.5q161 -69 218 -126.5t57 -144.5
q0 -140 -129 -268z" />
    <glyph glyph-name="etagreek" unicode="&#x3b7;" horiz-adv-x="1294" 
d="M883 -357l211 994q12 66 12 100q0 111 -67.5 175.5t-182.5 64.5q-131 0 -229.5 -87.5t-129.5 -234.5l-140 -655h-133l178 835q8 40 8 62q0 40 -20.5 57t-70.5 17q-32 0 -59 -5l24 111q38 10 80 10q83 0 124.5 -31.5t51.5 -104.5q0 -53 -2 -63h13q129 207 355 207
q150 0 244 -91t94 -239q0 -48 -15 -119l-214 -1003h-132z" />
    <glyph glyph-name="thetagreek" unicode="&#x3b8;" horiz-adv-x="1225" 
d="M608 -18q-196 0 -299.5 127.5t-103.5 374.5q0 126 28 285q66 373 220.5 564t385.5 191q197 0 299.5 -128.5t102.5 -375.5q0 -122 -28 -287q-65 -369 -219 -560t-386 -191zM615 101q171 0 283 147t173 454h-714q-18 -127 -18 -226q0 -176 69 -275.5t207 -99.5zM378 820
h712q16 101 16 199q0 386 -282 386q-328 0 -446 -585z" />
    <glyph glyph-name="iotagreek" unicode="&#x3b9;" horiz-adv-x="577" 
d="M472 1077l-161 -753q-11 -55 -11 -93q0 -124 148 -124q46 0 80 6l-24 -112q-40 -10 -101 -10q-116 0 -180 53.5t-64 150.5q0 37 11 94l169 788h133z" />
    <glyph glyph-name="kappagreek" unicode="&#x3ba;" horiz-adv-x="1123" 
d="M1111 1087q51 0 81 -10l-23 -111q-35 6 -57 6q-39 0 -71.5 -18t-81.5 -68l-214 -213l295 -673h-138l-249 583l-350 -346l-49 -237h-133l227 1077h134l-131 -614h12l476 475q90 90 144 119.5t128 29.5z" />
    <glyph glyph-name="lambdagreek" unicode="&#x3bb;" horiz-adv-x="1093" 
d="M1015 106q25 0 54 6l-24 -112q-38 -10 -80 -10q-90 0 -135.5 44t-59.5 147l-89 654h-12l-495 -835h-153l631 1028l-21 144q-16 105 -35 153t-48.5 65t-88.5 17q-27 0 -59 -6l24 112q39 11 87 11q119 0 170 -68t79 -262l137 -982q7 -58 34.5 -82t83.5 -24z" />
    <glyph glyph-name="nugreek" unicode="&#x3bd;" horiz-adv-x="1095" 
d="M1131 1008q0 -211 -142.5 -448.5t-443.5 -559.5h-158l-143 1077h139l109 -956h15q248 272 370.5 486t122.5 406q0 37 -5 64h132q4 -22 4 -69z" />
    <glyph glyph-name="xigreek" unicode="&#x3be;" horiz-adv-x="933" 
d="M730 -359l-101 36q96 114 96 203q0 54 -39.5 94t-138.5 81q-227 93 -318 182t-91 214q0 145 95 236t273 126l3 11q-102 35 -150 92.5t-48 143.5q0 233 309 316l2 11h-257l25 119h683l6 -107l-122 -10q-256 -25 -388 -105t-132 -207q0 -100 95.5 -151t273.5 -51h94
l-25 -118h-87q-244 0 -377.5 -73.5t-133.5 -211.5q0 -85 66.5 -149t239.5 -140q158 -67 217 -125t59 -148q0 -73 -30.5 -137t-98.5 -132z" />
    <glyph glyph-name="omicrongreek" unicode="&#x3bf;" horiz-adv-x="1185" 
d="M602 -18q-190 0 -312 122t-122 328q0 134 40.5 254.5t113 211t181.5 144t238 53.5q125 0 222.5 -59t148.5 -158t51 -221q0 -147 -43.5 -274t-119 -214.5t-178.5 -137t-220 -49.5zM612 101q170 0 291 149.5t121 372.5q0 160 -81 257t-222 97q-122 0 -217.5 -71
t-146 -190.5t-50.5 -264.5q0 -163 86 -256.5t219 -93.5z" />
    <glyph glyph-name="pigreek" unicode="&#x3c0;" horiz-adv-x="1379" 
d="M952 256l149 703h-482l-203 -959h-127l203 959h-243l25 118h1186l-25 -118h-208l-148 -704q-11 -51 -11 -73q0 -42 20.5 -59t72.5 -17q33 0 60 6l-23 -112q-40 -10 -93 -10q-169 0 -169 154q0 36 16 112z" />
    <glyph glyph-name="rhogreek" unicode="&#x3c1;" horiz-adv-x="1223" 
d="M651 101q82 0 157 37.5t132 104t91 165.5t34 215q0 165 -81.5 259.5t-231.5 94.5q-119 0 -213 -74t-145 -198t-51 -273q0 -152 84 -241.5t224 -89.5zM759 1095q203 0 322.5 -129t119.5 -332q0 -183 -72.5 -333t-197.5 -234.5t-274 -84.5q-134 0 -229.5 72.5t-120.5 189.5
h-12l-129 -601h-133l197 921q57 270 194.5 400.5t334.5 130.5z" />
    <glyph glyph-name="sigmafinalgreek" unicode="&#x3c2;" horiz-adv-x="1124" 
d="M598 183q157 -67 216 -125.5t59 -148.5q0 -143 -129 -268l-101 36q96 112 96 204q0 54 -40 94t-137 80q-212 86 -301 195t-89 280q0 119 38 222t107.5 179.5t174.5 120t233 43.5q182 0 295.5 -98.5t126.5 -241.5h-132q-19 96 -97.5 159t-194.5 63q-131 0 -226.5 -62.5
t-141.5 -161.5t-46 -219q0 -128 65 -205t224 -146z" />
    <glyph glyph-name="sigmagreek" unicode="&#x3c3;" horiz-adv-x="1251" 
d="M589 -18q-194 0 -308.5 119.5t-114.5 317.5q0 185 68 333t200.5 236.5t308.5 88.5h604l-24 -118h-322l-3 -13q141 -98 141 -313q0 -177 -69 -325.5t-195.5 -237t-285.5 -88.5zM588 100q125 0 221 70.5t148 193.5t52 279q0 149 -70.5 232t-197.5 83q-194 0 -316.5 -151
t-122.5 -390q0 -151 75 -234t211 -83z" />
    <glyph glyph-name="taugreek" unicode="&#x3c4;" horiz-adv-x="1055" 
d="M810 113l-24 -112q-46 -10 -107 -10q-113 0 -179 52.5t-66 151.5q0 39 11 94l145 670h-377l26 118h899l-25 -118h-391l-136 -635q-11 -55 -11 -93q0 -124 148 -124q51 0 87 6z" />
    <glyph glyph-name="upsilongreek" unicode="&#x3c5;" horiz-adv-x="1149" 
d="M956 1077h136q29 -113 29 -295q0 -374 -160.5 -587t-421.5 -213q-171 0 -264.5 82.5t-93.5 233.5q0 65 14 134l136 645h131l-134 -633q-17 -75 -15 -145q0 -97 58.5 -147t172.5 -50q208 0 325.5 181.5t117.5 491.5q0 175 -31 302z" />
    <glyph glyph-name="phigreek" unicode="&#x3c6;" horiz-adv-x="1488" 
d="M565 -357l72 344q-221 23 -346 144.5t-125 313.5q0 190 88.5 337.5t249 229t367.5 81.5l54 254h130l-55 -260q218 -23 343.5 -145t125.5 -312q0 -188 -88.5 -335.5t-249 -230t-366.5 -82.5l-71 -339h-129zM661 99l186 884q-245 -3 -396 -148t-151 -376q0 -152 95 -246.5
t266 -113.5zM789 91q246 7 395.5 151t149.5 375q0 149 -95.5 244t-262.5 114z" />
    <glyph glyph-name="chigreek" unicode="&#x3c7;" horiz-adv-x="1116" 
d="M928 -367q-85 0 -128.5 33.5t-68.5 118.5l-130 441h-13l-435 -583h-144l551 721l-147 494q-19 65 -48 89t-87 24q-26 0 -52 -6l24 112q41 10 82 10q81 0 126 -35.5t70 -121.5l133 -448h13l433 595h144l-548 -733l141 -483q19 -65 47 -88.5t87 -23.5q20 0 52 6l-24 -112
q-36 -10 -78 -10z" />
    <glyph glyph-name="psigreek" unicode="&#x3c8;" horiz-adv-x="1434" 
d="M656 -357h-128l72 338q-207 4 -312 85.5t-105 235.5q0 71 17 156l131 619h131l-136 -641q-13 -59 -13 -119q0 -106 75 -159t236 -57l266 1246h127l-266 -1251q250 8 384 179t134 489q0 190 -32 313h135q32 -104 32 -315q0 -237 -73 -410.5t-227 -273.5t-377 -101z" />
    <glyph glyph-name="omegagreek" unicode="&#x3c9;" horiz-adv-x="1566" 
d="M1520 642q0 -185 -59.5 -336.5t-164 -237.5t-231.5 -86q-215 0 -256 234h-14q-49 -113 -131 -173.5t-188 -60.5q-151 0 -230.5 97.5t-79.5 282.5q0 195 78 396t200 319h146q-131 -131 -209.5 -325t-78.5 -391q0 -122 50 -190.5t139 -68.5q101 0 170.5 74.5t99.5 214.5
l79 367h131l-70 -335q-12 -52 -12 -101q0 -104 50 -162t140 -58q134 0 219.5 153.5t85.5 395.5q0 256 -124 426h145q115 -155 115 -435z" />
    <glyph glyph-name="iotadieresisgreek" unicode="&#x3ca;" horiz-adv-x="577" 
d="M259 1228q-42 0 -72 29.5t-30 72.5t30 72.5t72 29.5q43 0 73 -29.5t30 -72.5t-30 -72.5t-73 -29.5zM623 1228q-43 0 -72.5 29.5t-29.5 72.5t29.5 72.5t72.5 29.5q42 0 72 -29.5t30 -72.5t-30 -72.5t-72 -29.5zM472 1077l-161 -753q-11 -55 -11 -93q0 -124 148 -124
q46 0 80 6l-24 -112q-40 -10 -101 -10q-116 0 -180 53.5t-64 150.5q0 37 11 94l169 788h133z" />
    <glyph glyph-name="upsilondieresisgreek" unicode="&#x3cb;" horiz-adv-x="1149" 
d="M571 1228q-42 0 -72 29.5t-30 72.5t30 72.5t72 29.5q43 0 73 -29.5t30 -72.5t-30 -72.5t-73 -29.5zM935 1228q-43 0 -72.5 29.5t-29.5 72.5t29.5 72.5t72.5 29.5q42 0 72 -29.5t30 -72.5t-30 -72.5t-72 -29.5zM956 1077h136q29 -113 29 -295q0 -374 -160.5 -587
t-421.5 -213q-171 0 -264.5 82.5t-93.5 233.5q0 65 14 134l136 645h131l-134 -633q-17 -75 -15 -145q0 -97 58.5 -147t172.5 -50q208 0 325.5 181.5t117.5 491.5q0 175 -31 302z" />
    <glyph glyph-name="omicrontonosgreek" unicode="&#x3cc;" horiz-adv-x="1183" 
d="M602 -18q-190 0 -312 122t-122 328q0 134 40.5 254.5t113 211t181.5 144t238 53.5q125 0 222.5 -59t148.5 -158t51 -221q0 -147 -43.5 -274t-119 -214.5t-178.5 -137t-220 -49.5zM612 101q170 0 291 149.5t121 372.5q0 160 -81 257t-222 97q-122 0 -217.5 -71
t-146 -190.5t-50.5 -264.5q0 -163 86 -256.5t219 -93.5zM809 1252h-121l157 328h159z" />
    <glyph glyph-name="upsilontonosgreek" unicode="&#x3cd;" horiz-adv-x="1149" 
d="M785 1252h-121l157 328h159zM956 1077h136q29 -113 29 -295q0 -374 -160.5 -587t-421.5 -213q-171 0 -264.5 82.5t-93.5 233.5q0 65 14 134l136 645h131l-134 -633q-17 -75 -15 -145q0 -97 58.5 -147t172.5 -50q208 0 325.5 181.5t117.5 491.5q0 175 -31 302z" />
    <glyph glyph-name="omegatonosgreek" unicode="&#x3ce;" horiz-adv-x="1566" 
d="M1520 642q0 -185 -59.5 -336.5t-164 -237.5t-231.5 -86q-215 0 -256 234h-14q-49 -113 -131 -173.5t-188 -60.5q-151 0 -230.5 97.5t-79.5 282.5q0 195 78 396t200 319h146q-131 -131 -209.5 -325t-78.5 -391q0 -122 50 -190.5t139 -68.5q101 0 170.5 74.5t99.5 214.5
l79 367h131l-70 -335q-12 -52 -12 -101q0 -104 50 -162t140 -58q134 0 219.5 153.5t85.5 395.5q0 256 -124 426h145q115 -155 115 -435zM1031 1252h-121l157 328h159z" />
    <glyph glyph-name="Iocyrillic" unicode="&#x401;" horiz-adv-x="1216" 
d="M762 1568q-42 0 -72 29.5t-30 72.5t30 72.5t72 29.5q43 0 73 -29.5t30 -72.5t-30 -72.5t-73 -29.5zM1126 1568q-43 0 -72.5 29.5t-29.5 72.5t29.5 72.5t72.5 29.5q42 0 72 -29.5t30 -72.5t-30 -72.5t-72 -29.5zM1052 124l-26 -124h-873l307 1443h873l-27 -124h-732
l-112 -519h697l-26 -122h-696l-119 -554h734z" />
    <glyph glyph-name="Djecyrillic" unicode="&#x402;" horiz-adv-x="1712" 
d="M1626 479q0 -212 -143.5 -352.5t-361.5 -140.5q-65 0 -140 15l26 123l7 -2q7 -1 16.5 -3t22.5 -4t31.5 -3t38.5 -1q158 0 261 106t103 261q0 134 -73.5 211t-220.5 77q-115 0 -224 -59t-173 -139l-120 -568h-140l281 1320h-482l26 123h1104l-27 -123h-482l-123 -579h11
q69 67 163.5 108t200.5 41q202 0 310 -111t108 -300z" />
    <glyph glyph-name="Gjecyrillic" unicode="&#x403;" horiz-adv-x="1158" 
d="M780 1577l372 297h175l-388 -297h-159zM293 0h-140l307 1443h851l-27 -124h-710z" />
    <glyph glyph-name="Ecyrillic" unicode="&#x404;" horiz-adv-x="1469" 
d="M1394 411q-66 -206 -231.5 -323.5t-389.5 -117.5q-140 0 -250.5 51t-181 148t-96.5 237t4 319q29 216 128.5 384.5t262 266t361.5 97.5q135 0 250 -56t187 -159.5t77 -232.5v-23h-139q-4 152 -115 248t-276 96q-211 0 -370 -150t-217 -395h692l-26 -124h-688
q-34 -264 77.5 -422t333.5 -158q165 0 288.5 86t179.5 228h139z" />
    <glyph glyph-name="Dzecyrillic" unicode="&#x405;" horiz-adv-x="1287" 
d="M152 392h138q19 -134 130.5 -215.5t275.5 -81.5q165 0 266.5 79.5t101.5 208.5q0 93 -62 159t-201 115l-136 48q-157 55 -238 148.5t-81 216.5q0 174 140.5 288.5t353.5 114.5q202 0 341.5 -112t155.5 -286h-137q-23 124 -123.5 198.5t-245.5 74.5q-148 0 -244.5 -75.5
t-96.5 -191.5q0 -86 61.5 -149t195.5 -111l132 -47q329 -118 329 -376q0 -190 -145.5 -309t-377.5 -119q-222 0 -367 115t-166 307z" />
    <glyph glyph-name="Icyrillic" unicode="&#x406;" horiz-adv-x="528" 
d="M293 0h-140l307 1443h140z" />
    <glyph glyph-name="Yicyrillic" unicode="&#x407;" horiz-adv-x="529" 
d="M293 0h-140l307 1443h140zM396 1568q-42 0 -72 29.5t-30 72.5t30 72.5t72 29.5q43 0 73 -29.5t30 -72.5t-30 -72.5t-73 -29.5zM760 1568q-43 0 -72.5 29.5t-29.5 72.5t29.5 72.5t72.5 29.5q42 0 72 -29.5t30 -72.5t-30 -72.5t-72 -29.5z" />
    <glyph glyph-name="Jecyrillic" unicode="&#x408;" horiz-adv-x="1108" 
d="M134 330h137v-6q1 -103 70 -164.5t182 -61.5q116 0 191.5 73.5t106.5 216.5l224 1055h136l-231 -1090q-39 -183 -153 -283t-290 -100q-169 0 -275 100.5t-98 252.5v7z" />
    <glyph glyph-name="Ljecyrillic" unicode="&#x409;" horiz-adv-x="2144" 
d="M507 510q-36 -131 -75 -222.5t-92 -160.5t-122 -102.5t-158 -33.5q-38 0 -63 10l26 123q19 -7 53 -7q107 0 176.5 101.5t122.5 298.5l252 926h834l-116 -544h307q199 0 323 -107t124 -284q0 -101 -40 -193.5t-110.5 -162t-173.5 -111t-222 -41.5h-538l281 1319h-568z
M1625 777h-305l-140 -655h360q179 0 298 105t119 261q0 141 -89.5 215t-242.5 74z" />
    <glyph glyph-name="Njecyrillic" unicode="&#x40a;" horiz-adv-x="2178" 
d="M1069 0l145 677h-781l-144 -677h-139l307 1443h139l-136 -642h780l136 642h140l-137 -643h320q188 0 305.5 -96t117.5 -254q0 -89 -37.5 -171t-104 -144t-165.5 -98.5t-215 -36.5h-531zM1235 122h352q178 0 285.5 88t107.5 224q0 117 -83.5 180.5t-224.5 63.5h-319z" />
    <glyph glyph-name="Tshecyrillic" unicode="&#x40b;" horiz-adv-x="1734" 
d="M1204 766q-126 0 -237 -59t-171 -139l-120 -568h-140l281 1319h-482l26 124h1104l-27 -124h-482l-123 -576h14q172 147 382 147q217 0 319.5 -136.5t52.5 -367.5l-82 -386h-140l84 392q38 178 -32.5 276t-226.5 98z" />
    <glyph glyph-name="Kjecyrillic" unicode="&#x40c;" horiz-adv-x="1321" 
d="M1390 1874l-388 -297h-159l372 297h175zM1468 1443l-868 -710l605 -733h-161l-567 684h-39l-145 -684h-140l307 1443h140l-139 -650h40l786 650h181z" />
    <glyph glyph-name="Ushortcyrillic" unicode="&#x40e;" horiz-adv-x="1303" 
d="M647 1851h120q-18 -83 26 -132.5t130 -49.5t151.5 49.5t83.5 132.5h120q-27 -128 -125.5 -201t-238.5 -73q-145 0 -219.5 73.5t-47.5 200.5zM284 -10q-53 0 -73 12l26 124q25 -9 73 -9q85 0 154.5 47.5t147.5 160.5l-262 1118h145l214 -961h13l605 961h157l-693 -1072
q-69 -107 -122.5 -173.5t-113.5 -116t-125 -70.5t-146 -21z" />
    <glyph glyph-name="Dzhecyrillic" unicode="&#x40f;" horiz-adv-x="1489" 
d="M639 0h-486l307 1443h137l-281 -1318h825l280 1318h139l-307 -1443h-486l-61 -285h-128z" />
    <glyph glyph-name="Acyrillic" unicode="&#x410;" horiz-adv-x="1383" 
d="M1122 0l-67 443h-608l-254 -443h-149l851 1443h128l233 -1443h-134zM917 1262l-404 -702h527l-110 702h-13z" />
    <glyph glyph-name="Becyrillic" unicode="&#x411;" horiz-adv-x="1295" 
d="M691 0h-538l307 1443h838l-27 -124h-697l-100 -467h317q200 0 323 -101.5t123 -266.5q0 -96 -40 -184t-110 -154.5t-173.5 -106t-222.5 -39.5zM318 122h360q179 0 298 98t119 244q0 127 -88.5 196t-242.5 69h-316z" />
    <glyph glyph-name="Vecyrillic" unicode="&#x412;" horiz-adv-x="1343" 
d="M726 0h-573l307 1443h480q182 0 291 -86t109 -225q0 -144 -91.5 -247t-240.5 -129l-3 -13q123 -20 194.5 -98t71.5 -194q0 -195 -152 -323t-393 -128zM573 1322l-109 -515h347q170 0 278.5 83t108.5 214q0 104 -78 161t-228 57h-319zM318 121h404q175 0 290 92t115 227
q0 119 -85 183.5t-247 64.5h-357z" />
    <glyph glyph-name="Gecyrillic" unicode="&#x413;" horiz-adv-x="1158" 
d="M293 0h-140l307 1443h851l-27 -124h-710z" />
    <glyph glyph-name="Decyrillic" unicode="&#x414;" horiz-adv-x="1485" 
d="M496 503q-38 -136 -80 -223.5t-108 -145.5l-2 -10h768l255 1195h-610zM126 0l-61 -285h-127l87 409h102q83 39 140 135t98 249l255 935h875l-281 -1319h183l-87 -409h-128l61 285h-1117z" />
    <glyph glyph-name="Iecyrillic" unicode="&#x415;" horiz-adv-x="1216" 
d="M1052 124l-26 -124h-873l307 1443h873l-27 -124h-732l-112 -519h697l-26 -122h-696l-119 -554h734z" />
    <glyph glyph-name="Zhecyrillic" unicode="&#x416;" horiz-adv-x="2004" 
d="M1007 685l-796 -685h-188l878 760l-490 683h157l461 -652h40l139 652h136l-139 -652h40l739 652h180l-815 -708l539 -735h-161l-504 685h-40l-146 -685h-136l145 685h-39z" />
    <glyph glyph-name="Zecyrillic" unicode="&#x417;" horiz-adv-x="1262" 
d="M519 681l26 124h201q161 0 268 84.5t107 212.5q0 118 -75 183.5t-214 65.5q-133 0 -233.5 -72t-141.5 -196h-134q54 183 195.5 286.5t330.5 103.5q193 0 304.5 -99.5t111.5 -257.5q0 -144 -95.5 -244t-255.5 -125l-3 -12q127 -24 199 -105t72 -210q0 -193 -151 -321.5
t-376 -128.5q-121 0 -217.5 33.5t-156.5 90.5t-92.5 128t-35.5 150h133q2 -114 99 -197.5t267 -83.5q168 0 278 90.5t110 231.5q0 127 -88.5 197.5t-247.5 70.5h-185z" />
    <glyph glyph-name="Iicyrillic" unicode="&#x418;" horiz-adv-x="1513" 
d="M1139 0l256 1206h-12l-1092 -1206h-138l307 1443h138l-257 -1207h12l1093 1207h138l-307 -1443h-138z" />
    <glyph glyph-name="Iishortcyrillic" unicode="&#x419;" horiz-adv-x="1513" 
d="M760 1851h120q-18 -83 26 -132.5t130 -49.5t151.5 49.5t83.5 132.5h120q-27 -128 -125.5 -201t-238.5 -73q-145 0 -219.5 73.5t-47.5 200.5zM1139 0l256 1206h-12l-1092 -1206h-138l307 1443h138l-257 -1207h12l1093 1207h138l-307 -1443h-138z" />
    <glyph glyph-name="Kacyrillic" unicode="&#x41a;" horiz-adv-x="1321" 
d="M1468 1443l-868 -710l605 -733h-161l-567 684h-39l-145 -684h-140l307 1443h140l-139 -650h40l786 650h181z" />
    <glyph glyph-name="Elcyrillic" unicode="&#x41b;" horiz-adv-x="1403" 
d="M1167 0h-140l281 1319h-580l-221 -809q-34 -125 -71 -213.5t-89.5 -161t-123.5 -108.5t-163 -36q-36 0 -63 10l26 123q19 -7 53 -7q57 0 104 29t82.5 86t61.5 124.5t51 160.5l252 926h847z" />
    <glyph glyph-name="Emcyrillic" unicode="&#x41c;" horiz-adv-x="1782" 
d="M284 0h-131l307 1443h150l267 -1256h12l797 1256h167l-307 -1443h-131l250 1177h-9l-745 -1170h-119l-248 1170h-10z" />
    <glyph glyph-name="Encyrillic" unicode="&#x41d;" horiz-adv-x="1509" 
d="M1273 0h-140l144 677h-841l-144 -677h-139l307 1443h140l-137 -642h841l137 642h139z" />
    <glyph glyph-name="Ocyrillic" unicode="&#x41e;" horiz-adv-x="1583" 
d="M809 -30q-253 0 -414 169.5t-161 434.5q0 189 58.5 356t160 286t244 188t303.5 69q252 0 412 -169t160 -435q0 -254 -99 -460t-273.5 -322.5t-390.5 -116.5zM1429 858q0 220 -120.5 354t-318.5 134q-171 0 -311.5 -100t-220.5 -274.5t-80 -386.5q0 -220 121 -354
t320 -134q172 0 311.5 99t219 273.5t79.5 388.5z" />
    <glyph glyph-name="Pecyrillic" unicode="&#x41f;" horiz-adv-x="1489" 
d="M1253 0h-137l281 1318h-825l-280 -1318h-139l307 1443h1100z" />
    <glyph glyph-name="Ercyrillic" unicode="&#x420;" horiz-adv-x="1291" 
d="M461 1443h478q181 0 297.5 -104.5t116.5 -272.5q0 -157 -73.5 -276.5t-201.5 -182.5t-289 -63h-382l-115 -544h-140zM574 1321l-141 -655h349q193 0 310.5 104t117.5 284q0 123 -84.5 195t-231.5 72h-320z" />
    <glyph glyph-name="Escyrillic" unicode="&#x421;" horiz-adv-x="1486" 
d="M788 -32q-251 0 -404 161.5t-153 424.5q0 194 58.5 365t159.5 292.5t242 191.5t301 70q224 0 377 -133t158 -336v-13h-139q-7 160 -120.5 257.5t-285.5 97.5q-168 0 -308 -102.5t-220.5 -281.5t-80.5 -394t116 -344t313 -129q169 0 292 81t169 217h145
q-57 -198 -221 -311.5t-399 -113.5z" />
    <glyph glyph-name="Tecyrillic" unicode="&#x422;" horiz-adv-x="1295" 
d="M676 0h-139l280 1319h-482l26 124h1104l-26 -124h-482z" />
    <glyph glyph-name="Ucyrillic" unicode="&#x423;" horiz-adv-x="1303" 
d="M284 -10q-53 0 -73 12l26 124q25 -9 73 -9q85 0 154.5 47.5t147.5 160.5l-262 1118h145l214 -961h13l605 961h157l-693 -1072q-69 -107 -122.5 -173.5t-113.5 -116t-125 -70.5t-146 -21z" />
    <glyph glyph-name="Efcyrillic" unicode="&#x424;" horiz-adv-x="1678" 
d="M862 -17h-136l33 154q-250 8 -392 135t-142 344q0 195 100.5 353t279.5 249t404 95l31 147h135l-31 -147q250 -8 392 -135t142 -344q0 -196 -100.5 -353.5t-279.5 -248.5t-404 -95zM365 619q0 -165 111.5 -260t308.5 -99l198 930q-177 -4 -318.5 -79t-220.5 -204
t-79 -288zM1539 831q0 165 -112 260t-309 99l-198 -930q178 4 319.5 79t220.5 204t79 288z" />
    <glyph glyph-name="Xacyrillic" unicode="&#x425;" horiz-adv-x="1387" 
d="M64 0l664 744l-338 699h156l282 -609h11l551 609h158l-659 -726l344 -717h-148l-295 618h-11l-558 -618h-157z" />
    <glyph glyph-name="Tsecyrillic" unicode="&#x426;" horiz-adv-x="1548" 
d="M1373 -285h-128l61 285h-1154l309 1443h136l-280 -1318h821l281 1318h138l-281 -1319h183z" />
    <glyph glyph-name="Checyrillic" unicode="&#x427;" horiz-adv-x="1380" 
d="M1144 0h-137l150 704h-11q-178 -151 -419 -151q-226 0 -336.5 145.5t-62.5 373.5l80 371h136l-79 -372q-37 -176 39 -283.5t247 -107.5q144 0 261 59.5t183 145.5l119 558h137z" />
    <glyph glyph-name="Shacyrillic" unicode="&#x428;" horiz-adv-x="1937" 
d="M153 0l307 1443h140l-282 -1319h566l281 1319h139l-281 -1319h565l281 1319h139l-307 -1443h-1548z" />
    <glyph glyph-name="Shchacyrillic" unicode="&#x429;" horiz-adv-x="2000" 
d="M1824 -285h-127l61 285h-1604l307 1443h139l-281 -1319h565l281 1319h140l-281 -1319h565l281 1319h139l-281 -1319h183z" />
    <glyph glyph-name="Hardsigncyrillic" unicode="&#x42a;" horiz-adv-x="1497" 
d="M906 0h-538l281 1319h-340l27 124h478l-116 -544h307q201 0 324 -107.5t123 -283.5q0 -100 -40 -192.5t-110 -162t-173.5 -111.5t-222.5 -42zM979 777h-306l-140 -655h360q179 0 298 105t119 261q0 139 -89 214t-242 75z" />
    <glyph glyph-name="Yericyrillic" unicode="&#x42b;" horiz-adv-x="1709" 
d="M1474 0h-140l307 1443h140zM764 777h-306l-140 -655h360q179 0 298 105t119 261q0 141 -89 215t-242 74zM153 0l307 1443h140l-116 -544h307q199 0 322.5 -107t123.5 -284q0 -101 -40 -193.5t-110.5 -162t-173.5 -111t-222 -41.5h-538z" />
    <glyph glyph-name="Softsigncyrillic" unicode="&#x42c;" horiz-adv-x="1283" 
d="M764 777h-306l-140 -655h360q179 0 298 105t119 261q0 141 -89 215t-242 74zM153 0l307 1443h140l-116 -544h307q199 0 322.5 -107t123.5 -284q0 -101 -40 -193.5t-110.5 -162t-173.5 -111t-222 -41.5h-538z" />
    <glyph glyph-name="Ereversedcyrillic" unicode="&#x42d;" horiz-adv-x="1476" 
d="M695 -30q-204 0 -352.5 123.5t-161.5 317.5h140q15 -141 124 -227.5t266 -86.5q219 0 381 160.5t213 419.5h-687l26 124h679q24 249 -88 397t-326 148q-172 0 -298.5 -93t-183.5 -251h-140q68 224 236.5 347.5t398.5 123.5q287 0 434.5 -202.5t90.5 -552.5
q-29 -216 -129 -384.5t-262 -266t-361 -97.5z" />
    <glyph glyph-name="IUcyrillic" unicode="&#x42e;" horiz-adv-x="2059" 
d="M1303 97q166 0 305 103t219 279.5t80 385.5q0 221 -120 351t-310 130q-169 0 -308 -100.5t-218 -274.5t-79 -384q0 -227 120 -358.5t311 -131.5zM463 801h291q30 145 96 268.5t159.5 213t216.5 140t261 50.5q118 0 221.5 -43.5t178.5 -120t118 -186.5t43 -237
q0 -185 -56.5 -353t-154 -292t-237 -197.5t-297.5 -73.5q-252 0 -412.5 161.5t-160.5 434.5q0 51 5 111h-299l-144 -677h-139l307 1443h140z" />
    <glyph glyph-name="IAcyrillic" unicode="&#x42f;" horiz-adv-x="1330" 
d="M791 687h311l134 634h-359q-179 0 -298 -101t-119 -252q0 -135 88.5 -208t242.5 -73zM763 566l-516 -566h-179l536 587q-134 37 -210.5 132.5t-76.5 228.5q0 98 40 187.5t110 158t173.5 109t222.5 40.5h539l-307 -1443h-140l120 565h-298q-10 0 -14 1z" />
    <glyph glyph-name="acyrillic" unicode="&#x430;" horiz-adv-x="1146" 
d="M511 97q135 0 240.5 80.5t131.5 202.5l32 149l-321 -17q-152 -8 -235 -67.5t-83 -158.5q0 -83 65.5 -136t169.5 -53zM472 -18q-142 0 -236.5 83t-94.5 208q0 156 119.5 246.5t340.5 100.5l337 16l17 81q8 42 8 64q0 92 -67.5 144t-187.5 52q-106 0 -181 -45t-100 -122
h-139q33 130 150.5 207.5t280.5 77.5q171 0 274 -80.5t103 -216.5q0 -39 -10 -89l-150 -709h-128l35 165h-12q-57 -84 -153.5 -133.5t-205.5 -49.5z" />
    <glyph glyph-name="becyrillic" unicode="&#x431;" horiz-adv-x="1239" 
d="M764 1064q193 0 309 -124t116 -320q0 -175 -65.5 -318.5t-196 -231.5t-303.5 -88q-195 0 -314.5 123.5t-119.5 323.5q0 145 67 383q29 103 59.5 182.5t71 153.5t89.5 126t111.5 92t142.5 60.5t177 23.5q44 0 152 6q133 8 246 49l-24 -117q-1 0 -10.5 -4.5t-20.5 -9.5
t-32 -11t-44.5 -11.5t-59 -10t-74.5 -6.5q-72 -8 -155 -8q-88 -2 -158.5 -25t-121.5 -60t-93.5 -96.5t-72 -125t-59.5 -155.5h12q63 93 157.5 146t213.5 53zM641 101q170 0 289.5 142.5t119.5 347.5q0 166 -82 260t-227 94q-185 0 -300.5 -146t-115.5 -362q0 -156 84.5 -246
t231.5 -90z" />
    <glyph glyph-name="vecyrillic" unicode="&#x432;" horiz-adv-x="1115" 
d="M136 0l229 1077h404q141 0 220.5 -64t79.5 -173q0 -103 -68.5 -176t-177.5 -94l-2 -13q95 -12 149.5 -67.5t54.5 -139.5q0 -152 -122.5 -251t-326.5 -99h-440zM653 501h-277l-82 -390h303q132 0 211.5 64.5t79.5 165.5q0 160 -235 160zM746 966h-271l-75 -354h264
q123 0 195.5 61t72.5 149q0 144 -186 144z" />
    <glyph glyph-name="gecyrillic" unicode="&#x433;" horiz-adv-x="945" 
d="M1015 966h-539l-206 -966h-134l229 1077h673z" />
    <glyph glyph-name="decyrillic" unicode="&#x434;" horiz-adv-x="1265" 
d="M876 111l182 855h-471q-66 -246 -143 -503q-75 -251 -168 -340l-2 -12h602zM66 -285h-124l85 396h88q59 37 113.5 133t91.5 224q13 43 86 300.5t87 308.5h722l-205 -966h175l-85 -396h-124l61 285h-910z" />
    <glyph glyph-name="iecyrillic" unicode="&#x435;" horiz-adv-x="1200" 
d="M623 -18q-189 0 -310.5 118.5t-121.5 323.5q0 194 72.5 347.5t200.5 238.5t288 85q172 0 288.5 -117.5t116.5 -310.5q0 -87 -14 -154h-811q-5 -43 -5 -78q0 -162 87 -247.5t218 -85.5q226 0 309 162h140q-38 -125 -161 -203.5t-297 -78.5zM350 621h667q4 24 4 60
q0 127 -76.5 212.5t-204.5 85.5q-138 0 -243.5 -98.5t-146.5 -259.5z" />
    <glyph glyph-name="zhecyrillic" unicode="&#x436;" horiz-adv-x="1586" 
d="M1683 1077l-597 -529l395 -548h-152l-362 502h-43l-107 -502h-132l107 502h-48l-549 -502h-172l622 572l-343 505h142l322 -474h47l101 474h132l-101 -474h44l525 474h169z" />
    <glyph glyph-name="zecyrillic" unicode="&#x437;" horiz-adv-x="1064" 
d="M972 337q-3 -157 -131 -256.5t-317 -99.5q-171 0 -278 91.5t-112 239.5h131q5 -93 77 -153t189 -60q130 0 216 66t88 166q2 89 -56.5 130t-178.5 41h-168l26 111h167q114 0 188.5 55t75.5 139q2 84 -52.5 126.5t-161.5 42.5q-114 0 -196.5 -56.5t-123.5 -157.5h-131
q54 153 175 243t290 90q162 0 251.5 -72t86.5 -195q-2 -98 -69 -168.5t-166 -87.5l-3 -12q87 -17 136 -75t47 -148z" />
    <glyph glyph-name="iicyrillic" unicode="&#x438;" horiz-adv-x="1228" 
d="M271 0h-135l229 1077h133l-185 -866h12l779 866h134l-229 -1077h-132l184 868h-12z" />
    <glyph glyph-name="iishortcyrillic" unicode="&#x439;" horiz-adv-x="1228" 
d="M560 1538h117q-19 -88 22 -147t129 -59q92 0 156.5 58.5t83.5 147.5h120q-29 -136 -124.5 -217t-247.5 -81q-139 0 -211.5 84t-44.5 214zM271 0h-135l229 1077h133l-185 -866h12l779 866h134l-229 -1077h-132l184 868h-12z" />
    <glyph glyph-name="kacyrillic" unicode="&#x43a;" horiz-adv-x="1070" 
d="M1165 1077l-630 -525l429 -552h-156l-393 500h-39l-106 -500h-134l229 1077h134l-101 -472h39l557 472h171z" />
    <glyph glyph-name="elcyrillic" unicode="&#x43b;" horiz-adv-x="1180" 
d="M455 463q-74 -254 -159 -363t-229 -109q-31 0 -58 10l26 121q24 -8 52 -8q76 0 134 88.5t109 265.5q13 42 85 298t87 311h688l-229 -1077h-133l205 966h-435q-66 -246 -143 -503z" />
    <glyph glyph-name="emcyrillic" unicode="&#x43c;" horiz-adv-x="1523" 
d="M267 0h-131l229 1077h156l234 -895h12l612 895h154l-229 -1077h-134l178 837h-14l-558 -816h-103l-214 816h-14z" />
    <glyph glyph-name="encyrillic" unicode="&#x43d;" horiz-adv-x="1208" 
d="M136 0l229 1077h134l-99 -462h585l99 462h134l-229 -1077h-134l107 504h-585l-107 -504h-134z" />
    <glyph glyph-name="ocyrillic" unicode="&#x43e;" horiz-adv-x="1238" 
d="M330 442q0 -155 86 -248t228 -93q112 0 206 69.5t148.5 189.5t54.5 263q0 164 -82.5 259t-225.5 95q-182 0 -298.5 -150t-116.5 -385zM628 -18q-196 0 -316.5 123t-120.5 323q0 191 72.5 343.5t202 238t291.5 85.5q195 0 315.5 -122.5t120.5 -321.5q0 -190 -73 -343
t-202.5 -239.5t-289.5 -86.5z" />
    <glyph glyph-name="pecyrillic" unicode="&#x43f;" horiz-adv-x="1198" 
d="M845 0l206 966h-575l-206 -966h-134l229 1077h843l-229 -1077h-134z" />
    <glyph glyph-name="ercyrillic" unicode="&#x440;" horiz-adv-x="1263" 
d="M667 101q118 0 215.5 75t153 202.5t55.5 279.5q0 149 -76.5 234t-210.5 85q-123 0 -224 -77t-156 -202t-55 -268q0 -152 80.5 -240.5t217.5 -88.5zM193 -357h-133l305 1434h127l-39 -184h12q63 94 164 148t215 54q166 0 275 -117.5t109 -300.5q0 -189 -73 -349t-200 -253
t-280 -93q-130 0 -224 72.5t-117 189.5h-12z" />
    <glyph glyph-name="escyrillic" unicode="&#x441;" horiz-adv-x="1171" 
d="M1169 759h-134q-14 92 -93.5 154.5t-187.5 62.5q-126 0 -224 -72t-149.5 -189t-51.5 -257q0 -169 79 -264t225 -95q108 0 192 58.5t127 150.5h141q-58 -146 -180.5 -236.5t-285.5 -90.5q-211 0 -322.5 125t-111.5 343q0 127 40.5 244t112.5 206t179.5 142t232.5 53
q170 0 284 -99.5t127 -235.5z" />
    <glyph glyph-name="tecyrillic" unicode="&#x442;" horiz-adv-x="985" 
d="M1110 1077l-23 -111h-363l-206 -966h-134l206 966h-363l23 111h860z" />
    <glyph glyph-name="ucyrillic" unicode="&#x443;" horiz-adv-x="1099" 
d="M171 -382q-54 0 -103 13l23 110q42 -11 88 -11q61 0 111 42.5t107 145.5l46 81l-179 1078h131l143 -913h12l515 913h145l-696 -1202q-86 -148 -161.5 -202.5t-181.5 -54.5z" />
    <glyph glyph-name="efcyrillic" unicode="&#x444;" horiz-adv-x="1544" 
d="M720 -357h-131l72 338q-211 8 -341 132t-130 328q0 134 48.5 252t137.5 206.5t223.5 140.5t297.5 55l76 358h132l-77 -358q211 -8 341 -132.5t130 -328.5q0 -134 -49 -252t-138 -206.5t-223.5 -140.5t-296.5 -54zM1361 618q0 167 -95.5 261.5t-261.5 99.5l-188 -882
q166 5 291.5 78t189.5 188.5t64 254.5zM327 457q0 -166 96 -260.5t262 -99.5l187 882q-165 -6 -291 -79t-190 -188.5t-64 -254.5z" />
    <glyph glyph-name="hacyrillic" unicode="&#x445;" horiz-adv-x="1069" 
d="M596 436h-12l-384 -436h-157l495 546l-269 531h143l209 -432h12l382 432h158l-493 -539l268 -538h-138z" />
    <glyph glyph-name="tsecyrillic" unicode="&#x446;" horiz-adv-x="1257" 
d="M1092 -285h-124l61 285h-893l229 1077h134l-206 -966h575l206 966h134l-206 -966h174z" />
    <glyph glyph-name="checyrillic" unicode="&#x447;" horiz-adv-x="1125" 
d="M906 0h-134l108 509h-13q-137 -116 -301 -116q-173 0 -255 109.5t-44 289.5l60 285h134l-61 -288q-28 -132 22 -205t178 -73q96 0 178.5 44t133.5 105l89 417h134z" />
    <glyph glyph-name="shacyrillic" unicode="&#x448;" horiz-adv-x="1677" 
d="M136 0l229 1077h135l-206 -966h460l205 966h134l-205 -966h460l205 966h134l-229 -1077h-1322z" />
    <glyph glyph-name="shchacyrillic" unicode="&#x449;" horiz-adv-x="1737" 
d="M1572 -285h-124l61 285h-1373l229 1077h135l-206 -966h460l205 966h134l-205 -966h460l205 966h134l-205 -966h174z" />
    <glyph glyph-name="hardsigncyrillic" unicode="&#x44a;" horiz-adv-x="1211" 
d="M665 0h-362l205 966h-287l23 111h422l-78 -366h228q155 0 242.5 -78t87.5 -207q0 -184 -132 -305t-349 -121zM792 599h-228l-104 -488h228q146 0 235 88t89 212q0 90 -57 139t-163 49z" />
    <glyph glyph-name="yericyrillic" unicode="&#x44b;" horiz-adv-x="1406" 
d="M1053 0l229 1077h134l-229 -1077h-134zM623 599h-226l-103 -488h224q146 0 235 88t89 212q0 90 -56.5 139t-162.5 49zM136 0l229 1077h134l-78 -366h226q155 0 242 -78t87 -207q0 -184 -131.5 -305t-349.5 -121h-359z" />
    <glyph glyph-name="softsigncyrillic" unicode="&#x44c;" horiz-adv-x="1041" 
d="M623 599h-226l-103 -488h224q146 0 235 88t89 212q0 90 -56.5 139t-162.5 49zM136 0l229 1077h134l-78 -366h226q155 0 242 -78t87 -207q0 -184 -131.5 -305t-349.5 -121h-359z" />
    <glyph glyph-name="ereversedcyrillic" unicode="&#x44d;" horiz-adv-x="1168" 
d="M222 759q54 155 178 245.5t296 90.5q193 0 310.5 -120t117.5 -319q0 -139 -40.5 -262t-113 -214.5t-180.5 -145t-236 -53.5q-179 0 -286.5 93t-117.5 234h133q12 -92 87 -150.5t189 -58.5q160 0 271.5 111t142.5 291h-525l24 112h513q1 8 1 26q2 155 -80.5 246t-226.5 91
q-110 0 -194.5 -57.5t-129.5 -159.5h-133z" />
    <glyph glyph-name="iucyrillic" unicode="&#x44e;" horiz-adv-x="1655" 
d="M1053 -18q-192 0 -311 123.5t-119 322.5q0 43 4 76h-250l-107 -504h-134l229 1077h134l-99 -462h243q47 214 190 347t349 133q193 0 311.5 -123t118.5 -321q0 -180 -66.5 -331t-196 -244.5t-296.5 -93.5zM1070 101q165 0 283.5 150t118.5 372q0 164 -81 259t-221 95
q-121 0 -215 -72t-144.5 -195t-50.5 -273q0 -152 84 -244t226 -92z" />
    <glyph glyph-name="iacyrillic" unicode="&#x44f;" horiz-adv-x="1076" 
d="M607 518h230l95 448h-231q-145 0 -232.5 -74t-87.5 -185q0 -91 57.5 -140t168.5 -49zM726 0l87 407h-208h-4l-377 -407h-170l404 431q-101 26 -156 95.5t-55 172.5q0 163 126.5 270.5t350.5 107.5h365l-229 -1077h-134z" />
    <glyph glyph-name="iocyrillic" unicode="&#x451;" horiz-adv-x="1200" 
d="M623 -18q-189 0 -310.5 118.5t-121.5 323.5q0 194 72.5 347.5t200.5 238.5t288 85q172 0 288.5 -117.5t116.5 -310.5q0 -87 -14 -154h-811q-5 -43 -5 -78q0 -162 87 -247.5t218 -85.5q226 0 309 162h140q-38 -125 -161 -203.5t-297 -78.5zM350 621h667q4 24 4 60
q0 127 -76.5 212.5t-204.5 85.5q-138 0 -243.5 -98.5t-146.5 -259.5zM618 1228q-42 0 -72 29.5t-30 72.5t30 72.5t72 29.5q43 0 73 -29.5t30 -72.5t-30 -72.5t-73 -29.5zM982 1228q-43 0 -72.5 29.5t-29.5 72.5t29.5 72.5t72.5 29.5q42 0 72 -29.5t30 -72.5t-30 -72.5
t-72 -29.5z" />
    <glyph glyph-name="djecyrillic" unicode="&#x452;" horiz-adv-x="1235" 
d="M470 895h12q132 200 349 200q155 0 249.5 -94t94.5 -232q0 -55 -13 -116l-158 -742q-31 -145 -102 -211.5t-205 -66.5q-86 0 -93 1l28 124q6 -1 56 -1q150 0 185 167l151 706q13 63 13 104q0 110 -68.5 176.5t-189.5 66.5q-135 0 -232 -89t-127 -226l-141 -662h-133
l274 1285h-152l21 98h152l26 123h134l-26 -123h256l-21 -98h-256z" />
    <glyph glyph-name="gjecyrillic" unicode="&#x453;" horiz-adv-x="946" 
d="M596 1267l320 327h169l-339 -327h-150zM1015 966h-539l-206 -966h-134l229 1077h673z" />
    <glyph glyph-name="ecyrillic" unicode="&#x454;" horiz-adv-x="1171" 
d="M1093 308q-58 -146 -180.5 -236.5t-285.5 -90.5q-211 0 -322.5 125t-111.5 343q0 127 40.5 244t112.5 206t179.5 142t232.5 53q170 0 284 -99.5t127 -235.5h-134q-14 92 -93.5 154.5t-187.5 62.5q-152 0 -261 -101t-145 -260h527l-23 -111h-520q-3 -19 -3 -40
q-2 -171 77 -268t227 -97q108 0 192 58.5t127 150.5h141z" />
    <glyph glyph-name="dzecyrillic" unicode="&#x455;" horiz-adv-x="1070" 
d="M136 281h135q19 -84 96 -135.5t189 -51.5q121 0 199.5 55t78.5 141q0 59 -39.5 101.5t-131.5 73.5l-143 48q-127 43 -187.5 108.5t-60.5 164.5q0 136 111.5 222.5t280.5 86.5q161 0 266.5 -78t123.5 -206h-130q-15 77 -87.5 124.5t-176.5 47.5q-110 0 -182.5 -53
t-72.5 -132q0 -57 42.5 -98.5t131.5 -71.5l129 -43q137 -47 199 -114.5t62 -171.5q0 -138 -119 -227.5t-300 -89.5q-173 0 -288 83t-126 216z" />
    <glyph glyph-name="icyrillic" unicode="&#x456;" horiz-adv-x="509" 
d="M148 0l229 1077h131l-229 -1077h-131zM514 1317q-40 0 -68.5 29t-28.5 69t28.5 68.5t68.5 28.5t69 -28.5t29 -68.5q0 -41 -29 -69.5t-69 -28.5z" />
    <glyph glyph-name="yicyrillic" unicode="&#x457;" horiz-adv-x="512" 
d="M335 1317q-40 0 -68.5 28.5t-28.5 69.5q0 40 28.5 68.5t68.5 28.5t68.5 -28.5t28.5 -68.5q0 -41 -28.5 -69.5t-68.5 -28.5zM687 1317q-40 0 -68.5 28.5t-28.5 69.5q0 40 28.5 68.5t68.5 28.5t68.5 -28.5t28.5 -68.5q0 -41 -28.5 -69.5t-68.5 -28.5zM138 0l229 1077h131
l-229 -1077h-131z" />
    <glyph glyph-name="jecyrillic" unicode="&#x458;" horiz-adv-x="507" 
d="M509 1077l-249 -1170q-30 -143 -108 -208.5t-212 -65.5q-46 0 -73 5l27 117q23 -5 50 -5q81 0 125 40t63 134l246 1153h131zM511 1317q-40 0 -68.5 29t-28.5 69t28.5 68.5t68.5 28.5t69 -28.5t29 -68.5q0 -41 -28.5 -69.5t-69.5 -28.5z" />
    <glyph glyph-name="ljecyrillic" unicode="&#x459;" horiz-adv-x="1732" 
d="M67 -9q-31 0 -58 10l26 121q24 -8 52 -8q76 0 134 88.5t109 265.5q13 42 85 298t87 311h688l-78 -366h226q155 0 242 -78t87 -207q0 -184 -131.5 -305t-349.5 -121h-359l205 966h-434q-66 -246 -143 -503q-74 -254 -159 -363t-229 -109zM1314 599h-225l-104 -488h224
q146 0 235 88t89 212q0 90 -56.5 139t-162.5 49z" />
    <glyph glyph-name="njecyrillic" unicode="&#x45a;" horiz-adv-x="1753" 
d="M1006 111h231q136 0 222 69.5t86 168.5q0 82 -55 126t-154 44h-243zM270 0h-134l229 1077h134l-95 -447h579l95 447h134l-95 -446h243q146 0 232.5 -73.5t86.5 -186.5q0 -163 -128.5 -267t-336.5 -104h-365l110 519h-579z" />
    <glyph glyph-name="tshecyrillic" unicode="&#x45b;" horiz-adv-x="1235" 
d="M470 895h12q132 200 349 200q155 0 249.5 -94t94.5 -232q0 -55 -13 -116l-139 -653h-133l134 630q13 63 13 104q0 110 -68.5 176.5t-189.5 66.5q-135 0 -232 -89t-127 -226l-141 -662h-133l275 1285h-153l21 98h153l26 123h133l-26 -123h256l-21 -98h-256z" />
    <glyph glyph-name="kjecyrillic" unicode="&#x45c;" horiz-adv-x="1070" 
d="M1139 1594l-339 -327h-150l320 327h169zM1165 1077l-630 -525l429 -552h-156l-393 500h-39l-106 -500h-134l229 1077h134l-101 -472h39l557 472h171z" />
    <glyph glyph-name="ushortcyrillic" unicode="&#x45e;" horiz-adv-x="1099" 
d="M494 1538h117q-19 -88 22 -147t129 -59q92 0 156.5 58.5t83.5 147.5h120q-29 -136 -124.5 -217t-247.5 -81q-139 0 -211.5 84t-44.5 214zM171 -382q-54 0 -103 13l23 110q42 -11 88 -11q61 0 111 42.5t107 145.5l46 81l-179 1078h131l143 -913h12l515 913h145l-696 -1202
q-86 -148 -161.5 -202.5t-181.5 -54.5z" />
    <glyph glyph-name="dzhecyrillic" unicode="&#x45f;" horiz-adv-x="1198" 
d="M979 0h-359l-61 -285h-125l61 285h-359l229 1077h134l-206 -966h575l206 966h134z" />
    <glyph glyph-name="Geupturncyrillic" unicode="&#x490;" horiz-adv-x="1158" 
d="M574 1319l-281 -1319h-140l307 1443h723l58 273h127l-84 -397h-710z" />
    </font>
</defs>
</svg>
